<svg xmlns="http://www.w3.org/2000/svg" width="67" height="66"><path d="M65.11 30.038L36.133 1.244A4.286 4.286 0 0 0 33.112 0c-1.133 0-2.22.447-3.021 1.244l-6.016 5.98 7.632 7.586a5.097 5.097 0 0 1 5.221 1.21 5.026 5.026 0 0 1 1.206 5.221l7.356 7.31a5.1 5.1 0 0 1 5.254 1.198 5.031 5.031 0 0 1 1.492 3.574c0 1.34-.537 2.626-1.492 3.573a5.101 5.101 0 0 1-3.597 1.482 5.101 5.101 0 0 1-3.597-1.482 5.033 5.033 0 0 1-1.107-5.496l-6.86-6.82v17.94c.484.239.94.556 1.345.956a5.032 5.032 0 0 1 0 7.148 5.108 5.108 0 0 1-7.191 0 5.032 5.032 0 0 1 0-7.148 5.095 5.095 0 0 1 1.666-1.103V24.267a5.016 5.016 0 0 1-1.666-1.102 5.03 5.03 0 0 1-1.096-5.525l-7.523-7.478L1.252 29.905a4.23 4.23 0 0 0 0 6.007l28.972 28.79a4.282 4.282 0 0 0 3.023 1.247 4.282 4.282 0 0 0 3.022-1.247l28.84-28.654a4.236 4.236 0 0 0 0-6.008v-.002z"/></svg>