<svg xmlns="http://www.w3.org/2000/svg" width="61" height="49"><path fill="#010002" d="M11.16 5.748a5.743 5.743 0 1 1 11.487 0 5.743 5.743 0 0 1-11.487 0zm8.326 8.42l2.536-1.282-.513-1.015-2.535 1.282.512 1.015zM60.4 2.539l-1.221 12.654a.58.58 0 0 1-.629.518l-8.146-.789a.579.579 0 0 1-.52-.627l.312-3.207-1.229-.118a3.501 3.501 0 0 1-1.436.998c-5.423 2.083-10.953 3.651-16.594 4.802a38.396 38.396 0 0 1 5.898 8.926c.176.366.314.739.426 1.118.113.146.221.298.324.473 3.618 6.342 9.368 12.301 16.514 14.454 4.15 1.251 2.381 7.755-1.791 6.496-7.528-2.271-13.893-7.726-18.393-14.166-7.085 1.108-18.237 3.446-19.505 11.593-.667 4.282-7.16 2.459-6.498-1.791 1.313-8.449 9.641-12.713 17.704-14.902-1.715-2.938-3.825-5.498-6.507-7.751-.051-.044-.096-.093-.145-.139-6.192.852-12.18-.733-17.457-4.384-3.548-2.454-.183-8.297 3.4-5.818 4.619 3.989 13.337 3.353 13.39 3.266l3.083 2.036-1.502-1.629 2.141-1.198.627 2.079v-3.997c.023-.004.046-.013.069-.016 7.89-1.035 15.598-3.091 23.023-5.943 1.387-.532 2.501-.124 3.209.705l.146-1.5 1.703.164.311-3.204a.578.578 0 0 1 .629-.517l8.146.786c.318.03.549.312.518.628zM50.743 5.43l-1.118-.108-.162 1.677c.467 1.043.48 2.36-.105 3.421l.896.088.489-5.078z"/></svg>