<svg xmlns="http://www.w3.org/2000/svg" width="50" height="50"><g fill="none" fill-rule="evenodd"><circle cx="25" cy="25" r="25" fill="#FFF"/><g fill-rule="nonzero"><path fill="silver" d="M39.278 35.952l-9.209-4.219L30 12.608c-.002-.447.487-.741.91-.548l8.73 4.001c.22.101.36.313.36.546V35.52c0 .353-.387.585-.722.432z"/><path fill="#000" d="M30.157 32L20 27.413l9.779-15.12a.67.67 0 0 1 .833-.233l9.021 4.075c.345.155.472.557.272.864L30.157 32z"/><path fill="silver" d="M30 32l-10.875-3.93-9.051-15.304c-.252-.426.187-.93.62-.714L20 16.474 30 32z"/><path fill="#000" d="M19.279 36.95l-8.994-4.28a.498.498 0 0 1-.285-.448v-19.74c0-.354.375-.588.699-.434L20 16.474v20.027a.503.503 0 0 1-.721.45z"/></g></g></svg>