<svg xmlns="http://www.w3.org/2000/svg" width="54" height="54"><g fill="#FFF" fill-rule="evenodd"><path fill-rule="nonzero" d="M0 0v54h54V0H0zm50.836 50.836H3.164V3.164h47.672v47.672z"/><path fill-rule="nonzero" d="M6 6v42h42V6H6zm37.63 23.273L29.273 43.63a3.214 3.214 0 0 1-4.546 0L10.37 29.273a3.214 3.214 0 0 1 0-4.546L24.727 10.37a3.214 3.214 0 0 1 4.546 0L43.63 24.727a3.214 3.214 0 0 1 0 4.546z"/><path d="M32.383 27.64c-.345-.077-1.835-.303-1.835-1.092 0-.633.559-.976 1.425-.976 1.176 0 2.233.628 2.709.96l.962-1.34C35.133 24.771 34.039 24 31.99 24c-1.951 0-3.67 1.028-3.67 2.862 0 1.905 2.726 2.261 3.332 2.416.724.187 2.049.429 2.049 1.174 0 .607-.628.96-1.533.96-1.396 0-2.708-.767-3.278-1.142L28 31.66c.535.43 2.068 1.34 4.223 1.34C33.387 33 36 32.662 36 30.254c0-2.038-2.976-2.46-3.617-2.614z"/><path fill-rule="nonzero" d="M24.14 20H19v12h2.357v-4.023h2.869c2.101 0 3.774-1.81 3.774-3.988C28 22.14 26.493 20 24.14 20zm-.05 5.932h-2.733v-3.887h2.63c1 0 1.622.93 1.622 1.944 0 1.18-.693 1.943-1.52 1.943z"/></g></svg>