<svg xmlns="http://www.w3.org/2000/svg" width="56" height="56"><g fill-rule="evenodd"><path d="M7.556 9A3.55 3.55 0 0 0 4 12.545V22h2.37v-9.455c0-.652.531-1.181 1.186-1.181H36V9H7.556zm.906 35.692a1.154 1.154 0 0 1-1.154-1.154V32H5v11.538A3.462 3.462 0 0 0 8.462 47H20v-2.308H8.462z"/><path fill-rule="nonzero" d="M36.661 47.42L8.581 19.338a1.156 1.156 0 0 0-1.636 0L.34 25.945a1.156 1.156 0 0 0 0 1.635l28.08 28.081a1.156 1.156 0 0 0 1.636 0l6.606-6.607a1.156 1.156 0 0 0 0-1.635zm-7.424 5.789L2.791 26.763l4.972-4.972 26.446 26.446-4.972 4.972z"/><path fill-rule="nonzero" d="M51.368 45H34v2.25h12.737v5.625c0 .621.518 1.125 1.158 1.125h3.473C53.926 54 56 51.985 56 49.5S53.926 45 51.368 45zm0 6.75h-2.315v-4.5h2.315c1.28 0 2.316 1.007 2.316 2.25s-1.037 2.25-2.316 2.25z"/><path d="M51.111 9H45v2.353h6.111c1.35 0 2.445 1.053 2.445 2.353V49H56V13.706C56 11.106 53.811 9 51.111 9zM17.842 36.492l3.5-3.5 1.65 1.65-3.5 3.5zM13.175 31.825l3.5-3.5 1.65 1.65-3.5 3.5zM22.505 41.157l3.5-3.5 1.651 1.65-3.5 3.5zM27.175 45.827l3.5-3.5 1.65 1.65-3.5 3.5zM8.505 27.158l3.5-3.5 1.65 1.65-3.5 3.5z"/><path fill-rule="nonzero" d="M50.013 2.534L48.437.956a3.447 3.447 0 0 0-4.765 0l-17.338 17.36a1.143 1.143 0 0 0 0 1.615l4.728 4.735a1.14 1.14 0 0 0 1.612 0L50.014 7.305l.001-.002a3.376 3.376 0 0 0-.001-4.77zm-1.611 3.155L31.868 22.244l-3.116-3.12L45.285 2.57a1.113 1.113 0 0 1 1.54 0l1.577 1.577a1.091 1.091 0 0 1 0 1.542z"/><path d="M31.244 23.197l-5.156 1.721 1.721-5.162L25.54 19l-2.478 7.429a1.196 1.196 0 0 0 1.507 1.514L32 25.466l-.756-2.269zM40.609 5.868l1.65-1.65 4.837 4.839-1.65 1.65z"/><path d="M24 26h18v2H24zM44 26h2v2h-2zM49 26h2v2h-2z"/></g></svg>