<svg xmlns="http://www.w3.org/2000/svg" width="59" height="54"><g fill="#FFF" fill-rule="evenodd"><path fill-rule="nonzero" d="M55.455 0H3.545C1.59 0 0 1.602 0 3.572v46.856C0 52.398 1.59 54 3.546 54h51.91C57.41 54 59 52.398 59 50.428V3.572C59 1.602 57.41 0 55.455 0zm-10.69 5.998c0-.728.586-1.319 1.309-1.319h1.309c.723 0 1.309.59 1.309 1.32v1.494c0 .729-.586 1.32-1.31 1.32h-1.308c-.723 0-1.31-.591-1.31-1.32V5.998zm-6.088 0c0-.728.586-1.319 1.31-1.319h1.308c.723 0 1.31.59 1.31 1.32v1.494c0 .729-.587 1.32-1.31 1.32h-1.309c-.723 0-1.31-.591-1.31-1.32V5.998zm16.068 43.715H4.255V12.774h50.49v36.94zm.035-42.22c0 .729-.586 1.32-1.31 1.32h-1.309c-.723 0-1.309-.591-1.309-1.32V5.998c0-.728.586-1.319 1.31-1.319h1.309c.723 0 1.309.59 1.309 1.32v1.494z"/><path d="M12.133 32.287l10.082 4.537a2.009 2.009 0 0 0 1.88-.122c.566-.35.905-.948.905-1.598v-.05a1.9 1.9 0 0 0-1.134-1.72L17.56 30.5l6.306-2.835A1.9 1.9 0 0 0 25 25.944v-.05c0-.65-.339-1.248-.906-1.598a2.025 2.025 0 0 0-1.88-.121l-10.08 4.537A1.9 1.9 0 0 0 11 30.432v.135c0 .734.444 1.408 1.133 1.72zm12.222 8.958c.347.473.904.755 1.491.755h.048a1.84 1.84 0 0 0 1.758-1.278l6.26-19.32A1.84 1.84 0 0 0 32.154 19h-.047a1.84 1.84 0 0 0-1.76 1.278L24.087 39.6a1.842 1.842 0 0 0 .268 1.645zM34 25.944c0 .734.445 1.409 1.134 1.72l6.305 2.835-6.305 2.835A1.9 1.9 0 0 0 34 35.054v.05c0 .65.338 1.248.906 1.598a2.006 2.006 0 0 0 1.88.121l10.08-4.537A1.901 1.901 0 0 0 48 30.567v-.136a1.9 1.9 0 0 0-1.134-1.72l-10.08-4.536a2.02 2.02 0 0 0-1.88.12c-.567.35-.906.948-.906 1.6v.049z"/></g></svg>