<svg xmlns="http://www.w3.org/2000/svg" width="54" height="54"><path fill="#FFF" d="M53.283 17.8l-2.695-2.69a2.41 2.41 0 0 0-3.415 0l-.366.366c-3.56-2.369-7.697-3.62-12.033-3.631h-.045c-2.695 0-5.3.476-7.752 1.406l4.725-4.716a4.432 4.432 0 0 0 1.93.432 4.432 4.432 0 0 0 3.171-1.318 4.461 4.461 0 0 0 1.32-3.166 4.415 4.415 0 0 0-1.32-3.166A4.497 4.497 0 0 0 33.631 0a4.432 4.432 0 0 0-3.172 1.317 4.48 4.48 0 0 0-.887 5.093l-8.506 8.49-.288-.287a2.41 2.41 0 0 0-3.416 0l-2.728 2.712a2.402 2.402 0 0 0 0 3.41l.288.287-8.506 8.49a4.432 4.432 0 0 0-1.93-.43 4.432 4.432 0 0 0-3.172 1.317c-1.752 1.749-1.752 4.594 0 6.332a4.477 4.477 0 0 0 3.172 1.317 4.432 4.432 0 0 0 3.172-1.317 4.472 4.472 0 0 0 .876-5.093l4.724-4.715a21.654 21.654 0 0 0-1.408 7.782c.011 4.328 1.264 8.457 3.638 12.01l-.455.455a2.422 2.422 0 0 0 0 3.42l2.706 2.702a2.41 2.41 0 0 0 3.416 0l2.706-2.702a2.422 2.422 0 0 0 0-3.42l-2.706-2.701a2.41 2.41 0 0 0-3.416 0l-.078.077c-3.892-6.299-3.726-14.446.522-20.58a2.41 2.41 0 0 0 2.584-.542l2.706-2.7a2.415 2.415 0 0 0 .543-2.58c6.144-4.24 14.306-4.417 20.617-.52l-.166.166a2.422 2.422 0 0 0 0 3.42l2.706 2.701a2.41 2.41 0 0 0 3.415 0l2.706-2.7c.943-.93.943-2.458-.01-3.41zm-31.95 31.097l-1.897 1.893-1.897-1.893 1.897-1.893 1.896 1.893zM32.555 3.443a1.486 1.486 0 0 1 1.053-.432c.4 0 .776.155 1.054.432.277.277.432.653.432 1.051 0 .399-.155.775-.432 1.052a1.486 1.486 0 0 1-1.054.432c-.4 0-.776-.155-1.053-.432a1.48 1.48 0 0 1-.433-1.052 1.5 1.5 0 0 1 .433-1.051zM5.54 34.627a1.486 1.486 0 0 1-1.054.432c-.4 0-.776-.155-1.054-.432a1.475 1.475 0 0 1 0-2.103 1.486 1.486 0 0 1 1.054-.432c.4 0 .776.155 1.054.432a1.475 1.475 0 0 1 0 2.103zm13.508-13.704L17.15 19.03l1.897-1.893.942.94.943.941-1.885 1.905zm29.821.476l-1.896-1.893 1.896-1.893 1.897 1.893-1.897 1.893z"/></svg>