<svg xmlns="http://www.w3.org/2000/svg" width="56" height="56"><g fill="#FFF" fill-rule="evenodd"><path d="M28.346 30L22 49.107a20.46 20.46 0 0 0 13-.35 1.973 1.973 0 0 1-.15-.302L28.346 30zM6 28.03C6 36.814 11.306 44.404 19 48L7.998 19A21.4 21.4 0 0 0 6 28.03z"/><path d="M42.994 26.586c0-2.68-.969-4.534-1.8-5.98-1.108-1.786-2.146-3.297-2.146-5.084 0-1.993 1.523-3.848 3.669-3.848.097 0 .188.012.283.017A21.853 21.853 0 0 0 28.25 6 21.854 21.854 0 0 0 10 15.773c.512.015.994.026 1.405.026 2.285 0 5.823-.275 5.823-.275 1.178-.07 1.315 1.647.14 1.785 0 0-1.184.137-2.5.207L22.82 41l4.78-14.23-3.405-9.255c-1.176-.07-2.29-.207-2.29-.207-1.176-.068-1.039-1.854.138-1.785 0 0 3.608.275 5.753.275 2.285 0 5.823-.275 5.823-.275 1.178-.069 1.316 1.647.139 1.785 0 0-1.185.138-2.5.207l7.895 23.306 2.178-7.226c.944-2.999 1.662-5.153 1.662-7.009zM47.289 18c.095.686.15 1.425.15 2.219 0 2.189-.42 4.65-1.682 7.727L39 47c6.575-3.74 11-10.69 11-18.648 0-3.752-.983-7.28-2.71-10.352z"/><path fill-rule="nonzero" d="M28 0C12.536 0 0 12.536 0 28s12.536 28 28 28 28-12.536 28-28S43.464 0 28 0zm.001 52.545C14.466 52.545 3.455 41.535 3.455 28c0-13.534 11.01-24.544 24.546-24.544 13.534 0 24.544 11.01 24.544 24.544 0 13.535-11.01 24.546-24.544 24.546z"/></g></svg>