<svg xmlns="http://www.w3.org/2000/svg" width="50" height="50"><g fill="#FFF"><path d="M21.886 29.684L30.018 25l-8.132-4.684z"/><path d="M25 0C11.195 0 0 11.195 0 25s11.195 25 25 25 25-11.195 25-25S38.805 0 25 0zm15.621 25.026s0 5.07-.643 7.515a3.915 3.915 0 0 1-2.754 2.753c-2.445.644-12.224.644-12.224.644s-9.754 0-12.224-.67a3.915 3.915 0 0 1-2.754-2.753C9.378 30.095 9.378 25 9.378 25s0-5.07.644-7.515a3.994 3.994 0 0 1 2.754-2.779C15.22 14.063 25 14.063 25 14.063s9.78 0 12.224.669a3.915 3.915 0 0 1 2.754 2.753c.67 2.445.643 7.54.643 7.54z"/></g></svg>