<svg xmlns="http://www.w3.org/2000/svg" width="100" height="79" viewBox="0 0 100 79">
  <g fill="none">
    <polyline fill="#A66D43" points="87 40 87 58.353 51 79 51 44.588"/>
    <polyline fill="#674025" points="14 40 14 58.353 50 79 50 44.588"/>
    <polygon fill="#A66D43" points="58 43.097 49.999 39 42 43.097 49.999 47"/>
    <polygon fill="#C18E59" points="50 7.231 63.636 0 100 20.25 87.274 27"/>
    <polygon fill="#C18E59" points="87.274 27 50 46.769 63.636 54 100 33.75"/>
    <polygon fill="#C18E59" points="50 46.769 36.364 54 0 33.75 12.727 27"/>
    <polygon fill="#A66D43" points="12.727 27 50 7.231 36.364 0 0 20.25"/>
    <polygon fill="#674025" points="42.014 43 12 27.114 50 7 50 38.561"/>
    <polygon fill="#A66D43" points="50 38.561 50 7 88 27.114 57.987 43"/>
  </g>
</svg>
