<svg xmlns="http://www.w3.org/2000/svg" width="68" height="68" viewBox="0 0 68 68">
  <g fill="none" fill-rule="evenodd">
    <circle cx="34" cy="34" r="34" fill="#D8D8D8"/>
    <path fill="#002865" fill-rule="nonzero" d="M20.0001561 26C26.0749461 26 31 20.1797597 31 13.0000759 31 5.82024034 29.3830325 0 20.0001561 0 10.6172797 0 9 5.82024034 9 13.0000759 9 20.1797597 13.9250539 26 20.0001561 26zM40.977049 45.9117555C40.7760354 33.0054859 39.11956 29.3278997 26.4436876 27 26.4436876 27 24.6593645 29.3136364 20.5004621 29.3136364 16.3415597 29.3136364 14.5569285 27 14.5569285 27 2.01937816 29.3025078.262164883 32.9255486.0311147511 45.4924765.0121686403 46.518652.00338873527 46.5725705 0 46.4534483.000770167107 46.6766458.00169436764 47.0894984.00169436764 47.8094044.00169436764 47.8094044 3.01951716 54 20.5004621 54 37.981099 54 40.9992298 47.8094044 40.9992298 47.8094044 40.9992298 47.3468652 40.9995379 47.0252351 41 46.8064263 40.9966113 46.880094 40.9898338 46.7373041 40.977049 45.9117555z" transform="translate(14 10)"/>
  </g>
</svg>
