<svg xmlns="http://www.w3.org/2000/svg" width="568" height="110"><g fill="#FFF"><path d="M.028 69.467L0 44.76l30.4-4.128v28.834H.028zm35.439-29.57L75.99 34v35.467H35.467v-29.57zM76 74.532L75.99 110l-40.523-5.701V74.533H76zm-45.6 29.12L.025 99.49.023 74.533H30.4v29.12zM155.096 55.4L143.96 89h-6.624l-8.304-24.864L120.584 89h-6.672l-11.136-33.6h6.48l8.352 25.536 8.688-25.536h5.76l8.496 25.68 8.592-25.68h5.952zm1.552 7.968h6V89h-6V63.368zm3.024-4.224c-1.088 0-2-.344-2.736-1.032-.736-.688-1.104-1.544-1.104-2.568s.368-1.88 1.104-2.568c.736-.688 1.648-1.032 2.736-1.032 1.088 0 2 .328 2.736.984.736.656 1.104 1.48 1.104 2.472 0 1.056-.36 1.944-1.08 2.664-.72.72-1.64 1.08-2.76 1.08zm22.192 3.936c3.232 0 5.824.944 7.776 2.832s2.928 4.688 2.928 8.4V89h-6V75.08c0-2.24-.528-3.928-1.584-5.064-1.056-1.136-2.56-1.704-4.512-1.704-2.208 0-3.952.664-5.232 1.992-1.28 1.328-1.92 3.24-1.92 5.736V89h-6V63.368h5.712v3.312c.992-1.184 2.24-2.08 3.744-2.688 1.504-.608 3.2-.912 5.088-.912zm40.48-9.696V89h-5.76v-3.312a9.283 9.283 0 0 1-3.672 2.736c-1.456.608-3.064.912-4.824.912-2.464 0-4.68-.544-6.648-1.632-1.968-1.088-3.512-2.632-4.632-4.632-1.12-2-1.68-4.296-1.68-6.888 0-2.592.56-4.88 1.68-6.864 1.12-1.984 2.664-3.52 4.632-4.608 1.968-1.088 4.184-1.632 6.648-1.632 1.696 0 3.248.288 4.656.864a9.365 9.365 0 0 1 3.6 2.592V53.384h6zM208.808 84.2c1.44 0 2.736-.328 3.888-.984 1.152-.656 2.064-1.592 2.736-2.808.672-1.216 1.008-2.624 1.008-4.224s-.336-3.008-1.008-4.224c-.672-1.216-1.584-2.152-2.736-2.808-1.152-.656-2.448-.984-3.888-.984s-2.736.328-3.888.984c-1.152.656-2.064 1.592-2.736 2.808-.672 1.216-1.008 2.624-1.008 4.224s.336 3.008 1.008 4.224c.672 1.216 1.584 2.152 2.736 2.808 1.152.656 2.448.984 3.888.984zm29.728 5.136c-2.592 0-4.928-.56-7.008-1.68-2.08-1.12-3.704-2.68-4.872-4.68-1.168-2-1.752-4.264-1.752-6.792 0-2.528.584-4.784 1.752-6.768 1.168-1.984 2.792-3.536 4.872-4.656 2.08-1.12 4.416-1.68 7.008-1.68 2.624 0 4.976.56 7.056 1.68 2.08 1.12 3.704 2.672 4.872 4.656 1.168 1.984 1.752 4.24 1.752 6.768 0 2.528-.584 4.792-1.752 6.792-1.168 2-2.792 3.56-4.872 4.68-2.08 1.12-4.432 1.68-7.056 1.68zm0-5.136c2.208 0 4.032-.736 5.472-2.208 1.44-1.472 2.16-3.408 2.16-5.808s-.72-4.336-2.16-5.808c-1.44-1.472-3.264-2.208-5.472-2.208-2.208 0-4.024.736-5.448 2.208-1.424 1.472-2.136 3.408-2.136 5.808s.712 4.336 2.136 5.808c1.424 1.472 3.24 2.208 5.448 2.208zm55.504-20.832L284.584 89h-5.76L272.2 71.336 265.48 89h-5.76l-9.408-25.632h5.664l6.768 18.912 7.056-18.912h5.04l6.912 19.008 6.96-19.008h5.328zm8.512 25.968c-2.08 0-4.112-.272-6.096-.816-1.984-.544-3.568-1.232-4.752-2.064l2.304-4.56c1.152.768 2.536 1.384 4.152 1.848a17.25 17.25 0 0 0 4.776.696c3.584 0 5.376-.944 5.376-2.832 0-.896-.456-1.52-1.368-1.872-.912-.352-2.376-.688-4.392-1.008-2.112-.32-3.832-.688-5.16-1.104a7.92 7.92 0 0 1-3.456-2.184c-.976-1.04-1.464-2.488-1.464-4.344 0-2.432 1.016-4.376 3.048-5.832 2.032-1.456 4.776-2.184 8.232-2.184 1.76 0 3.52.2 5.28.6 1.76.4 3.2.936 4.32 1.608l-2.304 4.56c-2.176-1.28-4.624-1.92-7.344-1.92-1.76 0-3.096.264-4.008.792-.912.528-1.368 1.224-1.368 2.088 0 .96.488 1.64 1.464 2.04.976.4 2.488.776 4.536 1.128 2.048.32 3.728.688 5.04 1.104a7.888 7.888 0 0 1 3.384 2.112c.944.992 1.416 2.4 1.416 4.224 0 2.4-1.04 4.32-3.12 5.76-2.08 1.44-4.912 2.16-8.496 2.16zm34.64.144c-2.592 0-5.096-.368-7.512-1.104-2.416-.736-4.328-1.712-5.736-2.928l2.16-4.848c1.376 1.088 3.064 1.976 5.064 2.664 2 .688 4.008 1.032 6.024 1.032 2.496 0 4.36-.4 5.592-1.2 1.232-.8 1.848-1.856 1.848-3.168 0-.96-.344-1.752-1.032-2.376-.688-.624-1.56-1.112-2.616-1.464-1.056-.352-2.496-.752-4.32-1.2-2.56-.608-4.632-1.216-6.216-1.824a10.23 10.23 0 0 1-4.08-2.856c-1.136-1.296-1.704-3.048-1.704-5.256 0-1.856.504-3.544 1.512-5.064s2.528-2.728 4.56-3.624c2.032-.896 4.52-1.344 7.464-1.344 2.048 0 4.064.256 6.048.768s3.696 1.248 5.136 2.208l-1.968 4.848a19.415 19.415 0 0 0-4.608-1.968c-1.6-.448-3.152-.672-4.656-.672-2.464 0-4.296.416-5.496 1.248-1.2.832-1.8 1.936-1.8 3.312 0 .96.344 1.744 1.032 2.352.688.608 1.56 1.088 2.616 1.44 1.056.352 2.496.752 4.32 1.2 2.496.576 4.544 1.176 6.144 1.8 1.6.624 2.968 1.576 4.104 2.856 1.136 1.28 1.704 3.008 1.704 5.184 0 1.856-.504 3.536-1.512 5.04s-2.536 2.704-4.584 3.6c-2.048.896-4.544 1.344-7.488 1.344zm40.096-13.152c0 .416-.032 1.008-.096 1.776H357.08c.352 1.888 1.272 3.384 2.76 4.488 1.488 1.104 3.336 1.656 5.544 1.656 2.816 0 5.136-.928 6.96-2.784l3.216 3.696c-1.152 1.376-2.608 2.416-4.368 3.12-1.76.704-3.744 1.056-5.952 1.056-2.816 0-5.296-.56-7.44-1.68-2.144-1.12-3.8-2.68-4.968-4.68-1.168-2-1.752-4.264-1.752-6.792 0-2.496.568-4.744 1.704-6.744 1.136-2 2.712-3.56 4.728-4.68 2.016-1.12 4.288-1.68 6.816-1.68 2.496 0 4.728.552 6.696 1.656 1.968 1.104 3.504 2.656 4.608 4.656 1.104 2 1.656 4.312 1.656 6.936zm-12.96-8.448c-1.92 0-3.544.568-4.872 1.704-1.328 1.136-2.136 2.648-2.424 4.536h14.544c-.256-1.856-1.04-3.36-2.352-4.512-1.312-1.152-2.944-1.728-4.896-1.728zm21.232-.768c1.728-2.688 4.768-4.032 9.12-4.032v5.712a7.617 7.617 0 0 0-1.392-.144c-2.336 0-4.16.68-5.472 2.04-1.312 1.36-1.968 3.32-1.968 5.88V89h-6V63.368h5.712v3.744zm35.968-3.744L410.536 89h-6.192l-10.992-25.632h6.24l7.968 19.008 8.208-19.008h5.76zm23.92 12.96c0 .416-.032 1.008-.096 1.776H425.24c.352 1.888 1.272 3.384 2.76 4.488 1.488 1.104 3.336 1.656 5.544 1.656 2.816 0 5.136-.928 6.96-2.784l3.216 3.696c-1.152 1.376-2.608 2.416-4.368 3.12-1.76.704-3.744 1.056-5.952 1.056-2.816 0-5.296-.56-7.44-1.68-2.144-1.12-3.8-2.68-4.968-4.68-1.168-2-1.752-4.264-1.752-6.792 0-2.496.568-4.744 1.704-6.744 1.136-2 2.712-3.56 4.728-4.68 2.016-1.12 4.288-1.68 6.816-1.68 2.496 0 4.728.552 6.696 1.656 1.968 1.104 3.504 2.656 4.608 4.656 1.104 2 1.656 4.312 1.656 6.936zm-12.96-8.448c-1.92 0-3.544.568-4.872 1.704-1.328 1.136-2.136 2.648-2.424 4.536h14.544c-.256-1.856-1.04-3.36-2.352-4.512-1.312-1.152-2.944-1.728-4.896-1.728zm21.232-.768c1.728-2.688 4.768-4.032 9.12-4.032v5.712a7.617 7.617 0 0 0-1.392-.144c-2.336 0-4.16.68-5.472 2.04-1.312 1.36-1.968 3.32-1.968 5.88V89h-6V63.368h5.712v3.744zm43.808 16.608V89H472.76v-4.176l13.344-12.672c1.504-1.44 2.52-2.696 3.048-3.768.528-1.072.792-2.136.792-3.192 0-1.568-.528-2.768-1.584-3.6-1.056-.832-2.608-1.248-4.656-1.248-3.424 0-6.048 1.168-7.872 3.504l-4.368-3.36c1.312-1.76 3.08-3.128 5.304-4.104s4.712-1.464 7.464-1.464c3.648 0 6.56.864 8.736 2.592 2.176 1.728 3.264 4.08 3.264 7.056 0 1.824-.384 3.536-1.152 5.136-.768 1.6-2.24 3.424-4.416 5.472l-8.976 8.544h15.84zm14.272 5.76c-2.688 0-5.088-.68-7.2-2.04-2.112-1.36-3.776-3.344-4.992-5.952-1.216-2.608-1.824-5.704-1.824-9.288 0-3.584.608-6.68 1.824-9.288 1.216-2.608 2.88-4.592 4.992-5.952 2.112-1.36 4.512-2.04 7.2-2.04 2.688 0 5.096.68 7.224 2.04 2.128 1.36 3.8 3.344 5.016 5.952 1.216 2.608 1.824 5.704 1.824 9.288 0 3.584-.608 6.68-1.824 9.288-1.216 2.608-2.888 4.592-5.016 5.952-2.128 1.36-4.536 2.04-7.224 2.04zm0-5.424c2.4 0 4.296-.992 5.688-2.976 1.392-1.984 2.088-4.944 2.088-8.88 0-3.936-.696-6.896-2.088-8.88-1.392-1.984-3.288-2.976-5.688-2.976-2.368 0-4.248.992-5.64 2.976-1.392 1.984-2.088 4.944-2.088 8.88 0 3.936.696 6.896 2.088 8.88 1.392 1.984 3.272 2.976 5.64 2.976zM538.264 55.4V89h-6.24V60.632h-7.104V55.4h13.344zm14.8-.48c4.608 0 8.184 1.44 10.728 4.32 2.544 2.88 3.816 7.008 3.816 12.384 0 3.776-.688 7-2.064 9.672-1.376 2.672-3.304 4.704-5.784 6.096-2.48 1.392-5.352 2.088-8.616 2.088-1.728 0-3.352-.184-4.872-.552-1.52-.368-2.84-.904-3.96-1.608l2.304-4.704c1.664 1.088 3.792 1.632 6.384 1.632 3.232 0 5.76-.992 7.584-2.976 1.824-1.984 2.736-4.848 2.736-8.592v-.048c-.992 1.152-2.256 2.024-3.792 2.616-1.536.592-3.264.888-5.184.888-2.208 0-4.192-.424-5.952-1.272-1.76-.848-3.136-2.056-4.128-3.624s-1.488-3.376-1.488-5.424c0-2.176.544-4.088 1.632-5.736 1.088-1.648 2.56-2.92 4.416-3.816 1.856-.896 3.936-1.344 6.24-1.344zm.48 16.32c2.016 0 3.656-.544 4.92-1.632 1.264-1.088 1.896-2.464 1.896-4.128 0-1.632-.616-2.984-1.848-4.056-1.232-1.072-2.936-1.608-5.112-1.608-1.952 0-3.536.52-4.752 1.56-1.216 1.04-1.824 2.424-1.824 4.152 0 1.76.608 3.152 1.824 4.176 1.216 1.024 2.848 1.536 4.896 1.536zM108.241 5.088v6.816h10.816v3.52h-10.816V24h-4.16V1.6h16.352v3.488h-12.192zm20.907 19.136c-1.728 0-3.285-.373-4.672-1.12a8.166 8.166 0 0 1-3.248-3.12c-.779-1.333-1.168-2.843-1.168-4.528 0-1.685.39-3.19 1.168-4.512.779-1.323 1.861-2.357 3.248-3.104 1.387-.747 2.944-1.12 4.672-1.12 1.75 0 3.317.373 4.704 1.12 1.387.747 2.47 1.781 3.248 3.104.779 1.323 1.168 2.827 1.168 4.512 0 1.685-.39 3.195-1.168 4.528a8.166 8.166 0 0 1-3.248 3.12c-1.387.747-2.955 1.12-4.704 1.12zm0-3.424c1.472 0 2.688-.49 3.648-1.472.96-.981 1.44-2.272 1.44-3.872s-.48-2.89-1.44-3.872c-.96-.981-2.176-1.472-3.648-1.472s-2.683.49-3.632 1.472c-.95.981-1.424 2.272-1.424 3.872s.475 2.89 1.424 3.872c.95.981 2.16 1.472 3.632 1.472zm14.635-11.392c1.152-1.792 3.178-2.688 6.08-2.688v3.808a5.078 5.078 0 0 0-.928-.096c-1.558 0-2.774.453-3.648 1.36-.875.907-1.312 2.213-1.312 3.92V24h-4V6.912h3.808v2.496zm28.906-2.688c2.155 0 3.862.624 5.12 1.872 1.259 1.248 1.888 3.12 1.888 5.616V24h-4v-9.28c0-1.493-.33-2.619-.992-3.376-.661-.757-1.61-1.136-2.848-1.136-1.344 0-2.421.443-3.232 1.328-.81.885-1.216 2.15-1.216 3.792V24h-4v-9.28c0-1.493-.33-2.619-.992-3.376-.661-.757-1.61-1.136-2.848-1.136-1.365 0-2.448.437-3.248 1.312-.8.875-1.2 2.144-1.2 3.808V24h-4V6.912h3.808v2.176a6.22 6.22 0 0 1 2.4-1.76c.96-.405 2.027-.608 3.2-.608 1.28 0 2.416.24 3.408.72a5.532 5.532 0 0 1 2.352 2.128c.704-.896 1.611-1.595 2.72-2.096 1.11-.501 2.336-.752 3.68-.752zm16.523 0c2.517 0 4.443.603 5.776 1.808 1.333 1.205 2 3.024 2 5.456V24h-3.776v-2.08c-.49.747-1.19 1.317-2.096 1.712-.907.395-2 .592-3.28.592-1.28 0-2.4-.219-3.36-.656-.96-.437-1.701-1.045-2.224-1.824-.523-.779-.784-1.659-.784-2.64 0-1.536.57-2.768 1.712-3.696 1.141-.928 2.939-1.392 5.392-1.392h4.416v-.256c0-1.195-.357-2.112-1.072-2.752-.715-.64-1.776-.96-3.184-.96-.96 0-1.904.15-2.832.448-.928.299-1.712.715-2.352 1.248l-1.568-2.912c.896-.683 1.973-1.205 3.232-1.568a14.38 14.38 0 0 1 4-.544zm-.544 14.592c1.003 0 1.893-.23 2.672-.688a3.743 3.743 0 0 0 1.648-1.968v-1.984h-4.128c-2.304 0-3.456.757-3.456 2.272 0 .725.288 1.301.864 1.728.576.427 1.376.64 2.4.64zm19.307 2.912c-1.771 0-3.36-.373-4.768-1.12-1.408-.747-2.507-1.787-3.296-3.12-.79-1.333-1.184-2.843-1.184-4.528 0-1.685.394-3.19 1.184-4.512.789-1.323 1.882-2.357 3.28-3.104 1.397-.747 2.992-1.12 4.784-1.12 1.685 0 3.162.341 4.432 1.024a6.644 6.644 0 0 1 2.864 2.944l-3.072 1.792c-.491-.79-1.104-1.381-1.84-1.776a5.031 5.031 0 0 0-2.416-.592c-1.494 0-2.731.485-3.712 1.456-.982.97-1.472 2.267-1.472 3.888s.485 2.917 1.456 3.888c.97.97 2.213 1.456 3.728 1.456.874 0 1.68-.197 2.416-.592.736-.395 1.349-.987 1.84-1.776l3.072 1.792a6.924 6.924 0 0 1-2.896 2.96c-1.27.693-2.736 1.04-4.4 1.04zm-1.664 7.072c-1.152 0-2.134-.224-2.944-.672l.736-1.888a4.673 4.673 0 0 0 2.176.512c1.13 0 1.696-.384 1.696-1.152 0-.32-.139-.576-.416-.768-.278-.192-.704-.288-1.28-.288h-.992l.864-3.264h2.176l-.448 1.792c.917.107 1.61.4 2.08.88.469.48.704 1.083.704 1.808 0 .917-.395 1.653-1.184 2.208-.79.555-1.846.832-3.168.832zM223.12 6.72c2.518 0 4.443.603 5.776 1.808 1.334 1.205 2 3.024 2 5.456V24h-3.776v-2.08c-.49.747-1.189 1.317-2.096 1.712-.906.395-2 .592-3.28.592-1.28 0-2.4-.219-3.36-.656-.96-.437-1.701-1.045-2.224-1.824-.522-.779-.784-1.659-.784-2.64 0-1.536.571-2.768 1.712-3.696 1.142-.928 2.939-1.392 5.392-1.392h4.416v-.256c0-1.195-.357-2.112-1.072-2.752-.714-.64-1.776-.96-3.184-.96-.96 0-1.904.15-2.832.448-.928.299-1.712.715-2.352 1.248l-1.568-2.912c.896-.683 1.974-1.205 3.232-1.568a14.38 14.38 0 0 1 4-.544zm-.544 14.592c1.003 0 1.894-.23 2.672-.688a3.743 3.743 0 0 0 1.648-1.968v-1.984h-4.128c-2.304 0-3.456.757-3.456 2.272 0 .725.288 1.301.864 1.728.576.427 1.376.64 2.4.64zm3.2-16.736c-.533 0-.997-.107-1.392-.32-.394-.213-.88-.533-1.456-.96a8.636 8.636 0 0 0-.848-.624 1.245 1.245 0 0 0-.656-.208c-.448 0-.816.17-1.104.512-.288.341-.442.81-.464 1.408h-2.144c.022-1.301.347-2.341.976-3.12.63-.779 1.456-1.168 2.48-1.168.534 0 .998.107 1.392.32.395.213.88.533 1.456.96.342.277.624.485.848.624.224.139.443.208.656.208.448 0 .816-.16 1.104-.48.288-.32.443-.768.464-1.344h2.144c-.042 1.259-.373 2.272-.992 3.04-.618.768-1.44 1.152-2.464 1.152zm15.947 19.648c-1.728 0-3.285-.373-4.672-1.12a8.166 8.166 0 0 1-3.248-3.12c-.779-1.333-1.168-2.843-1.168-4.528 0-1.685.39-3.19 1.168-4.512.779-1.323 1.861-2.357 3.248-3.104 1.387-.747 2.944-1.12 4.672-1.12 1.75 0 3.317.373 4.704 1.12 1.387.747 2.47 1.781 3.248 3.104.779 1.323 1.168 2.827 1.168 4.512 0 1.685-.39 3.195-1.168 4.528a8.166 8.166 0 0 1-3.248 3.12c-1.387.747-2.955 1.12-4.704 1.12zm0-3.424c1.472 0 2.688-.49 3.648-1.472.96-.981 1.44-2.272 1.44-3.872s-.48-2.89-1.44-3.872c-.96-.981-2.176-1.472-3.648-1.472s-2.683.49-3.632 1.472c-.95.981-1.424 2.272-1.424 3.872s.475 2.89 1.424 3.872c.95.981 2.16 1.472 3.632 1.472z"/></g></svg>