<svg width="26" height="27" viewBox="0 0 26 27" xmlns="http://www.w3.org/2000/svg"><g fill-rule="nonzero" fill="#7C7C9A"><path d="M10.934 11.19c0-.99-.675-.99-.675-.99H7.48v2.128h2.605c.45 0 .847-.143.847-1.137zM17.37 12.328c-1.473 0-1.678 1.47-1.678 1.47h3.134s.02-1.47-1.456-1.47zM10.26 13.8H7.48v2.55h2.46c.042 0 .103.002.177 0 .394-.01 1.146-.123 1.146-1.24 0-1.324-1.007-1.31-1.007-1.31z"/><path d="M12.987.39C5.84.39.025 6.205.025 13.353c0 7.147 5.815 12.962 12.962 12.962 7.147 0 12.962-5.815 12.962-12.962C25.95 6.205 20.134.39 12.986.39zm2.294 8.676h3.937v1.175H15.28V9.067zm-1.99 6.163c0 2.91-3.03 2.816-3.03 2.816H5.294V8.504h4.965c1.508 0 2.7.834 2.7 2.54 0 1.708-1.456 1.816-1.456 1.816 1.92 0 1.786 2.37 1.786 2.37zm7.365-.158H15.71c0 1.773 1.68 1.662 1.68 1.662 1.585 0 1.53-1.027 1.53-1.027h1.68c0 2.725-3.265 2.537-3.265 2.537-3.918 0-3.666-3.647-3.666-3.647s-.005-3.666 3.665-3.666c3.862 0 3.32 4.142 3.32 4.142z"/></g></svg>