<svg width="40" height="40" viewBox="0 0 40 40" xmlns="http://www.w3.org/2000/svg"><path d="M36.648 0H3.332C1.466 0 0 1.466 0 3.332v33.316c0 1.865 1.466 3.33 3.332 3.33H36.648c1.865 0 3.33-1.465 3.33-3.33V3.332C39.98 1.466 38.514 0 36.65 0zM19.99 38.647V25.32h-5.33v-5.33h5.33v-4.665c0-3.798 2.93-6.996 6.663-7.33h5.997v5.33h-5.33c-1.134 0-2 .868-2 2v4.665h6.663v5.33H25.32v13.327h-5.33zm18.657-2c0 1.133-.867 2-2 2h-9.994V26.653h6.663v-7.996h-6.663v-3.332c0-.4.266-.666.666-.666h6.662V6.662h-7.396c-4.464.4-7.93 4.198-7.93 8.662v3.332h-5.33v7.996h5.33v11.994H3.333c-1.133 0-2-.867-2-2V3.333c0-1.133.867-2 2-2h33.316c1.133 0 2 .867 2 2v33.316z" fill-rule="nonzero" fill="#FFF"/></svg>