<svg width="27" height="27" viewBox="0 0 27 27" xmlns="http://www.w3.org/2000/svg"><g fill-rule="nonzero" fill="#7C7C9A"><path d="M13.168 15.948c1.43 0 2.596-1.164 2.596-2.595 0-.565-.184-1.087-.49-1.513-.472-.654-1.238-1.082-2.104-1.082-.866 0-1.632.428-2.105 1.082-.307.426-.49.947-.49 1.512-.002 1.43 1.163 2.596 2.593 2.596zM18.835 10.178V7.68h-.325l-2.174.007.008 2.5"/><path d="M13.17.39C6.02.39.206 6.205.206 13.353c0 7.147 5.814 12.962 12.962 12.962 7.146 0 12.96-5.815 12.96-12.962C26.13 6.205 20.318.39 13.17.39zm7.37 11.45v6.036c0 1.572-1.277 2.85-2.848 2.85H8.646c-1.57 0-2.85-1.278-2.85-2.85V8.83c0-1.57 1.28-2.85 2.85-2.85h9.045c1.573 0 2.85 1.28 2.85 2.85v3.01z"/><path d="M17.2 13.353c0 2.222-1.807 4.032-4.03 4.032-2.225 0-4.033-1.81-4.033-4.032 0-.535.107-1.046.297-1.513h-2.2v6.036c0 .78.632 1.412 1.412 1.412h9.045c.78 0 1.413-.632 1.413-1.412V11.84h-2.2c.19.467.298.978.298 1.513z"/></g></svg>