<svg width="40" height="40" viewBox="0 0 40 40" xmlns="http://www.w3.org/2000/svg"><g fill-rule="nonzero" fill="#FFF"><path d="M30.98 0H9.02C4.045 0 0 4.046 0 9.02v21.96C0 35.955 4.046 40 9.02 40h21.96c4.974 0 9.02-4.046 9.02-9.02V9.02C40 4.045 35.954 0 30.98 0zm7.54 30.98c0 4.157-3.383 7.54-7.54 7.54H9.02c-4.157 0-7.54-3.383-7.54-7.54V9.02c0-4.157 3.383-7.54 7.54-7.54h21.96c4.157 0 7.54 3.383 7.54 7.54v21.96z"/><path d="M14.756 8.89h-7.14v20.74h2.132v-6.815h5.215c1.007 0 1.876-.182 2.607-.548.73-.366 1.274-.79 1.63-1.274.356-.484.637-1.106.844-1.867.208-.76.33-1.393.37-1.897.04-.505.06-1.102.06-1.794 0-1.955-.47-3.535-1.407-4.74-.94-1.205-2.376-1.807-4.31-1.807zm3.57 7.85c-.01.297-.08.74-.207 1.335-.13.592-.308 1.046-.535 1.363-.227.316-.588.612-1.08.89-.495.274-1.098.413-1.81.413H9.75v-9.777h4.83c2.508 0 3.763 1.5 3.763 4.504 0 .553-.004.977-.014 1.274zM30.533 21.807c-.78-.316-1.566-.602-2.355-.86-.79-.256-1.502-.57-2.134-.947-.632-.375-.948-.89-.948-1.54 0-.593.252-1.082.756-1.467.504-.386 1.27-.577 2.296-.577 1.027 0 1.856.247 2.49.74l.68-1.867-.355-.21c-.237-.137-.633-.28-1.185-.428-.554-.148-1.146-.222-1.778-.222-1.798 0-3.096.43-3.896 1.288-.8.86-1.2 1.788-1.2 2.786 0 .997.365 1.84 1.096 2.533.593.593 1.28 1.027 2.06 1.304.78.278 1.555.54 2.325.786.77.247 1.422.583 1.956 1.007.534.425.8.998.8 1.72 0 .72-.31 1.273-.933 1.657-.622.386-1.358.578-2.207.578-.85 0-1.6-.202-2.252-.607-.652-.404-1.018-.972-1.096-1.703l-2.074.09c.04 1.184.543 2.182 1.51 2.992.968.808 2.307 1.213 4.016 1.213 1.708 0 3.007-.41 3.896-1.23.89-.818 1.333-1.78 1.333-2.887 0-1.106-.272-1.995-.814-2.667-.544-.673-1.207-1.166-1.987-1.483z"/></g></svg>