<svg width="50" height="47" viewBox="0 0 50 47" xmlns="http://www.w3.org/2000/svg"><g fill-rule="nonzero" fill="#FFF"><path d="M32.7 22.212c3.748-1.7 4.307-14.63 2.095-18.44C31.907-1.2 18.175-.2 13.84 3.353c-.497 1.767-.445 4.97-.422 7.518h13.61v1.192H13.42c0 .017-6.057.038-6.057.038-10.445 0-10.228 22.685 3.554 22.685 0 0 .507-5.024 1.393-7.542 2.735-7.772 14.225-2.235 20.39-5.03zM18.45 9.03c-1.567 0-2.838-1.272-2.838-2.843 0-1.57 1.27-2.843 2.84-2.843 1.57 0 2.84 1.274 2.84 2.843.004 1.568-1.27 2.842-2.84 2.842z"/><path d="M37.973 12.577s-.36 5.028-1.247 7.543c-2.735 7.768-14.223 2.234-20.39 5.03-3.746 1.7-4.31 14.63-2.096 18.44 2.886 4.975 16.616 3.977 20.955.42.498-1.763.446-4.967.422-7.514H22.005v-1.193h13.607c0-.017 6.706-.037 6.706-.037 9.626 0 10.49-22.69-4.345-22.69zm-7.878 25.265c1.57 0 2.842 1.27 2.842 2.842 0 1.57-1.273 2.84-2.842 2.84-1.57 0-2.84-1.27-2.84-2.84 0-1.572 1.27-2.842 2.84-2.842z"/></g></svg>