<svg width="27" height="27" viewBox="0 0 27 27" xmlns="http://www.w3.org/2000/svg"><path d="M13.417.39C6.27.39.455 6.205.455 13.353c0 7.147 5.815 12.962 12.962 12.962 7.147 0 12.962-5.815 12.962-12.962C26.38 6.205 20.564.39 13.416.39zm5.783 9.996c.005.128.008.258.008.387 0 3.943-3 8.488-8.49 8.488-1.684 0-3.252-.492-4.572-1.34.233.03.47.043.71.043 1.4 0 2.686-.477 3.707-1.277-1.305-.024-2.408-.887-2.787-2.072.182.034.37.053.56.053.273 0 .537-.035.787-.103-1.365-.274-2.393-1.48-2.393-2.926V11.6c.403.223.863.358 1.35.373-.8-.534-1.325-1.448-1.325-2.482 0-.547.146-1.06.403-1.5 1.47 1.805 3.67 2.993 6.15 3.118-.052-.22-.077-.446-.077-.68 0-1.648 1.336-2.984 2.983-2.984.86 0 1.633.363 2.178.942.682-.133 1.32-.38 1.897-.724-.225.697-.696 1.28-1.314 1.65.604-.07 1.18-.23 1.714-.468-.398.597-.904 1.123-1.487 1.542z" fill-rule="nonzero" fill="#7C7C9A"/></svg>