<svg width="47" height="36" viewBox="0 0 47 36" xmlns="http://www.w3.org/2000/svg"><g fill-rule="nonzero" fill="#FFF"><path d="M35.6 33.318h-5.054c-.182 0-.33-.15-.33-.332v-1.23c0-.182-.15-.33-.333-.33H22.81c-.18 0-.33.148-.33.33v1.23c0 .183-.15.332-.332.332h-3.8c-.182 0-.33.15-.33.33v1.425c0 .182.148.33.33.33H35.6c.183 0 .332-.148.332-.33V33.65c0-.183-.15-.332-.33-.332zM44.092.043H8.026C6.77.043 5.75 1.063 5.75 2.32v5.935c0 .785-.058.896.47.896h.902c.44 0 .35-.11.35-.91V2.32c0-.3.254-.554.554-.554h36.066c.3 0 .554.253.554.553v22.22H18.933s-.907-.003-.907 1.17v2.778c0 1.17.936 1.17.936 1.17h25.13c1.255 0 2.276-1.02 2.276-2.275V2.32c0-1.256-1.02-2.277-2.276-2.277zM26.06 27.693c-.567 0-1.026-.46-1.026-1.025 0-.566.46-1.026 1.025-1.026s1.025.46 1.025 1.026c0 .566-.46 1.025-1.026 1.025z"/><path d="M14.516 11.184H1.47c-.81 0-1.47.66-1.47 1.47v21.443c0 .81.66 1.47 1.47 1.47h13.046c.81 0 1.47-.66 1.47-1.47V12.653c0-.81-.66-1.47-1.47-1.47zm-8.133 1.498h3.22c.152 0 .277.124.277.278 0 .154-.125.28-.278.28h-3.22c-.153 0-.277-.126-.277-.28 0-.154.124-.278.278-.278zm1.59 21.853c-.42 0-.76-.34-.76-.76s.34-.76.76-.76.76.34.76.76-.34.76-.76.76zm6.75-2.235c0 .196-.157.357-.35.357H1.612c-.19 0-.348-.16-.348-.357V14.48c0-.195.157-.355.35-.355h12.762c.192 0 .35.16.35.356V32.3z"/></g></svg>