<svg width="27" height="27" viewBox="0 0 27 27" xmlns="http://www.w3.org/2000/svg"><g fill-rule="nonzero" fill="none"><path d="M13.04.39C5.838.39 0 6.228 0 13.43c0 7.2 5.838 13.04 13.04 13.04 2.89 0 5.563-.943 7.725-2.535-.115-.008-.227-.06-.31-.15l-2.136-2.388-1.15 1.765-.95-4.798 4.883 1.52-2.102.903 2.137 2.387c.1.11.132.255.106.39 2.95-2.39 4.836-6.04 4.836-10.134C26.08 6.228 20.24.39 13.04.39z" fill="#7C7C9A"/><g fill="#FFF"><path d="M4.87 14.353l.12.665.013.004.146-.67.964-3.064h.665l.964 3.065.155.727h.013l.15-.727.775-3.065h.815l-1.39 4.793h-.665l-.948-2.953-.208-.855H6.43l-.2.855-.93 2.954h-.67L3.24 11.29h.82M11.735 14.353l.12.665.013.004.146-.67.966-3.064h.664l.966 3.065.155.727h.013l.15-.727.776-3.065h.815l-1.392 4.793h-.665l-.947-2.953-.21-.855h-.012l-.2.855-.93 2.954h-.668l-1.39-4.792h.82M18.6 14.353l.12.665.013.004.146-.67.965-3.064h.664l.965 3.065.155.727h.013l.15-.727.776-3.065h.814l-1.39 4.793h-.665l-.95-2.953-.207-.855h-.013l-.2.855-.93 2.954h-.67l-1.39-4.792h.82"/></g></g></svg>