<svg width="160" height="21" viewBox="0 0 160 21" xmlns="http://www.w3.org/2000/svg"><g fill-rule="nonzero" fill="#A4B6C5"><path d="M8.755.328c.902 6.703 1.805 13.406 2.708 20.163h-6.43c.138-1.175.247-2.297.44-3.39.026-.138.3-.275.49-.302.247-.055.548-.027.904-.055-.356-3.255-.71-6.456-1.04-9.657h-.164c-.574 4.46-1.122 8.92-1.696 13.433H.11C.93 13.79 1.777 7.085 2.6.355 4.65.328 6.674.328 8.754.328zM78.545 20.49h-6.43c.138-1.175.275-2.297.44-3.446.026-.11.273-.246.437-.273.273-.054.547 0 .93 0-.356-3.31-.71-6.51-1.067-9.74h-.164c-.574 4.488-1.12 8.947-1.695 13.434h-3.858c.82-6.73 1.67-13.406 2.49-20.136h6.21c.875 6.676 1.778 13.35 2.708 20.163zM150.77.3h6.212c.902 6.676 1.805 13.38 2.708 20.137h-6.43c.138-1.15.274-2.27.44-3.42.026-.11.272-.246.436-.274.274-.054.547 0 .93 0-.355-3.31-.71-6.51-1.067-9.74h-.165c-.574 4.487-1.12 8.947-1.696 13.434h-3.858c.848-6.703 1.668-13.38 2.49-20.136zM123.057 14.773v5.69H119.5V.302h4.953c.164 0 .355.138.437.275 1.45 2.133 2.9 4.295 4.378 6.456-.903 1.123-1.78 2.244-2.68 3.31-.33.412-.412.767-.248 1.26.985 2.9 1.915 5.827 2.9 8.864-1.23 0-2.38.027-3.556-.027-.164 0-.356-.356-.438-.602-.684-1.696-1.34-3.42-2.025-5.144-.053.056-.108.083-.163.083zm1.423-8.016c-.493-.683-.958-1.285-1.477-2.024v3.912c.547-.71.984-1.286 1.477-1.888zM95.125 20.464h-3.42v-2.08c0-2.215.027-4.43-.028-6.647-.027-.684-.19-1.423-.437-2.08-.465-1.23-1.013-2.434-1.724-3.61v14.39H86.07V.274c1.53 0 3.063 0 4.595.027.137 0 .328.247.41.44 1.314 2.87 2.6 5.744 3.885 8.617.11.218.165.465.165.71v10.04c.054.11.027.22 0 .357zM102.867 20.52V.3c1.532 0 3.01-.026 4.487.028.164 0 .437.22.492.41 1.313 3.092 2.6 6.21 3.858 9.33.11.273.054.656-.055.93-1.232 2.982-2.463 5.964-3.722 8.946-.11.246-.438.547-.656.547-1.45.056-2.873.03-4.405.03zm3.447-6.65c.055 0 .11 0 .164.028.41-1.04.82-2.08 1.23-3.146.056-.137.11-.33.083-.465-.436-1.15-.874-2.27-1.34-3.393-.054.028-.08.028-.136.055v6.92zM59.56 20.52c-1.287 0-2.436.026-3.612-.03-.22 0-.548-.218-.657-.436-.3-.602-.546-1.26-.847-2.052-.328.766-.547 1.422-.848 2.024-.11.22-.41.438-.63.465-1.15.056-2.325.03-3.583.03.273-.74.492-1.397.738-2.053.903-2.408 1.833-4.788 2.68-7.223.193-.547.193-1.286 0-1.833-.93-2.707-1.968-5.388-2.98-8.07-.11-.3-.22-.63-.356-.984h3.885c.327.82.655 1.696 1.066 2.763.328-.904.547-1.643.848-2.354.082-.22.41-.465.602-.465 1.12-.054 2.27-.026 3.5-.026-.108.355-.218.63-.3.902-.984 2.654-1.942 5.335-2.954 7.99-.3.792-.274 1.504.027 2.324 1.148 2.955 2.242 5.937 3.42 9.03zM41.612.274c-1.122 1.696-2.134 3.228-3.174 4.76-.3.438-.3.74 0 1.15.794 1.093 1.505 2.242 2.298 3.337.33.466.383.82.028 1.314-.848 1.176-1.587 2.38-2.408 3.556-.273.383-.246.657 0 1.04 1.095 1.614 2.134 3.283 3.283 5.034-1.478 0-2.82.027-4.16-.027-.19 0-.41-.22-.546-.41-1.067-1.505-2.107-3.038-3.2-4.542-.248-.356-.22-.602 0-.958.792-1.258 1.585-2.517 2.324-3.83.137-.246.137-.766-.027-1.012-.765-1.23-1.586-2.408-2.407-3.584-.273-.382-.328-.656 0-1.093 1.04-1.423 2.025-2.9 3.092-4.323.19-.246.602-.465.93-.465 1.258.026 2.517.054 3.967.054zM25.58 20.464h-6.51V.328h3.747v16.36h2.79c-.027 1.286-.027 2.517-.027 3.776zM140.62 20.49h-3.692V.33h3.693V20.49z"/></g></svg>