<svg width="170" height="23" viewBox="0 0 170 23" xmlns="http://www.w3.org/2000/svg"><g fill="none" fill-rule="evenodd"><path d="M.09 10.796c.044-.425.09-.85.11-1.274C.36 7.175.76 4.85 1.253 2.548c.156-.76.648-1.162 1.363-1.34C4.358.78 6.147.467 7.935.29c1.788-.178 3.598-.223 5.41-.134 2.457.112 4.893.425 7.307.917.246.045.514.09.76.134.693.112 1.118.536 1.297 1.185.423 1.497.736 3.017.915 4.582.246 1.9.335 3.822.2 5.72-.11 1.61-.334 3.22-.558 4.807-.134.94-.357 1.878-.558 2.795-.135.603-.515 1.05-1.12 1.184-1.206.29-2.413.558-3.642.737-1.207.18-2.436.29-3.666.38-1.05.067-2.1.067-3.13.022-1.52-.09-3.06-.202-4.58-.38-1.387-.18-2.75-.448-4.136-.694-.626-.11-1.006-.558-1.184-1.162-.47-1.63-.805-3.308-.96-5.006-.068-.738-.113-1.476-.18-2.213 0-.09-.023-.157-.045-.224.022-.714.022-1.43.022-2.144zm9.923-5.544c-.156.023-.335.045-.49.09-.694.18-1.164.737-1.253 1.475-.067.648.246 1.118.805 1.453.692.425 1.475.58 2.235.805.715.223 1.43.402 2.1.715.94.447 1.23 1.52.604 2.28-.223.29-.56.536-.916.67-.827.29-1.677.492-2.504.782-.536.18-1.072.358-1.564.626-.872.514-1.028 1.542-.425 2.325.492.626 1.52.96 2.48.268 1.14-.848 2.303-1.653 3.443-2.502.827-.604 1.632-1.23 2.414-1.9.693-.604.693-1.61.067-2.258-.29-.29-.627-.558-.962-.804-1.654-1.23-3.33-2.437-4.984-3.666-.313-.2-.648-.358-1.05-.358zM85.74 14.282c-2.237 0-4.45-.044-6.684.023-1.43.022-2.504-.537-3.308-1.654-1.677-2.324-1.7-5.654.178-7.912.604-.715 1.34-1.25 2.28-1.43.268-.045.56-.09.827-.09h13.813c.537 0 .96.18 1.207.693.224.47.157.918-.18 1.342-.2.246-.446.38-.76.403h-13.52c-.627 0-1.253.067-1.767.47-.648.49-.96 1.16-1.073 1.944-.09.647-.067 1.273.09 1.92.313 1.186 1.25 1.945 2.48 1.945h13.59c.58 0 .984.27 1.162.783.18.514.045 1.073-.402 1.385-.2.135-.492.246-.737.246-2.392-.068-4.784-.068-7.197-.068zM157.508 9.12c.134.044.246.11.38.156 1.318.626 2.615 1.274 3.822 2.1.536.38 1.072.738 1.61 1.118.535.403.67.85.4 1.34-.267.515-.96.828-1.474.627-.313-.11-.603-.312-.872-.49-2.257-1.476-4.604-2.75-7.22-3.443-.915-.246-1.854-.335-2.793-.335-2.1-.022-4.2 0-6.302-.022-.268 0-.357.067-.357.357.023.917.023 1.833 0 2.772 0 .647-.38 1.072-1.028 1.228-.514.112-1.162-.223-1.363-.715-.068-.157-.09-.358-.09-.514V4.85c0-.76.47-1.207 1.23-1.207s1.25.47 1.25 1.23V7.6c0 .245.068.335.313.335h6.393c1.944 0 3.777-.56 5.543-1.297 1.52-.626 2.905-1.542 4.29-2.414.313-.2.648-.424 1.006-.536.67-.2 1.386.18 1.565.782.112.358.045.693-.245.94-.537.424-1.118.826-1.677 1.228-.245.18-.49.358-.76.492-1.072.58-2.145 1.162-3.24 1.72-.134.068-.246.135-.358.202-.022.023-.022.045-.022.067zM36.924 14.282c-1.922 0-3.867-.044-5.79.023-1.184.022-2.033-.47-2.704-1.386-.692-.94-1.05-2.013-1.206-3.153-.224-1.72.067-3.33.983-4.805.514-.805 1.162-1.475 2.146-1.7.246-.066.49-.088.737-.088h11.98c.582 0 .962.29 1.096.827.156.604-.067 1.252-.537 1.476-.157.09-.38.112-.56.112-3.8 0-7.62.022-11.42 0-1.722-.023-2.37 1.184-2.527 2.28-.11.692-.11 1.385.067 2.056.202.872.65 1.587 1.565 1.877.224.068.492.09.738.09h11.533c.603 0 .96.224 1.14.738.178.56.044 1.163-.38 1.475-.18.112-.403.18-.626.18h-6.236zm72.35-5.453c.738.423 1.475.826 2.168 1.295.96.67 1.9 1.363 2.794 2.123.693.56.604 1.476-.09 1.945-.402.268-.85.2-1.296-.112-1.028-.736-2.034-1.496-3.084-2.167-1.408-.894-2.928-1.52-4.582-1.766-.402-.067-.805-.09-1.207-.09h-5.655v3.13c0 .604-.447 1.118-.983 1.162-.582.044-1.14-.38-1.208-.962-.023-.156-.023-.313-.023-.447V4.65c0-.47.133-.873.536-1.14.335-.224.693-.247 1.05-.068.403.2.626.56.648 1.006v3.196h.336c1.564 0 3.13-.022 4.693 0 1.967.045 3.778-.492 5.5-1.363 1.407-.715 2.68-1.653 3.955-2.614.626-.47 1.185-.47 1.632.044.447.514.402 1.252-.18 1.72-.983.784-1.966 1.52-2.994 2.236-.648.425-1.34.76-2.012 1.163zM119.31 13.41c-.023-.38.246-.67.49-.96 1.343-1.61 2.684-3.22 4.002-4.806.917-1.095 1.81-2.213 2.75-3.286.558-.648 1.34-.983 2.19-1.117 1.453-.223 2.637.247 3.576 1.387l3.353 4.023c1.03 1.23 2.057 2.48 3.085 3.71.112.134.224.246.313.358.604.737.29 1.654-.67 1.9-.693.178-1.14-.157-1.565-.67-1.23-1.498-2.48-2.996-3.733-4.494-.67-.804-1.318-1.61-1.99-2.39-.334-.403-.714-.806-1.094-1.163-.492-.446-1.006-.446-1.475.045-.625.67-1.206 1.364-1.787 2.057-.917 1.073-1.81 2.168-2.727 3.24-.827.984-1.654 1.945-2.48 2.93-.538.624-1.432.624-1.99.043-.134-.18-.246-.424-.246-.804zM58.738 14.282c-2.235 0-4.492-.022-6.727 0-1.497.023-2.838-1.117-3.15-2.704-.045-.2-.068-.38-.068-.58V4.402c0-.492.2-.894.67-1.117.627-.29 1.387.156 1.476.85.022.155.022.312.022.446v6.08c0 .178 0 .357.067.536.112.402.492.648.94.648h13.7c.648 0 1.14.536 1.14 1.207-.022.693-.492 1.207-1.14 1.207-2.302.022-4.604.022-6.93.022zM166.85 8.963V4.76c0-.76.47-1.23 1.207-1.23.716 0 1.274.516 1.274 1.253v8.426c0 .558-.312.983-.87 1.206-.514.202-.984 0-1.32-.357-.178-.202-.29-.538-.29-.806-.022-1.43 0-2.86 0-4.29zM69.892 8.74V4.447c0-.58.335-1.073.804-1.207.604-.178 1.23.202 1.364.828.044.156.044.29.044.447v8.45c0 .602-.29 1.07-.76 1.25-.737.268-1.475-.313-1.475-1.184.022-1.43.022-2.86.022-4.29z" fill="#A4B6C5" fill-rule="nonzero"/><path d="M129.368 10.438c.715 0 1.497.56 1.654 1.185.178.804-.403 1.654-1.252 1.832-.782.157-1.408-.11-1.877-.715-.358-.47-.29-1.207.11-1.654.36-.425.806-.648 1.365-.648zM106.883 19.96v-2.012h.514v3.15c-.447.09-.47.09-.693-.29-.313-.513-.604-1.005-.917-1.52-.044-.066-.09-.133-.178-.29v2.1h-.515v-3.15c.424-.09.447-.09.67.29l.94 1.543.133.202c0-.023.022-.023.045-.023zm-5.52 1.206c-.94-.022-1.677-.96-1.52-1.966.133-.872.78-1.453 1.586-1.43.602.02 1.184.468 1.385 1.117.313.96-.18 1.967-1.073 2.212-.134.044-.268.044-.38.066zm.02-2.838c-.58 0-1.005.47-1.027 1.095 0 .626.447 1.14 1.006 1.162.56 0 1.006-.514 1.006-1.14.022-.603-.425-1.095-.984-1.117zM61.667 19.4c.023-1.095.984-1.9 1.967-1.63.693.2 1.23 1.05 1.14 1.81-.067.49-.268.938-.67 1.23-.872.647-2.1.155-2.37-.94l-.067-.47zm.56 0c0 .627.446 1.118 1.005 1.14.56 0 1.007-.49 1.03-1.117 0-.626-.448-1.14-1.03-1.14-.58 0-1.005.492-1.005 1.118zm15.757 1.7c-.514 0-.894-.246-1.185-.626-.47-.626-.447-1.565.045-2.17.693-.848 1.9-.736 2.436.225.4.714.267 1.608-.314 2.19-.268.245-.58.38-.983.38zm.044-2.817c-.58 0-1.005.425-1.005 1.073 0 .67.402 1.162.983 1.185.56 0 1.006-.49 1.006-1.117 0-.626-.424-1.118-.983-1.14zm-45.193-.425c.424.023.827.023 1.23.09.38.045.647.268.826.603.335.627.358 1.275.045 1.9-.202.38-.514.627-.96.65-.38.022-.76.044-1.164.044.024-1.095.024-2.168.024-3.286zm.536 2.705c.402 0 .827.09 1.073-.313.268-.447.268-.916.022-1.363-.223-.425-.648-.425-1.095-.403v2.08zm21.144-2.168c-.134.134-.246.268-.357.38-.515-.537-1.23-.604-1.677-.09-.38.447-.357 1.207.045 1.61.447.447 1.006.38 1.61-.157.11.134.223.246.334.403-.313.358-.67.582-1.163.604.18.2.268.402.045.626-.134.134-.514.18-.67.067-.068-.045-.068-.134-.112-.246.178 0 .29.046.38.023.067-.022.134-.09.156-.156 0-.045-.067-.112-.134-.156-.313-.335-.85-.424-1.073-.916-.224-.47-.29-.94-.157-1.43.156-.65.58-1.028 1.23-1.163.625-.11 1.116.136 1.54.605zm-7.13 2.727h-.536c.223-.604.424-1.185.626-1.788.156-.425.312-.85.447-1.274.045-.157.135-.202.27-.18.133.023.312-.066.4.18.336.983.694 1.967 1.052 2.95.022.022 0 .067.022.112h-.514c-.022-.045-.045-.067-.045-.112-.223-.58-.223-.58-.827-.58-.626 0-.626 0-.85.58 0 .045-.02.09-.044.112zm.47-1.252h.85c-.135-.38-.27-.715-.38-1.05h-.09c-.135.335-.246.67-.38 1.05zm64.616 1.252h-.49c-.024-.023-.046-.023-.046-.045-.224-.648-.224-.648-.916-.648h-.157c-.29-.046-.446.044-.535.356-.09.358-.134.358-.65.313.18-.492.337-.984.516-1.476.18-.536.38-1.05.537-1.587.045-.18.156-.18.313-.18.134 0 .29-.043.357.158.336.983.67 1.967 1.03 2.95.043.067.043.112.043.157zm-1.765-1.252h.827c-.135-.38-.27-.738-.38-1.095h-.067c-.135.357-.246.715-.38 1.095zm-51.34 1.252h-.515c-.067-.157-.112-.313-.18-.492-.043-.134-.11-.2-.267-.18-.29.024-.58.024-.85 0-.156 0-.245.046-.267.202 0 .023-.023.045-.023.067-.156.446-.156.446-.693.402l.47-1.34c.2-.538.402-1.097.58-1.633.068-.18.157-.247.336-.224.18.022.313 0 .38.223.313.938.67 1.877 1.006 2.815.022.045.022.09.022.157zm-1.342-2.302h-.09c-.11.335-.245.692-.38 1.05h.85c-.134-.358-.268-.715-.38-1.05zm15.646.938c.245.492.468.94.692 1.408-.537.067-.537.067-.738-.357-.134-.27-.246-.538-.38-.806-.044-.067-.09-.134-.134-.223-.022 0-.045.023-.067.023v1.34h-.514v-3.262c.4.046.804.046 1.206.135.335.067.47.38.514.693.045.357-.045.67-.358.894-.067.067-.134.09-.223.156zm-.65-.558c.247 0 .493.09.627-.157.067-.09.044-.29-.023-.402-.134-.2-.38-.156-.603-.133v.693zm-35.56-1.364h.514v2.258c.023.29.202.447.47.447.268 0 .447-.178.447-.47V17.815h.56v.85c0 .513 0 1.027-.045 1.52-.023.49-.402.848-.894.87-.58.023-1.05-.268-1.072-.782-.022-.782.022-1.61.022-2.436zm6.773 2.28c.11.112.2.246.313.358-.29.49-.984.737-1.632.58-.648-.178-1.118-.76-1.14-1.475-.022-.85.358-1.498 1.073-1.722.626-.2 1.34 0 1.72.56-.11.11-.223.223-.334.357-.29-.268-.626-.514-1.028-.425-.246.067-.515.2-.67.38-.36.38-.314 1.14.044 1.52.446.447.96.402 1.653-.134zM30.33 19.69h-1.028v.873h1.028v.56h-1.564v-3.175h1.564v.536h-1.028v.604h1.028v.603zm38.533.09v1.342h-.514v-3.24c.402.02.782.02 1.14.088.38.067.603.447.58.872 0 .425-.245.76-.648.85-.156.044-.335.044-.56.09zm.023-1.318v.76c.246-.09.447-.134.626-.224.067-.044.044-.268 0-.357-.134-.223-.38-.178-.626-.178zm21.367-.246c-.156.157-.268.29-.357.402-.134-.09-.224-.223-.358-.268-.112-.022-.29 0-.357.067-.044.067-.022.268.045.336.2.223.447.424.648.625.29.27.492.58.403 1.028-.067.358-.268.604-.626.693-.358.09-.715.022-.96-.29-.09-.113-.158-.225-.247-.36.156-.088.29-.178.447-.29.067.09.134.18.224.27.178.178.38.178.558.044.157-.135.18-.336-.022-.537-.224-.246-.492-.47-.715-.715-.134-.157-.246-.335-.29-.514-.09-.358.066-.67.357-.85.268-.178.67-.134.96.068.068.11.18.2.29.29zm2.236 2.213l.4-.27c.068.09.135.18.202.246.18.202.425.202.58.045.158-.155.135-.334-.066-.535-.268-.268-.56-.514-.805-.805-.222-.268-.29-.58-.133-.894.157-.29.403-.447.738-.447.358 0 .58.223.805.468-.135.135-.246.246-.336.358-.11-.09-.223-.2-.357-.246-.09-.022-.27 0-.313.09-.045.067-.023.245.044.335.224.246.47.447.716.693.246.246.424.514.38.87-.067.448-.336.74-.716.784-.536.022-.894-.18-1.14-.693zm-9.992-1.946v.604h.916v.58h-.916v1.454h-.514v-3.174h1.43v.536h-.916zm32.923 2.1h.85v.538h-1.34V17.97h.513c-.022.85-.022 1.7-.022 2.615zM96.736 17.95h.537v3.174h-.537v-3.174zm-10.952 0h.537v3.174h-.537v-3.174zM57.33 17.59c-.067-.09-.11-.18-.178-.268.2-.18.424-.246.692-.18.246.068.492.068.738.09.022-.022.022-.044.045-.09.044.113.067.225.11.314-.177.067-.356.18-.535.18-.29 0-.56-.068-.85-.113.023 0 0 .023-.022.067z" fill="#A4B6C5" fill-rule="nonzero"/><path d="M10.013 5.252c.403 0 .738.157 1.05.38 1.655 1.207 3.33 2.437 4.985 3.666.335.246.67.514.96.805.65.648.627 1.676-.066 2.257-.782.67-1.587 1.296-2.414 1.9-1.117.85-2.28 1.654-3.442 2.503-.94.693-1.99.336-2.48-.268-.604-.782-.448-1.81.424-2.324.47-.268 1.028-.446 1.564-.625.827-.268 1.677-.47 2.504-.783.335-.134.67-.38.916-.67.604-.76.335-1.833-.603-2.28-.67-.313-1.385-.514-2.1-.715-.76-.224-1.543-.38-2.235-.805-.56-.335-.85-.804-.805-1.453.067-.738.56-1.297 1.252-1.476.156-.09.335-.09.49-.112z" fill="#FFF"/></g></svg>