<svg width="14" height="26" viewBox="0 0 14 26" xmlns="http://www.w3.org/2000/svg"><path d="M13.324.005L10.01 0C6.282 0 3.875 2.47 3.875 6.293v2.9H.542c-.288 0-.522.235-.522.523v4.204c0 .288.234.52.522.52h3.334v10.61c0 .287.233.52.52.52h4.35c.29 0 .523-.233.523-.52V14.44h3.897c.288 0 .52-.232.52-.52l.003-4.204c0-.138-.055-.27-.153-.37-.098-.097-.23-.152-.37-.152H9.27v-2.46c0-1.18.28-1.782 1.82-1.782h2.234c.288 0 .52-.234.52-.522V.527c0-.288-.232-.52-.52-.522z" fill-rule="nonzero" fill="#A4B6C5"/></svg>