<svg width="170" height="24" viewBox="0 0 170 24" xmlns="http://www.w3.org/2000/svg"><g fill-rule="nonzero" fill="#A4B6C5"><path d="M36.6 4.3L35 5.9s-.1-.1-.2-.1c-3.4-3-9.4-1.4-10.4 3.7-.7 3.6 1.6 7.1 5.3 7.7 2 .3 3.8-.1 5.3-1.5.8-.8 1.2-1.8 1.5-2.8.1-.4-.1-.4-.4-.4h-4.7c-.4 0-.6-.1-.5-.5v-1.4c0-.4.1-.5.5-.5h7.2c.3 0 .4.1.4.4.1 1.8 0 3.6-.9 5.2-1.2 2.2-3.2 3.4-5.6 3.8-3 .5-5.6-.3-7.8-2.4-1.6-1.5-2.5-3.4-2.7-5.5-.4-4.7 3.1-8.7 7.3-9.4 2.8-.5 5.2.2 7.3 2-.1 0 0 .1 0 .1zM71.3 4.3l-1.6 1.6c-.2-.1-.4-.3-.6-.5-3.7-2.7-9.2-.5-10 4.1-.5 2.9.8 5.6 3 6.9 2.3 1.4 5.7 1.1 7.6-.8.8-.8 1.2-1.8 1.4-2.8 0-.2-.1-.3-.3-.3H65.9c-.4 0-.5-.1-.5-.5v-1.4c0-.3.1-.4.4-.4h7.3c.3 0 .3.1.4.3.4 3.3-.8 6.7-4.4 8.4-1 .5-2.1.7-3.3.7-4.1.3-7.8-2.4-9-6.1-1.5-4.7 1.2-9.7 6.1-11.1 3-.8 5.8-.2 8.2 1.8.1 0 .2 0 .2.1zM41 10.7V2.9c0-.4.1-.6.5-.6h4.8c2.6.1 4.9.9 6.6 3 1 1.3 1.5 2.8 1.6 4.5.1 1.8-.1 3.5-1 5.1-1.2 2.2-3 3.4-5.4 3.9-.7.1-1.5.2-2.2.2h-4.5c-.4 0-.5-.1-.5-.5.1-2.5.1-5.1.1-7.8zm2.4 0v5.5c0 .2 0 .5.3.5 1.4-.1 2.8 0 4.1-.2 2-.3 3.4-1.5 4-3.4.4-1.2.4-2.5.2-3.7-.2-2.4-2-4.2-4.5-4.4-1.2-.1-2.4-.1-3.6-.1-.4 0-.5.1-.5.5v5.3zM94.7 19.2h-1.9c-.1 0-.3-.2-.4-.4-.4-1.1-.8-2.3-1.2-3.4-.1-.3-.3-.4-.6-.4H85c-.3 0-.5.1-.6.4-.4 1.1-.8 2.1-1.1 3.2-.1.4-.3.7-.9.6-.5-.1-.9 0-1.5 0 .2-.5.3-.8.4-1.2 1.8-4.6 3.5-9.3 5.3-13.9.1-.2.2-.4.5-.4h1.6c.2 0 .4.2.4.3L93 14.5c.5 1.3 1 2.7 1.5 4 0 .2.1.4.2.7zm-6.9-13h-.2c-.1.1-.1.3-.2.4-.7 2-1.5 4-2.2 6-.2.4-.1.5.4.5h4.1c.1 0 .3 0 .5-.1-.7-2.3-1.5-4.5-2.4-6.8zM116.5 10c.2-.2.4-.5.6-.7 1.9-1.6 4.9-1.4 6.6.5 1.2 1.4 1.6 2.9 1.4 4.7-.2 2.1-1.2 3.6-3 4.5-1.7.9-4.1.5-5.4-1-.1-.1-.1-.1-.3-.2V23.4c0 .3-.1.4-.4.4h-1.2c-.1 0-.2-.2-.3-.3v-.3V9.1c0-.6 0-.6.6-.6.4 0 .9-.1 1.1.1.2.2.1.7.2 1.1 0 .1.1.2.1.3zm6.7 3.8c0-.7-.1-1.4-.5-2-.6-1.2-1.6-1.8-3-1.8-1.3 0-2.3.7-2.9 1.8-.5 1-.6 2.1-.3 3.2.4 1.9 2.5 3.1 4.4 2.5 1.4-.5 2.4-1.9 2.3-3.7zM138.9 10.3c.6-.9 1.4-1.5 2.4-1.8 1.7-.4 3.4-.5 4.9.6 1.1.7 1.6 1.8 1.6 3.1v6.5c0 .3-.1.5-.4.4h-1.1c-.3 0-.4-.1-.4-.3v-1h-.1l-.3.3c-.9 1.1-2.1 1.6-3.6 1.4-1.1-.1-2.1-.5-2.8-1.4-1.6-2-.6-4.8 1.8-5.5 1.5-.4 3-.4 4.5.2.4.1.4.1.4-.3-.1-1.2-.8-1.9-1.8-2.3-1.1-.4-2.1-.1-3 .6-.2.2-.4.5-.7.5-.2 0-.5-.3-.8-.4 0-.2-.3-.4-.6-.6zm3.9 7.5c1.4 0 2.9-1.3 3.2-2.6.1-.4 0-.7-.4-.8-.6-.2-1.2-.4-1.9-.5-1.1-.1-2.1.2-2.8 1.1-.3.4-.4.9-.2 1.4.2.8 1.2 1.4 2.1 1.4zM103.4 10.3c.5-.8 1.2-1.4 2.1-1.7 1.4-.5 2.9-.5 4.3 0s2.5 2 2.5 3.5v6.6c0 .3-.1.5-.4.4h-1c-.3 0-.4-.1-.4-.4v-1c-.2.1-.3.1-.3.2-.7.9-1.6 1.4-2.7 1.5-1.6.1-3.5-.5-4.2-2.2-.8-2 .1-4.2 2.7-4.8 1.4-.3 2.8-.2 4.1.3.4.1.4.1.4-.3-.1-1.3-.8-2-1.9-2.3-1.1-.4-2.1-.1-2.9.7-.6.6-.6.6-1.4.1l-.9-.6zm4.6 3.4v.1c-1 0-1.9.3-2.4.9-.8.9-.7 2 .3 2.6 1.9 1.2 4.2-.5 4.6-2.2.1-.4 0-.7-.4-.9-.8-.1-1.4-.3-2.1-.5zM168 17.8l-.3.3c-.9 1.1-2.1 1.5-3.6 1.4-1.3-.1-2.3-.7-3-1.8-1-1.6-.6-4.1 1.6-4.9 1.6-.6 3.2-.6 4.8-.1.2.1.3.1.5.2.1-.9-.2-1.6-.8-2.1-1.4-1.2-3.1-1-4.3.3-.2.3-.4.3-.7.1-.4-.3-.9-.6-1.3-.9.4-.7 1-1.2 1.7-1.5 1.8-.8 3.5-.8 5.3.1 1.3.7 2 1.8 2 3.3V19c0 .2-.1.3-.3.3h-1.2c-.3 0-.3-.1-.3-.4v-1c0-.1 0-.1-.1-.1zm-2.1-4c-1.1.1-1.8.2-2.4.6-1 .7-1.1 1.8-.3 2.6.5.5 1.2.8 1.9.7 1.4-.1 2.7-1.3 3-2.6.1-.4 0-.7-.4-.8-.7-.2-1.4-.4-1.8-.5zM151.4 14.1c0 1.3.6 2.6 2.1 3.3 1.5.7 3.3.2 4.1-1.3.2-.3.4-.4.7-.2.3.2.6.3.9.4.3.1.4.3.2.6-.6 1.1-1.4 1.9-2.5 2.3-2.7 1-5.9 0-7-3-1-2.7-.3-6 2.6-7.4 2.2-1 5.1-.7 6.6 1.6.6.9.6.9-.4 1.3-.3.1-.6.3-.8.3-.2 0-.3-.4-.5-.6-1-1.5-3.2-1.7-4.6-.5-1 .7-1.4 1.7-1.4 3.2zM4 .6c.2 0 .3-.1.4-.1h2.8c.3 0 .4.1.5.3 1.8 3.1 3.6 6.2 5.4 9.4.4.6.4 1.3.1 1.9-.4.7-.8 1.4-1.3 2.2C9.3 9.8 6.7 5.2 4 .6zM.1 22.1c2.1-3.6 4.1-7.1 6.2-10.7.4.7.7 1.3 1.1 1.8.1.3.3.5.4.8.4.4.3.8 0 1.3-1.3 2.1-2.5 4.3-3.8 6.5-.1.2-.3.3-.5.3-1.1-.1-2.2 0-3.4 0zM98.1 10.1c.5-.5.8-.9 1.3-1.2.9-.7 1.9-.7 3-.5.3.1.4.2.3.5-.1.4-.3.8-.4 1.2-.1.2-.2.3-.5.3-2-.3-3.6 1-3.6 3.1v5.2c0 .4-.1.5-.5.5h-1.1c-.3 0-.4-.1-.4-.4v-1.6-8.1c0-.4.1-.6.5-.5h.9c.3 0 .4.1.4.4.1.3.1.7.1 1.1zM133.6 10.1c.6-.5 1-1 1.6-1.3.8-.5 1.8-.5 2.7-.3.3.1.4.2.3.5-.1.4-.3.8-.4 1.2-.1.2-.2.3-.4.3-1.7-.3-2.9.4-3.5 1.9-.1.3-.2.7-.2 1.1v5.4c0 .3-.1.5-.4.5h-.8c-.7 0-.7 0-.7-.7v-6.4-2.9c0-.6 0-.6.6-.6h.9c.3 0 .3.1.3.4v.9zM127.1 13.8V9c0-.4.1-.5.5-.5h1.1c.3 0 .4.1.4.4v9.8c0 .3-.1.4-.4.4h-1.1c-.3 0-.4-.1-.4-.4-.1-1.6-.1-3.2-.1-4.9zM126.7 4.9c0-.8.6-1.4 1.4-1.4.8 0 1.4.6 1.4 1.4 0 .8-.6 1.4-1.4 1.4-.8 0-1.4-.6-1.4-1.4z"/></g></svg>