<svg width="624" height="90" viewBox="0 0 624 90" xmlns="http://www.w3.org/2000/svg"><g fill="none" fill-rule="evenodd"><g transform="translate(-4 4)"><circle fill="#845F21" cx="52" cy="35" r="15"/><path d="M47.932 77.72l1.884 4.09 8.935-5.43c-1.027-.64-2.543-.826-4.547-.556-1.826.245-1.798-.135-2.467-.276-.12-.026-.14-.08-.065-.166l-3.738 2.34zM9.985 63.206l-4.362-1.108-1.403 10.36c1.145-.395 2.243-1.457 3.294-3.184C8.472 67.7 8.75 67.96 9.28 67.53c.096-.077.152-.06.17.055l.535-4.38z" fill="#848484"/><path d="M9.633 62.677h10.5c1.777-.348 2.84-1.098 3.192-2.25.35-1.15 1.473-4.57 3.37-10.26.105-2.68.458-4.178 1.06-4.498.603-.32 2.717.49 6.34 2.43l-5.324 14.205c-1.964 3.865-4.266 5.877-6.906 6.038-3.958.24-10.227.988-11.302.548-.716-.293-1.212-.74-1.486-1.337l.557-4.876z" fill="#303030"/><path d="M27.866 27.166c-4.2.93-6.59 1.743-7.172 2.442-.873 1.047-5.476 6.722-5.92 8.06-.445 1.34-1.95 4.38.444 4.863 2.394.483 3.352-.347 3.785-1.307.434-.96-.382-1.745 0-2.423.382-.678 2.427-4.846 3.045-5.325.618-.48 5.003-2.454 5.818-2.43.543.015 1.197-.13 1.963-.434l-1.964-3.444z" fill="#424443"/><path d="M38.29 37.047c.936 2.967 1.697 4.673 2.284 5.116.88.665 2.7 1.542 4.502 1.232 1.202-.207 3.804-1.87 7.807-4.987 1.45-1.24 2.036-2.413 1.76-3.52-.413-1.657-2.724-2.64-4.163-1.657-1.44.986-1.574 2.043-1.44 2.465.09.28.134.576.134.885l-4.098 2.336c-1.214.283-1.974.113-2.28-.508-.308-.62-.756-1.794-1.345-3.52l-3.16 2.16z" fill="#303030"/><path d="M27.733 45.318c-.496 1.898-.16 3.588 1.01 5.072 1.753 2.224 17.214 26 17.764 26.96.55.962 2.433-.164 2.856-.452.282-.192 1.11-.7 2.48-1.522l-16.406-27.93-7.704-2.128z" fill="#424443"/><path d="M38.22 37.964l3.978-2.51c-1.463-4.075-2.398-6.255-2.804-6.538-.406-.283-1.436.69-3.09 2.916l1.917 6.132z" fill="#871B28"/><path d="M35.588 25.807l.353-1.415c-3.414-1.96-4.582-4.88-3.502-8.766 1.08-3.884 3.867-5.322 8.36-4.314 2.08.37 3.164 1.428 3.254 3.17.09 1.744.09 3.05 0 3.922.644 1.46.927 2.27.85 2.432-.077.163-.36.508-.85 1.037.14 1.488.14 2.327 0 2.52-.208.287-.67.99-1.55 1.03-.585.026-1.538.04-2.86.04l-.544 2.312-3.807-1.082.298-.886z" fill="#424443"/><path d="M27.51 45.47l7.923 1.978c2.965-8.522 4.42-14.275 4.367-17.26-.054-2.984-1.9-4.243-5.535-3.778l-1.934 2.686-4.82 16.374z" fill="#BF2538"/><path d="M27.51 26.804c.103 2.914.383 4.566.84 4.958.458.392 2.823.104 7.097-.863 2.165-1.222 2.334-2.757.506-4.606-.263-.475-3.077-.305-8.442.51z" fill="#D82B41"/><g fill-rule="nonzero" fill="#AF7E2A"><path d="M44.086 18.604l-.787-.316-.19-2.268-.094 2.17-2.923-1.186s.61 1.316 1.214 1.61c.425.213 1.676.73 1.676.73l.144 2.317.135-2.194.806.31L47 30l-10.38-7.306s-.48-3.55-1.127-3.08c-.648.47-1.765 1.386-1.765 1.386L31 21.604l1.486-6.146s-.345-6.61 5.428-6.455c5.774.153 5.67 2.37 5.67 2.37l.51-1.495 1.86 12.515-1.03-1.8s.325.183.23-.145c-.095-.328-1.068-1.844-1.068-1.844z"/><path d="M43.538 9.773L52 3.663s-22.984-11.696-24.91 6.71C26.517 15.86 28.86 22 28.86 22l2.4-7.927s2.44-8.99 12.278-4.3z"/></g><g fill-rule="nonzero"><path d="M14.902 40.81c.107-.527.03-1.092-.312-1.526-.4-.49-1.09-.746-1.708-.582-.214.056-.414.158-.587.294-.714.558-.843 1.59-.283 2.306.56.717 1.59.843 2.306.284.03-.025.06-.05.088-.076l3.835.472-.272 2.23c-.03.246.147.473.393.503l.883.107c.245.03.472-.147.502-.393l.808-6.6c.03-.247-.147-.474-.393-.504l-.884-.11c-.245-.03-.472.148-.503.394l-.273 2.23-3.146-.386v.01l.008.106c.002.14-.004.275-.024.4-.035.222-.098.448-.202.65-.063.14-.144.274-.234.398-.063.09-.105.136-.105.136s.023-.058.054-.16c.023-.06.038-.123.052-.183z" fill="#000"/><path d="M41.17 39.315c-.252-.2-.567-.308-.89-.304l-18.617.28-.174 1.412 17.358 2.7-17.496-1.58-.18 1.46 17.972 4.872c.32.087.657.057.96-.083l6.98-3.273c.28-.135.327-.515.083-.71l-5.997-4.772z" fill="#B6B6B6"/></g><path d="M14.937 38c-.614 1.87-.926 2.96-.937 3.27-.01.308 1.544.672 4.666 1.09.414-1.242.547-2.04.396-2.396-.15-.355-1.526-1.01-4.125-1.964z" fill="#424443"/></g><g transform="translate(84 2)"><circle fill="#845F21" cx="41" cy="41" r="15"/><path d="M25.362 77.67l-.49 4.475 10.455-.052c-.55-1.08-1.755-2.018-3.612-2.82-1.692-.73-1.472-1.04-1.973-1.506-.09-.083-.08-.142.03-.175l-4.41.08zM10.775 62.82L6.64 61.044 3.633 71.057c1.193-.212 2.444-1.09 3.752-2.63 1.193-1.404 1.427-1.103 2.018-1.446.106-.06.16-.033.16.08l1.212-4.24z" fill="#848484"/><path d="M10.736 62.2l5.316.71c3.254.642 5.056.388 5.406-.763.35-1.152-.078-5.05-1.284-11.695.104-2.68.458-4.18 1.06-4.5.603-.318 2.716.492 6.34 2.432l-.248 15.55c-1.14 3.13-3.03 4.776-5.668 4.937-3.96.242-9.463-.15-10.538-.59-.716-.293-1.303-.8-1.76-1.517l1.376-4.563z" fill="#303030"/><path d="M21.494 45.602c-.497 1.897-.16 3.588 1.01 5.07 1.125 1.43 8 9.105 7.277 13.68-.66 4.175-4.665 12.802-4.468 13.146.55.962 4.68.825 5.104.538.423-.288 3.432-5.165 4.984-9.313 1.035-2.766 1.065-5.646.09-8.64L29.196 47.73l-7.703-2.128z" fill="#3A3C3B"/><path d="M29.868 37.79c.353 3.09.776 4.91 1.267 5.457.736.82 2.357 2.03 4.185 2.068 1.218.026 4.09-1.11 8.614-3.405 1.66-.942 2.46-1.98 2.4-3.12-.09-1.705-2.17-3.113-3.77-2.42-1.602.69-1.935 1.704-1.884 2.143.034.293.022.59-.037.894l-4.47 1.512c-1.245.044-1.96-.267-2.14-.935-.184-.668-.4-1.905-.65-3.71l-3.515 1.514z" fill="#303030"/><path d="M29.905 38.73l4.382-1.704c-.658-4.28-1.16-6.6-1.504-6.954-.345-.355-1.54.402-3.59 2.273l.712 6.385z" fill="#871B28"/><path d="M29.065 25.807l.353-1.415c-3.415-1.96-4.583-4.88-3.503-8.766 1.08-3.884 3.867-5.322 8.36-4.314 2.08.37 3.164 1.428 3.254 3.17.09 1.744.09 3.05 0 3.922.643 1.46.926 2.27.85 2.432-.078.163-.362.508-.85 1.037.137 1.488.137 2.327 0 2.52-.21.287-.672.99-1.55 1.03-.586.026-1.54.04-2.862.04l-.544 2.312-3.806-1.082.297-.886z" fill="#424443"/><path d="M21.272 45.754l7.92 1.977c2.966-8.52 4.422-14.273 4.37-17.258-.055-2.984-1.9-4.244-5.537-3.78l-1.933 2.687-4.82 16.374z" fill="#BF2538"/><g><path d="M20.038 30.655c-3.63 2.31-5.598 3.892-5.905 4.748-.462 1.282-2.847 8.19-2.806 9.6.04 1.41-.334 4.783 2.08 4.417 2.414-.366 3.03-1.474 3.11-2.524.08-1.05-.956-1.51-.83-2.277.128-.77.624-5.386 1.04-6.047.418-.66 3.863-4.017 4.637-4.274.516-.17 1.08-.53 1.696-1.08l-3.022-2.565z" fill="#424443"/><path d="M19.58 30.437c1.092 2.703 1.92 4.16 2.484 4.37.564.213 2.69-.866 6.374-3.237 1.617-1.888 1.25-3.388-1.1-4.5-.41-.356-2.996.766-7.758 3.367z" fill="#D82B41"/></g><g fill-rule="nonzero" fill="#AF7E2A"><path d="M37.086 18.604l-.787-.316-.19-2.268-.094 2.17-2.923-1.186s.61 1.316 1.214 1.61c.425.213 1.676.73 1.676.73l.144 2.317.135-2.194.806.31L40 30l-10.38-7.306s-.48-3.55-1.127-3.08c-.648.47-1.765 1.386-1.765 1.386L24 21.604l1.486-6.146s-.345-6.61 5.428-6.455c5.774.153 5.67 2.37 5.67 2.37l.51-1.495 1.86 12.515-1.03-1.8s.325.183.23-.145c-.095-.328-1.068-1.844-1.068-1.844z"/><path d="M36.538 9.773L45 3.663s-22.984-11.696-24.91 6.71C19.517 15.86 21.86 22 21.86 22l2.4-7.927s2.44-8.99 12.278-4.3z"/></g><g fill-rule="nonzero"><path d="M12.65 46.995c.214-.494.257-1.062.012-1.558-.29-.562-.912-.956-1.55-.925-.22.01-.438.07-.636.166-.814.397-1.154 1.38-.756 2.197.4.817 1.38 1.155 2.197.756.036-.016.07-.036.102-.054l3.653 1.258-.732 2.126c-.08.234.047.493.28.573l.842.288c.234.08.492-.045.573-.28l2.162-6.287c.08-.234-.046-.493-.28-.573l-.842-.29c-.234-.08-.492.045-.573.28l-.73 2.125-3-1.033v.01l-.015.105c-.026.138-.06.268-.106.388-.08.208-.19.416-.332.592-.09.123-.198.238-.31.34-.08.074-.132.112-.132.112s.034-.053.086-.147c.033-.054.062-.112.087-.168z" fill="#000"/><path d="M38.655 50.994c-.205-.248-.49-.42-.807-.483l-18.27-3.596-.462 1.344 16.417 6.25-16.785-5.182-.48 1.39 16.567 8.502c.294.152.63.192.955.118l7.51-1.75c.302-.074.427-.436.228-.678l-4.873-5.914z" fill="#B6B6B6"/></g><path d="M11.32 44c-.5 1.66-.414 2.917.263 3.77.677.854 1.884 1.146 3.62.876.89-1.312 1.257-2.145 1.106-2.5-.152-.357-1.815-1.072-4.99-2.146z" fill="#424443"/></g><g transform="translate(170 1)"><circle fill="#845F21" cx="28" cy="47" r="15"/><path d="M7.494 79.94l-.49 4.474 10.455-.052c-.553-1.08-1.757-2.018-3.613-2.82-1.692-.73-1.472-1.04-1.973-1.506-.09-.083-.08-.142.03-.175l-4.41.08zM8.135 64.565l-4.5.06 1.325 10.37c1.004-.68 1.79-1.99 2.358-3.93.518-1.767.854-1.587 1.255-2.14.072-.1.13-.097.178.008l-.615-4.368z" fill="#848484"/><path d="M8.39 65.208l.475-.965c3.47-.296 5.38-1.02 5.73-2.172.35-1.15-.53-4.235-2.64-9.254-1.106-4.25-1.357-6.533-.755-6.852.603-.32 3.218.34 7.846 1.975l5.005 12.44c.15 4.214-1.32 6.694-4.404 7.44-4.628 1.116-9.356 2.31-10.43 1.87-.718-.293-1.045-.71-.984-1.25l.157-3.232z" fill="#303030"/><path d="M11.552 45.602c-.987 2.338-.896 4.25.273 5.733 1.127 1.43 1.55 9.302.826 13.877-.66 4.174-5.467 14.198-5.27 14.542.55.96 5.022.54 5.446.25.423-.287 1.4-1.856 2.952-6.004 1.034-2.766 1.965-6.29 2.79-10.57l.688-15.7-7.704-2.128z" fill="#3A3C3B"/><path d="M19.304 34.69c-.718 2.836-1.16 4.612-1.328 5.328-.25 1.074-.31 3.095.707 4.615.677 1.013 3.254 2.714 7.73 5.103 1.723.82 3.033.878 3.93.177 1.348-1.05 1.307-3.563-.178-4.478-1.485-.914-2.505-.607-2.836-.313-.22.196-.472.357-.755.483l-3.8-2.794c-1.208-1.444-1.59-2.433-1.148-2.966.443-.533.986-1.902 1.63-4.107l-3.953-1.048z" fill="#303030"/><path d="M19.066 38.274l4.64-.756c.247-4.324.238-6.695-.025-7.115-.262-.42-1.59.073-3.983 1.477l-.63 6.394z" fill="#871B28"/><path d="M19.138 25.807l.353-1.415c-3.414-1.96-4.582-4.88-3.502-8.766 1.08-3.884 3.867-5.322 8.36-4.314 2.08.37 3.164 1.428 3.254 3.17.09 1.744.09 3.05 0 3.922.644 1.46.927 2.27.85 2.432-.077.163-.36.508-.85 1.037.14 1.488.14 2.327 0 2.52-.208.287-.67.99-1.55 1.03-.585.026-1.538.04-2.86.04l-.544 2.312-3.807-1.082.298-.886z" fill="#424443"/><path d="M11.345 45.754l7.92 1.977c2.967-8.52 4.422-14.273 4.37-17.258-.055-2.984-1.9-4.244-5.536-3.78l-1.935 2.687-4.82 16.374z" fill="#BF2538"/><path d="M13.767 33.9c-1.578 4-2.24 6.437-1.987 7.31.38 1.31 2.51 8.3 3.373 9.416.86 1.117 2.54 4.066 4.28 2.35 1.738-1.715 1.585-2.973 1.032-3.87-.553-.895-1.66-.658-2.01-1.354-.347-.696-2.66-4.722-2.71-5.502-.053-.78.762-5.52 1.237-6.183.317-.44.563-1.064.74-1.87l-3.955-.298z" fill="#424443"/><path d="M13.104 33.48c2.417 1.63 3.918 2.375 4.504 2.235.586-.14 1.744-2.222 3.473-6.248.286-2.47-.856-3.508-3.426-3.117-.54-.066-2.056 2.31-4.55 7.13z" fill="#D82B41"/><g fill-rule="nonzero" fill="#AF7E2A"><path d="M27.086 18.604l-.787-.316-.19-2.268-.094 2.17-2.923-1.186s.61 1.316 1.214 1.61c.425.213 1.676.73 1.676.73l.144 2.317.135-2.194.806.31L30 30l-10.38-7.306s-.48-3.55-1.127-3.08c-.648.47-1.765 1.386-1.765 1.386L14 21.604l1.486-6.146s-.345-6.61 5.428-6.455c5.774.153 5.67 2.37 5.67 2.37l.51-1.495 1.86 12.515-1.03-1.8s.325.183.23-.145c-.095-.328-1.068-1.844-1.068-1.844z"/><path d="M26.538 9.773L35 3.663s-22.984-11.696-24.91 6.71C9.517 15.86 11.86 22 11.86 22l2.4-7.927s2.44-8.99 12.278-4.3z"/></g><g fill-rule="nonzero"><path d="M17.63 51.35c-.225-.49-.618-.903-1.15-1.052-.612-.16-1.322.038-1.725.533-.14.172-.242.372-.302.584-.25.87.253 1.78 1.127 2.032.874.25 1.782-.253 2.032-1.126.01-.038.02-.077.027-.113l3.38-1.873 1.09 1.965c.12.216.396.295.612.175l.776-.432c.217-.12.296-.397.176-.613l-3.226-5.814c-.12-.217-.397-.296-.613-.176l-.78.43c-.216.12-.295.398-.175.614l1.09 1.966-2.773 1.537.007.007c.02.027.046.055.068.08.085.114.158.226.217.34.1.2.18.42.217.644.03.15.044.306.044.46.002.108-.004.17-.004.17s-.015-.06-.05-.16c-.018-.062-.042-.12-.067-.178z" fill="#000"/><path d="M38.002 34.7c-.322-.014-.64.083-.9.276l-14.897 11.17.69 1.243 15.63-8.02-15.083 9.008.713 1.285 17.402-6.62c.31-.12.566-.342.728-.633l3.723-6.752c.148-.274-.038-.61-.35-.623l-7.656-.336z" fill="#B6B6B6"/></g><path d="M15.03 50.468c-.19 2.045.525 3.068 2.147 3.068 1.623 0 2.793-.856 3.51-2.568-.402-.878-.68-1.494-.83-1.85-.15-.356-1.76.094-4.827 1.35z" fill="#424443"/></g><g transform="translate(253)"><circle fill="#845F21" cx="30" cy="44" r="15"/><path d="M3.734 78.32L.766 81.7l8.595 5.955c.168-1.2-.28-2.66-1.34-4.38-.97-1.57-.61-1.7-.753-2.367-.025-.12.016-.162.125-.126L3.734 78.32zM20.124 73.288l-2.848 3.485 8.797 5.65c.125-1.204-.373-2.648-1.494-4.33-1.023-1.534-.67-1.676-.835-2.34-.03-.118.01-.16.12-.13l-3.74-2.335z" fill="#848484"/><path d="M24.288 64.538l.573-1.297c.463-1.237.335-2.14-.385-2.706-.72-.567-4.036-3.476-9.947-8.726-2.02-3.577-2.727-5.525-2.125-5.844.603-.32 3.218.34 7.847 1.975l8.94 9.753c1.858 2.03 2.038 4.813.54 8.35-2.247 5.307-4.586 10.133-5.66 9.693-.717-.293-2.102-1.133-4.155-2.52l4.373-8.678z" fill="#303030"/><path d="M12.7 45.602c-1.065 1.974-1.267 4.21-.606 6.71.564 2.133-.71 8.077-1.435 12.653-.662 4.174-7.45 13.188-7.252 13.532.55.96 4.235 2.772 4.658 2.484.424-.286 3.664-3.505 5.216-7.654 1.035-2.766 2.28-5.953 3.737-9.563l3.383-16.032-7.704-2.128z" fill="#3A3C3B"/><path d="M19.465 34.957c.09 2.925.156 4.755.193 5.49.056 1.1.555 3.06 1.95 4.24.93.788 3.877 1.712 8.838 2.775 1.882.313 3.158.008 3.828-.913 1.004-1.383.273-3.786-1.406-4.256-1.68-.47-2.576.107-2.813.48-.158.25-.355.473-.592.672L25.04 41.81c-1.56-1.058-2.2-1.904-1.92-2.538.278-.634.423-2.1.434-4.396l-4.09.08z" fill="#303030"/><path d="M20.2 38.274l4.64-.756c.247-4.324.24-6.695-.024-7.115-.263-.42-1.592.073-3.985 1.477l-.63 6.394z" fill="#871B28"/><path d="M20.273 25.807l.353-1.415c-3.416-1.96-4.583-4.88-3.503-8.766 1.08-3.884 3.867-5.322 8.36-4.314 2.08.37 3.164 1.428 3.254 3.17.09 1.744.09 3.05 0 3.922.644 1.46.927 2.27.85 2.432-.077.163-.36.508-.85 1.037.138 1.488.138 2.327 0 2.52-.208.287-.672.99-1.55 1.03-.585.026-1.54.04-2.86.04l-.545 2.312-3.806-1.082.297-.886z" fill="#424443"/><path d="M12.48 45.754l7.92 1.977c2.966-8.52 4.422-14.273 4.368-17.258-.053-2.984-1.898-4.244-5.535-3.78L17.3 29.38l-4.82 16.374z" fill="#BF2538"/><path d="M14.303 32.5c-2.376 3.586-3.53 5.833-3.464 6.74.1 1.36.73 8.64 1.34 9.91.61 1.272 1.64 4.506 3.697 3.19 2.057-1.317 2.17-2.58 1.815-3.57-.355-.993-1.487-.99-1.683-1.744-.198-.753-1.622-5.173-1.51-5.946.11-.773 1.894-5.24 2.496-5.79.402-.366.772-.924 1.11-1.675L14.304 32.5z" fill="#424443"/><path d="M13.388 33.48c2.417 1.63 3.918 2.375 4.504 2.235.586-.14 1.743-2.222 3.473-6.248.285-2.47-.858-3.508-3.428-3.117-.54-.066-2.055 2.31-4.55 7.13z" fill="#D82B41"/><g fill-rule="nonzero" fill="#AF7E2A"><path d="M28.086 18.604l-.787-.316-.19-2.268-.094 2.17-2.923-1.186s.61 1.316 1.214 1.61c.425.213 1.676.73 1.676.73l.144 2.317.135-2.194.806.31L31 30l-10.38-7.306s-.48-3.55-1.127-3.08c-.648.47-1.765 1.386-1.765 1.386L15 21.604l1.486-6.146s-.345-6.61 5.428-6.455c5.774.153 5.67 2.37 5.67 2.37l.51-1.495 1.86 12.515-1.03-1.8s.325.183.23-.145c-.095-.328-1.068-1.844-1.068-1.844z"/><path d="M27.538 9.773L36 3.663s-22.984-11.696-24.91 6.71C10.517 15.86 12.86 22 12.86 22l2.4-7.927s2.44-8.99 12.278-4.3z"/></g><g fill-rule="nonzero"><path d="M13.802 50.744c-.162-.513-.502-.97-1.013-1.184-.588-.234-1.316-.123-1.777.32-.16.152-.285.338-.37.54-.355.835.033 1.8.87 2.155.837.355 1.8-.033 2.154-.87.016-.036.028-.074.04-.11l3.584-1.446.843 2.083c.093.23.358.342.587.25l.823-.335c.23-.093.342-.358.25-.587L17.3 45.398c-.094-.23-.36-.342-.588-.25l-.826.334c-.23.093-.342.358-.25.588l.843 2.084-2.94 1.187c0 .003.004.004.005.007.02.03.04.06.058.09.07.12.13.242.174.36.077.212.13.44.138.667.012.152.007.31-.012.46-.012.11-.026.17-.026.17s-.008-.06-.03-.165c-.01-.064-.027-.126-.045-.186z" fill="#000"/><path d="M36.052 36.7c-.317-.052-.645.006-.926.167l-16.148 9.27.533 1.32L36.003 41.4l-16.068 7.103.55 1.362 18.08-4.45c.322-.08.603-.27.8-.538l4.518-6.248c.18-.255.037-.61-.272-.663L36.052 36.7z" fill="#B6B6B6"/></g><path d="M12.03 49.468c-.19 2.045.525 3.068 2.147 3.068 1.623 0 2.793-.856 3.51-2.568-.402-.878-.68-1.494-.83-1.85-.15-.356-1.76.094-4.827 1.35z" fill="#424443"/></g><g transform="translate(327 4)"><circle fill="#845F21" cx="18" cy="39" r="15"/><path d="M47.932 77.72l1.884 4.09 8.935-5.43c-1.027-.64-2.543-.826-4.547-.556-1.826.245-1.798-.135-2.467-.276-.12-.026-.14-.08-.065-.166l-3.738 2.34zM9.985 63.206l-4.362-1.108-1.403 10.36c1.145-.395 2.243-1.457 3.294-3.184C8.472 67.7 8.75 67.96 9.28 67.53c.096-.077.152-.06.17.055l.535-4.38z" fill="#848484"/><path d="M27.866 27.166c-4.2.93-6.59 1.743-7.172 2.442-.873 1.047-5.476 6.722-5.92 8.06-.445 1.34-1.95 4.38.444 4.863 2.394.483 3.352-.347 3.785-1.307.434-.96-.382-1.745 0-2.423.382-.678 2.427-4.846 3.045-5.325.618-.48 5.003-2.454 5.818-2.43.543.015 1.197-.13 1.963-.434l-1.964-3.444zM27.733 45.318c-.496 1.898-.16 3.588 1.01 5.072 1.753 2.224 17.214 26 17.764 26.96.55.962 2.433-.164 2.856-.452.282-.192 1.11-.7 2.48-1.522l-16.406-27.93-7.704-2.128z" fill="#424443"/><path d="M9.633 62.677h10.5c1.777-.348 2.84-1.098 3.192-2.25.35-1.15 1.473-4.57 3.37-10.26.105-2.68.458-4.178 1.06-4.498.603-.32 2.903.164 6.9 1.45L28.77 62.305c-1.964 3.865-4.266 5.877-6.906 6.038-3.958.24-10.227.988-11.302.548-.716-.293-1.212-.74-1.486-1.337l.557-4.876z" fill="#303030"/><path d="M35.588 25.807l.353-1.415c-3.414-1.96-4.582-4.88-3.502-8.766 1.08-3.884 3.867-5.322 8.36-4.314 2.08.37 3.164 1.428 3.254 3.17.09 1.744.09 3.05 0 3.922.644 1.46.927 2.27.85 2.432-.077.163-.36.508-.85 1.037.14 1.488.14 2.327 0 2.52-.208.287-.67.99-1.55 1.03-.585.026-1.538.04-2.86.04l-.544 2.312-3.807-1.082.298-.886z" fill="#424443"/><path d="M27.51 26.804c.103 2.914.383 4.566.84 4.958.458.392 2.823.104 7.097-.863 2.165-1.222 2.334-2.757.506-4.606-.263-.475-3.077-.305-8.442.51z" fill="#7D1822"/><path d="M27.51 45.47l7.923 1.978c2.965-8.522 4.42-14.275 4.367-17.26-.054-2.984-1.9-4.243-5.535-3.778l-1.934 2.686-4.82 16.374z" fill="#BF2538"/><path d="M38.29 37.047c.936 2.967 1.697 4.673 2.284 5.116.88.665 2.7 1.542 4.502 1.232 1.202-.207 3.804-1.87 7.807-4.987 1.45-1.24 2.036-2.413 1.76-3.52-.413-1.657-2.724-2.64-4.163-1.657-1.44.986-1.574 2.043-1.44 2.465.09.28.134.576.134.885l-4.098 2.336c-1.214.283-1.974.113-2.28-.508-.308-.62-.756-1.794-1.345-3.52l-3.16 2.16z" fill="#303030"/><path d="M37.947 37.49c2.684-1.14 4.126-1.993 4.328-2.56.202-.568-.915-2.674-3.35-6.317-1.915-1.583-3.408-1.19-4.48 1.178-.348.417.82 2.983 3.502 7.7z" fill="#D82B41"/><g fill-rule="nonzero" fill="#AF7E2A"><path d="M44.086 18.604l-.787-.316-.19-2.268-.094 2.17-2.923-1.186s.61 1.316 1.214 1.61c.425.213 1.676.73 1.676.73l.144 2.317.135-2.194.806.31L47 30l-10.38-7.306s-.48-3.55-1.127-3.08c-.648.47-1.765 1.386-1.765 1.386L31 21.604l1.486-6.146s-.345-6.61 5.428-6.455c5.774.153 5.67 2.37 5.67 2.37l.51-1.495 1.86 12.515-1.03-1.8s.325.183.23-.145c-.095-.328-1.068-1.844-1.068-1.844z"/><path d="M43.538 9.773L52 3.663s-22.984-11.696-24.91 6.71C26.517 15.86 28.86 22 28.86 22l2.4-7.927s2.44-8.99 12.278-4.3z"/></g><g fill-rule="nonzero"><path d="M53.59 37.683c-.462.273-.83.707-.925 1.253-.096.625.176 1.31.71 1.66.186.12.395.2.612.24.893.156 1.745-.44 1.903-1.334.158-.896-.437-1.746-1.332-1.904-.04-.007-.078-.01-.115-.015l-2.216-3.166 1.84-1.29c.204-.14.254-.425.112-.628l-.512-.727c-.142-.203-.426-.253-.63-.11l-5.444 3.815c-.203.142-.253.426-.11.63l.51.728c.142.203.425.253.628.11l1.84-1.29 1.82 2.598.006-.007.074-.076c.103-.095.206-.18.313-.25.188-.122.398-.225.618-.284.146-.046.3-.076.452-.093.108-.012.17-.012.17-.012s-.057.022-.154.068c-.058.024-.114.054-.17.085z" fill="#000"/><path d="M34.903 19.162c.02.32.15.628.37.865l12.665 13.648 1.165-.815-9.61-14.707 10.535 14.06 1.204-.844-8.404-16.616c-.15-.296-.398-.527-.704-.658L35.02 11.1c-.288-.12-.602.1-.583.413l.466 7.65z" fill="#B6B6B6"/></g><path d="M50.247 36.166c-.606 2.02-.097 3.032 1.525 3.032 1.623 0 2.65-1.01 3.084-3.032-.718-1.028-1.153-1.72-1.304-2.075-.15-.355-1.252.337-3.305 2.076z" fill="#303030"/></g><g transform="translate(414 2)"><circle fill="#845F21" cx="15" cy="45" r="15"/><path d="M26.362 77.67l-.49 4.475 10.455-.052c-.55-1.08-1.755-2.018-3.612-2.82-1.692-.73-1.472-1.04-1.973-1.506-.09-.083-.08-.142.03-.175l-4.41.08zM11.775 62.82L7.64 61.044 4.633 71.057c1.193-.212 2.444-1.09 3.752-2.63 1.193-1.404 1.427-1.103 2.018-1.446.106-.06.16-.033.16.08l1.212-4.24z" fill="#848484"/><path d="M22.494 45.602c-.497 1.897-.16 3.588 1.01 5.07 1.125 1.43 8 9.105 7.277 13.68-.66 4.175-4.665 12.802-4.468 13.146.55.962 4.68.825 5.104.538.423-.288 3.432-5.165 4.984-9.313 1.035-2.766 1.065-5.646.09-8.64L30.196 47.73l-7.703-2.128z" fill="#3A3C3B"/><path d="M11.736 62.2l5.316.71c3.254.642 5.056.388 5.406-.763.35-1.152-.078-5.05-1.284-11.695.104-2.68.458-4.18 1.06-4.5.603-.318 2.782.102 6.538 1.26l-.446 16.72c-1.14 3.132-3.03 4.778-5.668 4.94-3.96.24-9.463-.15-10.538-.592-.716-.293-1.303-.8-1.76-1.517l1.376-4.563z" fill="#303030"/><path d="M30.065 25.807l.353-1.415c-3.415-1.96-4.583-4.88-3.503-8.766 1.08-3.884 3.867-5.322 8.36-4.314 2.08.37 3.164 1.428 3.254 3.17.09 1.744.09 3.05 0 3.922.643 1.46.926 2.27.85 2.432-.078.163-.362.508-.85 1.037.137 1.488.137 2.327 0 2.52-.21.287-.672.99-1.55 1.03-.586.026-1.54.04-2.862.04l-.544 2.312-3.806-1.082.297-.886zM21.038 30.655c-3.63 2.31-5.598 3.892-5.905 4.748-.462 1.282-2.847 8.19-2.806 9.6.04 1.41-.334 4.783 2.08 4.417 2.414-.366 3.03-1.474 3.11-2.524.08-1.05-.956-1.51-.83-2.277.128-.77.624-5.386 1.04-6.047.418-.66 3.863-4.017 4.637-4.274.516-.17 1.08-.53 1.696-1.08l-3.022-2.565z" fill="#424443"/><path d="M20.58 30.437c1.092 2.703 1.92 4.16 2.484 4.37.564.213 2.69-.866 6.374-3.237 1.617-1.888 1.25-3.388-1.1-4.5-.41-.356-2.996.766-7.758 3.367z" fill="#7D1822"/><path d="M22.272 45.754l7.92 1.977c2.966-8.52 4.422-14.273 4.37-17.258-.055-2.984-1.9-4.244-5.537-3.78l-1.933 2.687-4.82 16.374z" fill="#BF2538"/><path d="M30.868 37.79c.353 3.09.776 4.91 1.267 5.457.736.82 2.357 2.03 4.185 2.068 1.218.026 4.09-1.11 8.614-3.405 1.66-.942 2.46-1.98 2.4-3.12-.09-1.705-2.17-3.113-3.77-2.42-1.602.69-1.935 1.704-1.884 2.143.034.293.022.59-.037.894l-4.47 1.512c-1.245.044-1.96-.267-2.14-.935-.184-.668-.4-1.905-.65-3.71l-3.515 1.514z" fill="#303030"/><path d="M29.85 37.714c2.914-.102 4.567-.38 4.96-.84.39-.456.103-2.822-.864-7.096-1.22-2.165-2.756-2.333-4.605-.506-.474.264-.304 3.078.51 8.442z" fill="#D52335"/><g fill-rule="nonzero" fill="#AF7E2A"><path d="M38.086 18.604l-.787-.316-.19-2.268-.094 2.17-2.923-1.186s.61 1.316 1.214 1.61c.425.213 1.676.73 1.676.73l.144 2.317.135-2.194.806.31L41 30l-10.38-7.306s-.48-3.55-1.127-3.08c-.648.47-1.765 1.386-1.765 1.386L25 21.604l1.486-6.146s-.345-6.61 5.428-6.455c5.774.153 5.67 2.37 5.67 2.37l.51-1.495 1.86 12.515-1.03-1.8s.325.183.23-.145c-.095-.328-1.068-1.844-1.068-1.844z"/><path d="M37.538 9.773L46 3.663s-22.984-11.696-24.91 6.71C20.517 15.86 22.86 22 22.86 22l2.4-7.927s2.44-8.99 12.278-4.3z"/></g><g fill-rule="nonzero"><path d="M44.59 39.683c-.462.273-.83.707-.925 1.253-.096.625.176 1.31.71 1.66.186.12.395.2.612.24.893.156 1.745-.44 1.903-1.334.158-.896-.437-1.746-1.332-1.904-.04-.007-.078-.01-.115-.015l-2.216-3.166 1.84-1.29c.204-.14.254-.425.112-.628l-.512-.727c-.142-.203-.426-.253-.63-.11l-5.444 3.815c-.203.142-.253.426-.11.63l.51.728c.142.203.425.253.628.11l1.84-1.29 1.82 2.598.006-.007.074-.076c.103-.095.206-.18.313-.25.188-.122.398-.225.618-.284.146-.046.3-.076.452-.093.108-.012.17-.012.17-.012s-.057.022-.154.068c-.058.024-.114.054-.17.085z" fill="#000"/><path d="M25.903 21.162c.02.32.15.628.37.865l12.665 13.648 1.165-.815-9.61-14.707 10.535 14.06 1.204-.844-8.404-16.616c-.15-.296-.398-.527-.704-.658L26.02 13.1c-.288-.12-.602.1-.583.413l.466 7.65z" fill="#B6B6B6"/></g><path d="M42.055 37.684c-.262 2.755.418 4.132 2.04 4.132 1.623 0 2.673-.727 3.15-2.18-2.062-1.996-3.17-3.172-3.32-3.528-.15-.356-.774.17-1.87 1.576z" fill="#303030"/></g><g transform="translate(496 1)"><circle fill="#845F21" cx="19" cy="47" r="15"/><path d="M7.494 79.94l-.49 4.474 10.455-.052c-.553-1.08-1.757-2.018-3.613-2.82-1.692-.73-1.472-1.04-1.973-1.506-.09-.083-.08-.142.03-.175l-4.41.08zM8.135 64.565l-4.5.06 1.325 10.37c1.004-.68 1.79-1.99 2.358-3.93.518-1.767.854-1.587 1.255-2.14.072-.1.13-.097.178.008l-.615-4.368z" fill="#848484"/><path d="M11.552 45.602c-.987 2.338-.896 4.25.273 5.733 1.127 1.43 1.55 9.302.826 13.877-.66 4.174-5.467 14.198-5.27 14.542.55.96 5.022.54 5.446.25.423-.287 1.4-1.856 2.952-6.004 1.034-2.766 1.965-6.29 2.79-10.57l.688-15.7-7.704-2.128z" fill="#3A3C3B"/><path d="M13.767 33.9c-1.578 4-2.24 6.437-1.987 7.31.38 1.31 2.51 8.3 3.373 9.416.86 1.117 2.54 4.066 4.28 2.35 1.738-1.715 1.585-2.973 1.032-3.87-.553-.895-1.66-.658-2.01-1.354-.347-.696-2.66-4.722-2.71-5.502-.053-.78.762-5.52 1.237-6.183.317-.44.563-1.064.74-1.87l-3.955-.298z" fill="#424443"/><path d="M13.104 33.48c2.417 1.63 3.918 2.375 4.504 2.235.586-.14 1.744-2.222 3.473-6.248.286-2.47-.856-3.508-3.426-3.117-.54-.066-2.056 2.31-4.55 7.13z" fill="#7D1822"/><path d="M8.39 65.208l.475-.965c4.686-.693 7.203-1.615 7.553-2.767.35-1.15-1.138-4.038-4.464-8.66-1.105-4.25-1.356-6.533-.754-6.852.603-.32 3.218.34 7.846 1.975l5.005 12.44c.15 4.214-1.32 6.694-4.404 7.44-4.628 1.116-9.356 2.31-10.43 1.87-.718-.293-1.045-.71-.984-1.25l.157-3.232z" fill="#303030"/><path d="M19.066 38.274l4.64-.756c.247-4.324.238-6.695-.025-7.115-.262-.42-1.59.073-3.983 1.477l-.63 6.394z" fill="#871B28"/><path d="M19.138 25.807l.353-1.415c-3.414-1.96-4.582-4.88-3.502-8.766 1.08-3.884 3.867-5.322 8.36-4.314 2.08.37 3.164 1.428 3.254 3.17.09 1.744.09 3.05 0 3.922.644 1.46.927 2.27.85 2.432-.077.163-.36.508-.85 1.037.14 1.488.14 2.327 0 2.52-.208.287-.67.99-1.55 1.03-.585.026-1.538.04-2.86.04l-.544 2.312-3.807-1.082.298-.886z" fill="#424443"/><path d="M11.345 45.754l7.92 1.977c2.967-8.52 4.422-14.273 4.37-17.258-.055-2.984-1.9-4.244-5.536-3.78l-1.935 2.687-4.82 16.374z" fill="#BF2538"/><path d="M19.304 34.69c-.718 2.836-1.16 4.612-1.328 5.328-.25 1.074-.31 3.095.707 4.615.677 1.013 3.254 2.714 7.73 5.103 1.723.82 3.033.878 3.93.177 1.348-1.05 1.307-3.563-.178-4.478-1.485-.914-2.505-.607-2.836-.313-.22.196-.472.357-.755.483l-3.8-2.794c-1.208-1.444-1.59-2.433-1.148-2.966.443-.533.986-1.902 1.63-4.107l-3.953-1.048z" fill="#303030"/><path d="M18.334 37.33c2.852.605 4.523.734 5.013.385.49-.35.784-2.714.88-7.095-.66-2.396-2.11-2.93-4.346-1.606-.523.14-1.04 2.913-1.546 8.315z" fill="#D82B41"/><g fill-rule="nonzero" fill="#AF7E2A"><path d="M27.086 18.604l-.787-.316-.19-2.268-.094 2.17-2.923-1.186s.61 1.316 1.214 1.61c.425.213 1.676.73 1.676.73l.144 2.317.135-2.194.806.31L30 30l-10.38-7.306s-.48-3.55-1.127-3.08c-.648.47-1.765 1.386-1.765 1.386L14 21.604l1.486-6.146s-.345-6.61 5.428-6.455c5.774.153 5.67 2.37 5.67 2.37l.51-1.495 1.86 12.515-1.03-1.8s.325.183.23-.145c-.095-.328-1.068-1.844-1.068-1.844z"/><path d="M26.538 9.773L35 3.663s-22.984-11.696-24.91 6.71C9.517 15.86 11.86 22 11.86 22l2.4-7.927s2.44-8.99 12.278-4.3z"/></g><g fill-rule="nonzero"><path d="M28.3 47.736c-.488-.232-1.054-.295-1.558-.067-.572.27-.987.877-.978 1.516.003.22.053.44.143.64.37.828 1.34 1.203 2.17.833.83-.37 1.202-1.34.832-2.17-.017-.036-.035-.07-.053-.104l1.386-3.607 2.098.804c.232.088.496-.03.584-.26l.317-.83c.09-.23-.027-.494-.26-.582l-6.207-2.38c-.232-.09-.495.028-.583.26l-.32.83c-.088.23.03.494.26.583l2.098.805-1.136 2.96h.01c.034.008.07.013.104.02.138.03.266.07.384.12.206.087.41.203.58.352.12.095.232.206.33.323.07.083.106.135.106.135s-.05-.036-.142-.09c-.053-.036-.11-.066-.165-.094z" fill="#000"/><path d="M33.203 21.886c-.255.196-.437.475-.51.79l-4.234 18.132 1.327.51 6.82-16.19-5.765 16.595 1.372.526 9.075-16.26c.16-.288.213-.624.15-.95l-1.488-7.566c-.062-.305-.42-.442-.67-.252l-6.08 4.664z" fill="#B6B6B6"/></g><path d="M26 48.696c.677 1.142 1.826 1.713 3.448 1.713 1.623 0 1.95-1.63.985-4.89-1.152.05-1.804-.104-1.955-.46-.15-.355-.977.857-2.478 3.636z" fill="#303030"/></g><g transform="translate(576 1)"><circle fill="#845F21" cx="15" cy="49" r="15"/><path d="M3.734 79.603L.766 82.986 9.36 88.94c.168-1.2-.28-2.66-1.34-4.38-.97-1.57-.61-1.698-.753-2.366-.025-.12.016-.162.125-.127l-3.658-2.464z" fill="#848484"/><path d="M12.7 46.602c-1.065 1.974-1.267 4.21-.606 6.71.564 2.133-.71 8.077-1.435 12.653-.662 4.174-7.45 13.188-7.252 13.532.55.96 4.235 2.772 4.658 2.484.424-.286 3.664-3.505 5.216-7.654 1.035-2.766 2.28-5.953 3.737-9.563l3.383-16.032-7.704-2.128z" fill="#3A3C3B"/><path d="M19.84 74.288l-2.848 3.485 8.797 5.65c.124-1.204-.374-2.648-1.495-4.33-1.02-1.534-.667-1.676-.833-2.34-.03-.118.01-.16.12-.13l-3.742-2.335z" fill="#848484"/><path d="M14.02 33.784c-2.377 3.586-3.53 5.832-3.465 6.74.1 1.358.73 8.638 1.34 9.91.612 1.27 1.642 4.505 3.7 3.19 2.056-1.317 2.168-2.58 1.813-3.57-.355-.993-1.487-.992-1.683-1.745-.196-.753-1.62-5.173-1.51-5.946.113-.774 1.895-5.242 2.498-5.79.4-.366.772-.924 1.11-1.675l-3.804-1.116z" fill="#424443"/><path d="M24.005 65.538l.572-1.297c.183-1.013-.086-1.804-.805-2.37-.72-.567-4.51-3.228-11.37-7.984-.614-4.467-.62-6.86-.017-7.18.602-.32 3.13.426 7.58 2.233l8.94 9.753c1.86 2.03 2.04 4.813.54 8.35-2.245 5.307-4.584 10.133-5.66 9.693-.716-.293-2.1-1.133-4.153-2.52l4.373-8.678z" fill="#303030"/><path d="M13.388 34.48c2.417 1.63 3.918 2.375 4.504 2.235.586-.14 1.743-2.222 3.473-6.248.285-2.47-.858-3.508-3.428-3.117-.54-.066-2.055 2.31-4.55 7.13z" fill="#7D1822"/><path d="M20.2 39.274l4.64-.756c.247-4.324.24-6.695-.024-7.115-.263-.42-1.592.073-3.985 1.477l-.63 6.394z" fill="#871B28"/><path d="M20.273 26.807l.353-1.415c-3.416-1.96-4.583-4.88-3.503-8.766 1.08-3.884 3.867-5.322 8.36-4.314 2.08.37 3.164 1.428 3.254 3.17.09 1.744.09 3.05 0 3.922.644 1.46.927 2.27.85 2.432-.077.163-.36.508-.85 1.037.138 1.488.138 2.327 0 2.52-.208.287-.672.99-1.55 1.03-.585.026-1.54.04-2.86.04l-.545 2.312-3.806-1.082.297-.886z" fill="#424443"/><path d="M12.48 46.754l7.92 1.977c2.966-8.52 4.422-14.273 4.368-17.258-.053-2.984-1.898-4.244-5.535-3.78L17.3 30.38l-4.82 16.374z" fill="#BF2538"/><path d="M19.75 36.24c.09 2.926.154 4.756.192 5.49.056 1.1.555 3.06 1.95 4.24.93.788 3.877 1.713 8.838 2.776 1.882.312 3.158.008 3.827-.913 1.005-1.382.274-3.786-1.406-4.256-1.678-.47-2.575.108-2.81.48-.16.25-.356.474-.593.673l-4.424-1.638c-1.56-1.057-2.2-1.902-1.92-2.536.278-.634.423-2.1.434-4.397l-4.088.08z" fill="#303030"/><path d="M19.386 38.708c2.894.356 4.57.338 5.028-.053.46-.39.545-2.772.258-7.144-.867-2.328-2.357-2.735-4.47-1.22-.51.186-.78 2.992-.816 8.418z" fill="#D82B41"/><g fill-rule="nonzero" fill="#AF7E2A"><path d="M28.086 18.604l-.787-.316-.19-2.268-.094 2.17-2.923-1.186s.61 1.316 1.214 1.61c.425.213 1.676.73 1.676.73l.144 2.317.135-2.194.806.31L31 30l-10.38-7.306s-.48-3.55-1.127-3.08c-.648.47-1.765 1.386-1.765 1.386L15 21.604l1.486-6.146s-.345-6.61 5.428-6.455c5.774.153 5.67 2.37 5.67 2.37l.51-1.495 1.86 12.515-1.03-1.8s.325.183.23-.145c-.095-.328-1.068-1.844-1.068-1.844z"/><path d="M27.538 9.773L36 3.663s-22.984-11.696-24.91 6.71C10.517 15.86 12.86 22 12.86 22l2.4-7.927s2.44-8.99 12.278-4.3z"/></g><g fill-rule="nonzero"><path d="M31.75 47.11c-.454-.288-1.008-.42-1.537-.255-.6.198-1.087.75-1.156 1.386-.024.22 0 .444.064.655.266.866 1.184 1.356 2.053 1.09.87-.266 1.357-1.182 1.09-2.05-.01-.04-.024-.076-.038-.11l1.815-3.412 1.985 1.055c.218.116.494.032.61-.187l.415-.784c.117-.22.033-.494-.186-.61l-5.873-3.12c-.217-.115-.493-.03-.61.187l-.417.786c-.116.218-.032.493.187.61l1.984 1.054-1.488 2.8c.003 0 .006 0 .01.002l.1.03c.133.05.256.103.367.166.194.112.38.253.533.422.107.11.204.233.288.36.06.09.09.147.09.147s-.046-.04-.13-.106c-.05-.042-.102-.08-.154-.113z" fill="#000"/><path d="M39.768 22.05c-.277.165-.49.42-.603.723l-6.41 17.48 1.254.67 8.74-15.24-7.743 15.77 1.297.69 10.99-15.032c.195-.266.288-.593.266-.925l-.555-7.69c-.025-.31-.364-.49-.634-.332L39.77 22.05z" fill="#B6B6B6"/></g><path d="M28.85 48.154c.7.448 1.862.672 3.484.672 1.623 0 2.254-1.417 1.894-4.252-1.274-.382-1.987-.75-2.137-1.107-.15-.355-1.23 1.207-3.24 4.687z" fill="#303030"/></g></g></svg>