<svg width="468" height="73" viewBox="0 0 468 73" xmlns="http://www.w3.org/2000/svg"><g fill="none" fill-rule="evenodd"><path d="M41.682 66.023l1.756 3.8 8.33-5.048c-.96-.595-2.372-.767-4.24-.517-1.702.23-1.676-.125-2.3-.256-.11-.023-.13-.075-.06-.154l-3.486 2.175zM6.307 52.52L2.25 51.49l-1.32 9.65c1.065-.37 2.088-1.36 3.07-2.97.893-1.467 1.15-1.224 1.645-1.626.09-.072.14-.055.158.05l.504-4.077z" fill="#848484"/><path d="M5.98 52.038h9.787c1.658-.324 2.65-1.02 2.976-2.09.327-1.07 1.374-4.25 3.142-9.538.098-2.49.427-3.885.99-4.182.56-.297 2.53.456 5.91 2.26L23.82 51.692c-1.832 3.592-3.978 5.463-6.438 5.613-3.69.224-9.534.918-10.536.51-.668-.274-1.13-.688-1.385-1.245l.52-4.532z" fill="#303030"/><path d="M22.977 19.028c-3.915.864-6.144 1.62-6.686 2.27-.813.973-5.104 6.248-5.518 7.493-.414 1.245-1.818 4.073.414 4.52 2.232.45 3.125-.323 3.53-1.215.403-.892-.357-1.623 0-2.253.355-.63 2.26-4.505 2.837-4.95.576-.445 4.664-2.28 5.424-2.26.506.016 1.116-.12 1.83-.402l-1.83-3.202z" fill="#424443"/><path d="M32.693 28.213c.873 2.758 1.583 4.343 2.13 4.755.82.62 2.518 1.434 4.197 1.145 1.12-.192 3.546-1.737 7.277-4.635 1.35-1.153 1.898-2.244 1.642-3.27-.386-1.542-2.54-2.458-3.882-1.542-1.342.915-1.467 1.898-1.342 2.29.083.26.125.535.125.822l-3.82 2.172c-1.132.263-1.84.105-2.126-.472-.286-.577-.704-1.668-1.254-3.27l-2.947 2.005z" fill="#303030"/><path d="M22.853 35.9c-.463 1.765-.15 3.337.94 4.716 1.636 2.068 16.048 24.168 16.56 25.062.513.894 2.27-.153 2.663-.42.263-.18 1.034-.65 2.312-1.415L30.034 37.88l-7.18-1.98z" fill="#424443"/><path d="M32.63 29.065l3.707-2.332c-1.364-3.79-2.235-5.816-2.614-6.08-.378-.262-1.338.642-2.88 2.712l1.787 5.7z" fill="#871B28"/><path d="M30.176 17.765l.33-1.316c-3.185-1.822-4.274-4.538-3.267-8.15 1.006-3.61 3.604-4.947 7.793-4.01 1.938.345 2.95 1.327 3.033 2.948.084 1.62.084 2.835 0 3.644.6 1.357.864 2.11.792 2.26-.072.152-.336.474-.792.965.13 1.383.13 2.164 0 2.342-.194.266-.626.92-1.445.957-.544.024-1.434.037-2.666.037l-.507 2.15-3.548-1.006.276-.823z" fill="#424443"/><path d="M22.646 36.043l7.385 1.838c2.765-7.92 4.122-13.27 4.072-16.043-.05-2.774-1.77-3.945-5.16-3.513L27.14 20.82l-4.494 15.223z" fill="#BF2538"/><path d="M22.646 18.69c.095 2.71.355 4.246.782 4.61.427.364 2.632.097 6.616-.802 2.018-1.135 2.175-2.562.472-4.28-.246-.442-2.87-.284-7.87.473z" fill="#D82B41"/><g><path d="M86.293 63.415l-.456 4.118 9.61-.06c-.506-.992-1.612-1.856-3.317-2.59-1.554-.67-1.352-.957-1.81-1.385-.084-.077-.074-.13.027-.16l-4.054.077zM72.897 49.74l-3.805-1.64-2.75 9.206c1.095-.193 2.244-.998 3.445-2.414 1.095-1.29 1.31-1.013 1.854-1.327.098-.057.147-.032.147.073l1.11-3.9z" fill="#848484"/><path d="M72.86 49.158l4.882.653c2.988.594 4.643.36 4.964-.7.322-1.062-.07-4.652-1.18-10.773.097-2.468.422-3.85.975-4.143.554-.294 2.495.452 5.824 2.24l-.228 14.32c-1.047 2.884-2.782 4.4-5.206 4.548-3.636.222-8.69-.138-9.678-.544-.658-.27-1.197-.736-1.617-1.397l1.264-4.202z" fill="#303030"/><path d="M82.74 33.87c-.457 1.748-.148 3.305.926 4.67 1.034 1.317 7.35 8.386 6.683 12.6-.607 3.845-4.285 11.792-4.104 12.11.504.884 4.3.758 4.687.493.39-.265 3.152-4.756 4.577-8.577.95-2.548.978-5.2.082-7.958L89.814 35.83l-7.075-1.96z" fill="#3A3C3B"/><path d="M90.43 26.678c.322 2.847.71 4.522 1.16 5.026.676.755 2.164 1.867 3.843 1.902 1.12.024 3.757-1.023 7.913-3.14 1.525-.868 2.26-1.826 2.206-2.873-.08-1.572-1.99-2.867-3.462-2.23-1.47.64-1.777 1.572-1.73 1.976.03.27.02.543-.035.823l-4.105 1.394c-1.144.043-1.8-.244-1.968-.86-.167-.614-.365-1.753-.593-3.416l-3.23 1.398z" fill="#303030"/><path d="M90.463 27.545l4.026-1.572c-.604-3.942-1.063-6.076-1.38-6.403-.316-.327-1.415.37-3.298 2.095l.65 5.88z" fill="#871B28"/><path d="M89.692 15.638l.325-1.303C86.88 12.53 85.807 9.84 86.8 6.26c.99-3.577 3.55-4.902 7.678-3.973 1.91.342 2.905 1.315 2.987 2.92.083 1.606.083 2.81 0 3.612.592 1.343.852 2.09.78 2.24-.07.15-.33.467-.78.954.128 1.37.128 2.144 0 2.32-.19.266-.616.913-1.423.95-.537.024-1.413.036-2.627.036l-.5 2.13-3.495-.996.272-.816z" fill="#424443"/><path d="M82.535 34.01l7.275 1.82c2.723-7.848 4.06-13.146 4.01-15.895-.048-2.75-1.743-3.91-5.082-3.48l-1.776 2.473-4.427 15.082z" fill="#BF2538"/><g><path d="M81.395 20.105c-3.332 2.124-5.14 3.58-5.42 4.366-.424 1.182-2.608 7.54-2.57 8.838.038 1.298-.303 4.403 1.915 4.07 2.218-.336 2.783-1.355 2.855-2.322.07-.967-.88-1.39-.764-2.098.117-.706.57-4.957.95-5.565.384-.608 3.546-3.696 4.257-3.93.473-.158.992-.488 1.557-.992l-2.78-2.365z" fill="#424443"/><path d="M80.975 19.904c1.005 2.49 1.767 3.832 2.285 4.027.52.196 2.47-.796 5.853-2.975 1.484-1.737 1.146-3.118-1.013-4.145-.378-.328-2.753.703-7.125 3.094z" fill="#D82B41"/></g></g><g><path d="M137.033 64.66l-.43 4.15 9.78.023c-.523-1.005-1.655-1.885-3.397-2.64-1.588-.69-1.384-.978-1.855-1.413-.084-.078-.075-.132.027-.163l-4.124.044zM137.63 50.42l-4.17.08 1.17 9.71c.932-.64 1.668-1.873 2.206-3.694.49-1.66.8-1.492 1.175-2.013.068-.094.123-.09.166.007l-.546-4.09z" fill="#848484"/><path d="M137.88 51.09l.448-.89c3.26-.274 5.052-.943 5.38-2.007.33-1.064-.496-3.915-2.48-8.553-1.037-3.926-1.273-6.037-.707-6.332.567-.295 3.024.314 7.372 1.826l4.7 11.495c.14 3.894-1.24 6.185-4.137 6.873-4.347 1.033-8.79 2.137-9.798 1.73-.674-.27-.98-.656-.924-1.155l.148-2.987z" fill="#303030"/><path d="M140.852 32.974c-.927 2.16-.842 3.927.257 5.297 1.057 1.322 1.455 8.597.775 12.825-.62 3.857-5.137 13.12-4.952 13.437.516.888 4.718.498 5.115.232.398-.266 1.315-1.715 2.773-5.55.973-2.555 1.848-5.81 2.624-9.767l.645-14.506-7.238-1.966z" fill="#3A3C3B"/><path d="M148.143 22.76c-.65 2.654-1.05 4.316-1.2 4.986-.225 1.005-.27 2.897.68 4.327.634.953 3.032 2.56 7.193 4.825 1.6.777 2.815.84 3.643.188 1.24-.977 1.19-3.33-.192-4.196-1.38-.865-2.325-.583-2.63-.31-.202.183-.434.332-.695.448l-3.54-2.638c-1.125-1.362-1.485-2.29-1.078-2.787.407-.497.903-1.776 1.487-3.838l-3.67-1.005z" fill="#303030"/><path d="M147.938 26.196l4.344-.675c.207-4.003.186-6.2-.063-6.59-.25-.39-1.492.06-3.726 1.347l-.556 5.92z" fill="#871B28"/><path d="M147.98 14.683l.33-1.308c-3.208-1.81-4.305-4.51-3.29-8.1 1.014-3.59 3.632-4.92 7.854-3.987 1.952.343 2.97 1.32 3.055 2.93.084 1.61.084 2.82 0 3.623.604 1.35.87 2.1.798 2.25-.073.15-.34.468-.8.957.13 1.375.13 2.15 0 2.328-.194.266-.63.916-1.454.952-.55.025-1.446.037-2.688.037l-.51 2.137-3.577-1 .28-.817z" fill="#424443"/><path d="M140.657 33.114l7.442 1.828c2.784-7.875 4.152-13.19 4.1-15.95-.05-2.756-1.782-3.92-5.198-3.49l-1.817 2.48-4.528 15.132z" fill="#BF2538"/><path d="M143.03 22.083c-1.493 3.75-2.126 6.034-1.896 6.848.344 1.22 2.273 7.74 3.065 8.776.792 1.038 2.33 3.782 3.958 2.167 1.627-1.615 1.494-2.79.986-3.624-.507-.834-1.537-.605-1.856-1.253-.32-.648-2.438-4.395-2.48-5.123-.042-.728.748-5.165 1.194-5.787.298-.415.53-1 .7-1.752l-3.67-.252z" fill="#424443"/><path d="M142.337 21.833c2.234 1.505 3.624 2.19 4.17 2.055.545-.135 1.636-2.09 3.273-5.862.283-2.31-.772-3.27-3.163-2.886-.5-.058-1.927 2.173-4.28 6.693z" fill="#D82B41"/></g><g><path d="M381.033 64.66l-.43 4.15 9.78.023c-.523-1.005-1.655-1.885-3.397-2.64-1.588-.69-1.384-.978-1.855-1.413-.084-.078-.075-.132.027-.163l-4.124.044zM381.63 50.42l-4.17.08 1.17 9.71c.932-.64 1.668-1.873 2.206-3.694.49-1.66.8-1.492 1.175-2.013.068-.094.123-.09.166.007l-.546-4.09z" fill="#848484"/><path d="M384.852 32.974c-.927 2.16-.842 3.927.257 5.297 1.057 1.322 1.455 8.597.775 12.825-.62 3.857-5.137 13.12-4.952 13.437.516.888 4.718.498 5.115.232.398-.266 1.315-1.715 2.773-5.55.973-2.555 1.848-5.81 2.624-9.767l.645-14.506-7.238-1.966z" fill="#3A3C3B"/><path d="M387.03 22.083c-1.493 3.75-2.126 6.034-1.896 6.848.344 1.22 2.273 7.74 3.065 8.776.792 1.038 2.33 3.782 3.958 2.167 1.627-1.615 1.494-2.79.986-3.624-.507-.834-1.537-.605-1.856-1.253-.32-.648-2.438-4.395-2.48-5.123-.042-.728.748-5.165 1.194-5.787.298-.415.53-1 .7-1.752l-3.67-.252z" fill="#424443"/><path d="M386.337 21.833c2.234 1.505 3.624 2.19 4.17 2.055.545-.135 1.636-2.09 3.273-5.862.283-2.31-.772-3.27-3.163-2.886-.5-.058-1.927 2.173-4.28 6.693z" fill="#7D1822"/><path d="M381.88 51.09l.448-.89c4.4-.64 6.767-1.493 7.095-2.557.33-1.064-1.07-3.732-4.194-8.003-1.04-3.926-1.275-6.037-.71-6.332.567-.295 3.024.314 7.372 1.826l4.7 11.495c.14 3.894-1.24 6.185-4.137 6.873-4.347 1.033-8.79 2.137-9.798 1.73-.674-.27-.98-.656-.924-1.155l.148-2.987z" fill="#303030"/><path d="M391.938 26.196l4.344-.675c.207-4.003.186-6.2-.063-6.59-.25-.39-1.492.06-3.726 1.347l-.556 5.92z" fill="#871B28"/><path d="M391.98 14.683l.33-1.308c-3.208-1.81-4.305-4.51-3.29-8.1 1.014-3.59 3.632-4.92 7.854-3.987 1.952.343 2.97 1.32 3.055 2.93.084 1.61.084 2.82 0 3.623.604 1.35.87 2.1.798 2.25-.073.15-.34.468-.8.957.13 1.375.13 2.15 0 2.328-.194.266-.63.916-1.454.952-.55.025-1.446.037-2.688.037l-.51 2.137-3.577-1 .28-.817z" fill="#424443"/><path d="M384.657 33.114l7.442 1.828c2.784-7.875 4.152-13.19 4.1-15.95-.05-2.756-1.782-3.92-5.198-3.49l-1.817 2.48-4.528 15.132z" fill="#BF2538"/><path d="M392.143 22.76c-.65 2.654-1.05 4.316-1.2 4.986-.225 1.005-.27 2.897.68 4.327.634.953 3.032 2.56 7.193 4.825 1.6.777 2.815.84 3.643.188 1.24-.977 1.19-3.33-.192-4.196-1.38-.865-2.325-.583-2.63-.31-.202.183-.434.332-.695.448l-3.54-2.638c-1.125-1.362-1.485-2.29-1.078-2.787.407-.497.903-1.776 1.487-3.838l-3.67-1.005z" fill="#303030"/><path d="M391.255 25.402c2.636.558 4.18.673 4.636.343.456-.33.736-2.55.84-6.66-.603-2.248-1.94-2.745-4.014-1.492-.485.134-.972 2.737-1.46 7.81z" fill="#D82B41"/></g><g><path d="M438.436 63.562l-2.75 3.12 7.928 5.458c.157-1.104-.253-2.447-1.23-4.027-.89-1.44-.558-1.56-.69-2.175-.022-.11.016-.15.117-.117l-3.374-2.258z" fill="#848484"/><path d="M446.67 33.007c-.98 1.826-1.164 3.895-.557 6.205.52 1.974-.653 7.473-1.318 11.705-.608 3.862-6.844 12.2-6.664 12.517.507.89 3.893 2.565 4.282 2.3.39-.267 3.367-3.245 4.793-7.082.95-2.56 2.096-5.507 3.434-8.847l3.11-14.83-7.08-1.968z" fill="#3A3C3B"/><path d="M453.237 58.646l-2.64 3.213 8.114 5.177c.12-1.11-.338-2.436-1.37-3.98-.94-1.41-.612-1.54-.764-2.15-.027-.11.01-.15.112-.12l-3.45-2.14z" fill="#848484"/><path d="M447.85 21.176c-2.18 3.3-3.237 5.367-3.173 6.202.096 1.254.7 7.97 1.266 9.143.567 1.175 1.527 4.16 3.42 2.953 1.89-1.207 1.99-2.37 1.66-3.287-.33-.915-1.374-.917-1.557-1.612-.183-.695-1.51-4.774-1.41-5.487.102-.712 1.73-4.827 2.285-5.33.37-.337.71-.85 1.02-1.542l-3.51-1.04z" fill="#424443"/><path d="M457.058 50.522l.527-1.2c.167-.937-.08-1.67-.74-2.193-.662-.525-4.145-2.986-10.45-7.385-.563-4.132-.568-6.346-.015-6.64.554-.297 2.876.392 6.967 2.064l8.216 9.02c1.707 1.878 1.872 4.453.496 7.725-2.066 4.91-4.215 9.373-5.203 8.966-.658-.27-1.93-1.047-3.817-2.33l4.018-8.028z" fill="#303030"/><path d="M447.292 21.77c2.235 1.51 3.623 2.2 4.163 2.072.54-.127 1.603-2.042 3.187-5.745.256-2.274-.802-3.234-3.172-2.88-.498-.063-1.89 2.122-4.178 6.553z" fill="#7D1822"/><path d="M453.552 26.23l4.27-.708c.236-3.996.233-6.187-.008-6.574-.24-.387-1.464.07-3.668 1.373l-.594 5.91z" fill="#871B28"/><path d="M453.63 14.697l.323-1.31c-3.138-1.81-4.21-4.514-3.218-8.108.992-3.594 3.553-4.924 7.683-3.992 1.91.343 2.906 1.32 2.99 2.934.08 1.612.08 2.82 0 3.626.59 1.35.85 2.1.78 2.25-.07.15-.332.47-.78.96.126 1.376.126 2.152 0 2.33-.192.266-.618.916-1.425.953-.538.025-1.414.037-2.63.037l-.5 2.14-3.497-1 .273-.82z" fill="#424443"/><path d="M446.467 33.147l7.28 1.83c2.725-7.883 4.062-13.205 4.013-15.965-.05-2.76-1.745-3.926-5.086-3.496L450.897 18l-4.43 15.147z" fill="#BF2538"/><path d="M453.145 23.466c.075 2.695.13 4.38.16 5.057.05 1.015.504 2.818 1.788 3.902.856.723 3.57 1.566 8.144 2.53 1.735.283 2.913-.002 3.534-.853.93-1.276.264-3.488-1.284-3.916-1.548-.428-2.376.106-2.596.45-.146.23-.33.438-.548.622l-4.076-1.496c-1.435-.97-2.022-1.746-1.764-2.33.26-.586.397-1.937.415-4.054l-3.772.088z" fill="#303030"/><path d="M452.8 25.676c2.678.33 4.228.315 4.652-.044.423-.358.5-2.547.23-6.566-.803-2.142-2.18-2.517-4.133-1.126-.473.17-.722 2.75-.75 7.736z" fill="#D82B41"/></g><g><path d="M194.43 62.243l-2.75 3.113 7.916 5.442c.157-1.102-.252-2.44-1.227-4.017-.89-1.436-.558-1.556-.688-2.17-.023-.11.016-.147.116-.115l-3.37-2.252zM209.453 57.593l-2.638 3.208 8.1 5.163c.12-1.107-.337-2.43-1.366-3.972-.94-1.404-.612-1.535-.763-2.144-.027-.108.01-.15.11-.12l-3.444-2.133z" fill="#848484"/><path d="M213.264 49.472l.525-1.2c.423-1.143.305-1.977-.355-2.5-.66-.524-3.7-3.212-9.118-8.064-1.85-3.305-2.5-5.105-1.947-5.4.552-.295 2.95.314 7.192 1.826l8.195 9.013c1.704 1.875 1.87 4.447.496 7.716-2.06 4.903-4.204 9.363-5.19 8.957-.656-.272-1.926-1.048-3.807-2.33l4.008-8.018z" fill="#303030"/><path d="M202.64 31.974c-.975 1.825-1.16 3.89-.554 6.2.517 1.97-.65 7.464-1.315 11.692-.605 3.857-6.827 12.186-6.646 12.504.504.89 3.882 2.562 4.27 2.296.388-.266 3.36-3.24 4.78-7.074.95-2.555 2.092-5.5 3.426-8.837l3.103-14.814-7.062-1.966z" fill="#3A3C3B"/><path d="M208.84 22.19c.073 2.69.125 4.372.157 5.048.048 1.012.5 2.812 1.78 3.893.855.722 3.565 1.562 8.13 2.52 1.733.282 2.91-.003 3.53-.853.93-1.275.265-3.482-1.28-3.908-1.546-.427-2.373.107-2.593.45-.146.23-.328.437-.547.62l-4.07-1.49c-1.43-.965-2.017-1.74-1.758-2.325.258-.584.397-1.932.415-4.045l-3.765.09z" fill="#303030"/><path d="M209.504 25.205l4.26-.71c.24-3.99.237-6.18-.003-6.566-.24-.387-1.46.07-3.66 1.373l-.596 5.902z" fill="#871B28"/><path d="M209.583 13.683l.324-1.308c-3.13-1.81-4.2-4.51-3.21-8.1.99-3.59 3.544-4.92 7.663-3.987 1.905.343 2.9 1.32 2.982 2.93.083 1.61.083 2.82 0 3.623.59 1.35.85 2.1.78 2.25-.072.15-.33.468-.78.957.127 1.375.127 2.15 0 2.328-.19.266-.615.916-1.42.952-.537.025-1.41.037-2.623.037l-.5 2.137-3.49-1 .273-.817z" fill="#424443"/><path d="M202.44 32.114l7.26 1.828c2.72-7.875 4.053-13.19 4.004-15.95-.05-2.756-1.74-3.92-5.074-3.49l-1.772 2.48-4.42 15.132z" fill="#BF2538"/><path d="M204.07 19.898c-2.172 3.292-3.226 5.356-3.162 6.19.097 1.252.705 7.956 1.27 9.128.567 1.173 1.527 4.153 3.415 2.95 1.888-1.205 1.987-2.366 1.657-3.28-.33-.914-1.372-.917-1.556-1.61-.183-.695-1.51-4.768-1.41-5.48.1-.71 1.724-4.817 2.276-5.32.368-.335.707-.848 1.016-1.538l-3.505-1.04z" fill="#424443"/><path d="M203.26 20.744c2.232 1.507 3.618 2.197 4.157 2.07.54-.126 1.6-2.037 3.18-5.732.253-2.268-.804-3.227-3.17-2.876-.498-.063-1.887 2.117-4.168 6.538z" fill="#D82B41"/></g><g><path d="M284.682 66.023l1.756 3.8 8.33-5.048c-.96-.595-2.372-.767-4.24-.517-1.702.23-1.676-.125-2.3-.256-.11-.023-.13-.075-.06-.154l-3.486 2.175zM249.307 52.52l-4.058-1.028-1.32 9.65c1.065-.37 2.088-1.36 3.07-2.97.893-1.467 1.15-1.224 1.645-1.626.09-.072.14-.055.158.05l.504-4.077z" fill="#848484"/><path d="M265.977 19.028c-3.915.864-6.144 1.62-6.686 2.27-.813.973-5.104 6.248-5.518 7.493-.414 1.245-1.818 4.073.414 4.52 2.232.45 3.125-.323 3.53-1.215.403-.892-.357-1.623 0-2.253.355-.63 2.26-4.505 2.837-4.95.576-.445 4.664-2.28 5.424-2.26.506.016 1.116-.12 1.83-.402l-1.83-3.202zM265.853 35.9c-.463 1.765-.15 3.337.94 4.716 1.636 2.068 16.048 24.168 16.56 25.062.513.894 2.27-.153 2.663-.42.263-.18 1.034-.65 2.312-1.415L273.034 37.88l-7.18-1.98z" fill="#424443"/><path d="M248.98 52.038h9.787c1.658-.324 2.65-1.02 2.976-2.09.327-1.07 1.374-4.25 3.142-9.538.098-2.49.427-3.885.99-4.182.56-.297 2.704.153 6.43 1.348l-5.485 14.116c-1.832 3.592-3.978 5.463-6.438 5.613-3.69.224-9.534.918-10.536.51-.668-.274-1.13-.688-1.385-1.245l.52-4.532z" fill="#303030"/><path d="M273.176 17.765l.33-1.316c-3.185-1.822-4.274-4.538-3.267-8.15 1.006-3.61 3.604-4.947 7.793-4.01 1.938.345 2.95 1.327 3.033 2.948.084 1.62.084 2.835 0 3.644.6 1.357.864 2.11.792 2.26-.072.152-.336.474-.792.965.13 1.383.13 2.164 0 2.342-.194.266-.626.92-1.445.957-.544.024-1.434.037-2.666.037l-.507 2.15-3.548-1.006.276-.823z" fill="#424443"/><path d="M265.646 18.69c.095 2.71.355 4.246.782 4.61.427.364 2.632.097 6.616-.802 2.018-1.135 2.175-2.562.472-4.28-.246-.442-2.87-.284-7.87.473z" fill="#7D1822"/><path d="M265.646 36.043l7.385 1.838c2.765-7.92 4.122-13.27 4.072-16.043-.05-2.774-1.77-3.945-5.16-3.513l-1.803 2.497-4.494 15.223z" fill="#BF2538"/><path d="M275.693 28.213c.873 2.758 1.583 4.343 2.13 4.755.82.62 2.518 1.434 4.197 1.145 1.12-.192 3.546-1.737 7.277-4.635 1.35-1.153 1.898-2.244 1.642-3.27-.386-1.542-2.54-2.458-3.882-1.542-1.342.915-1.467 1.898-1.342 2.29.083.26.125.535.125.822l-3.82 2.172c-1.132.263-1.84.105-2.126-.472-.286-.577-.704-1.668-1.254-3.27l-2.947 2.005z" fill="#303030"/><path d="M275.38 28.636c2.494-1.06 3.835-1.853 4.022-2.382.187-.53-.853-2.492-3.12-5.89-1.783-1.476-3.17-1.112-4.165 1.095-.324.386.763 2.78 3.263 7.176z" fill="#D82B41"/></g><g><path d="M330.737 63.365l-.428 4.136 9.745.022c-.52-1-1.65-1.878-3.386-2.63-1.583-.688-1.38-.975-1.85-1.41-.084-.076-.075-.13.027-.16l-4.11.043zM317.08 49.675l-3.83-1.618-2.87 9.314c1.11-.205 2.278-1.028 3.506-2.468 1.12-1.312 1.334-1.034 1.886-1.356.1-.058.148-.034.147.073l1.16-3.945z" fill="#848484"/><path d="M327.122 33.87c-.465 1.748-.15 3.305.944 4.67 1.055 1.317 7.492 8.386 6.814 12.6-.62 3.845-4.368 11.792-4.184 12.11.515.884 4.383.758 4.78.493.395-.265 3.212-4.756 4.665-8.577.97-2.548.997-5.2.084-7.958l-5.89-11.377-7.212-1.96z" fill="#3A3C3B"/><path d="M317.05 49.158l4.978.653c3.046.594 4.732.36 5.06-.7.328-1.062-.073-4.652-1.202-10.773.098-2.468.43-3.85.993-4.143.563-.294 2.603.092 6.12 1.16l-.418 15.4c-1.067 2.884-2.836 4.4-5.306 4.548-3.707.222-8.86-.138-9.866-.544-.67-.27-1.22-.736-1.648-1.397l1.29-4.202z" fill="#303030"/><path d="M334.21 15.638l.33-1.303c-3.197-1.805-4.29-4.496-3.28-8.074 1.012-3.577 3.62-4.902 7.828-3.973 1.946.342 2.96 1.315 3.045 2.92.085 1.606.085 2.81 0 3.612.603 1.343.868 2.09.796 2.24-.073.15-.338.467-.797.954.13 1.37.13 2.144 0 2.32-.194.266-.628.913-1.45.95-.548.024-1.44.036-2.68.036l-.508 2.13-3.563-.996.278-.816zM325.8 20.073c-3.404 2.15-5.25 3.618-5.542 4.41-.438 1.185-2.7 7.57-2.67 8.872.032 1.3-.334 4.415 1.924 4.066 2.258-.35 2.84-1.374 2.918-2.343.08-.97-.886-1.39-.763-2.098.122-.71.608-4.972 1-5.584.393-.612 3.63-3.727 4.353-3.967.483-.16 1.013-.496 1.59-1.004l-2.81-2.353z" fill="#424443"/><path d="M325.342 19.927c1.007 2.49 1.774 3.83 2.3 4.023.525.192 2.516-.814 5.97-3.02 1.52-1.75 1.186-3.132-1.004-4.147-.382-.327-2.804.72-7.266 3.144z" fill="#7D1822"/><path d="M326.914 34.01l7.416 1.82c2.776-7.848 4.14-13.146 4.088-15.895-.05-2.75-1.777-3.91-5.18-3.48l-1.812 2.473-4.512 15.082z" fill="#BF2538"/><path d="M334.958 26.65c.34 2.85.74 4.528 1.2 5.034.692.758 2.212 1.876 3.922 1.918 1.14.027 3.824-1.01 8.05-3.114 1.55-.863 2.296-1.82 2.237-2.867-.088-1.572-2.04-2.875-3.535-2.242-1.496.633-1.805 1.565-1.756 1.97.033.27.022.545-.032.824l-4.177 1.38c-1.165.04-1.834-.25-2.007-.866-.173-.616-.378-1.757-.617-3.422l-3.285 1.387z" fill="#303030"/><path d="M334.042 26.678c2.684-.095 4.206-.357 4.567-.785.36-.428.094-2.643-.796-6.644-1.125-2.028-2.54-2.186-4.242-.475-.437.247-.28 2.88.47 7.903z" fill="#D52335"/></g></g></svg>