<svg width="717" height="105" viewBox="0 0 717 105" xmlns="http://www.w3.org/2000/svg"><g fill="none" fill-rule="evenodd"><path d="M59.803 95.958l2.547 5.527 12.08-7.34c-1.39-.867-3.44-1.118-6.148-.753-2.47.333-2.432-.182-3.336-.373-.162-.035-.19-.11-.087-.225l-5.057 3.163zM8.5 76.334l-5.897-1.5-1.898 14.01c1.548-.537 3.032-1.972 4.454-4.306 1.294-2.13 1.67-1.776 2.388-2.358.128-.104.204-.08.23.073l.722-5.92z" fill="#848484"/><path d="M8.023 75.62h14.195c2.404-.472 3.843-1.486 4.316-3.043.474-1.557 1.993-6.18 4.557-13.87.143-3.624.62-5.65 1.435-6.083.815-.43 3.672.664 8.573 3.287l-7.2 19.205c-2.657 5.225-5.77 7.946-9.338 8.163-5.352.326-13.827 1.336-15.28.74-.97-.396-1.64-1-2.01-1.808l.753-6.59z" fill="#303030"/><path d="M32.674 27.608c-5.678 1.257-8.91 2.357-9.697 3.3-1.18 1.417-7.403 9.09-8.003 10.9-.6 1.81-2.636 5.922.6 6.573 3.237.653 4.532-.47 5.118-1.767.586-1.297-.516-2.36 0-3.276.516-.916 3.28-6.552 4.116-7.2.835-.646 6.765-3.318 7.866-3.286.735.023 1.62-.172 2.654-.584l-2.654-4.658z" fill="#424443"/><path d="M46.766 40.968c1.266 4.01 2.296 6.316 3.09 6.915 1.188.9 3.65 2.085 6.086 1.666 1.624-.28 5.142-2.528 10.554-6.743 1.96-1.677 2.753-3.263 2.38-4.757-.557-2.242-3.682-3.573-5.628-2.242-1.946 1.33-2.127 2.76-1.946 3.33.12.38.18.78.18 1.197l-5.54 3.16c-1.64.38-2.67.152-3.084-.688-.415-.84-1.02-2.425-1.818-4.757l-4.274 2.918z" fill="#303030"/><path d="M32.495 52.15c-.67 2.565-.217 4.85 1.364 6.856 2.37 3.008 23.273 35.15 24.016 36.45.744 1.3 3.29-.222 3.862-.61.382-.26 1.5-.947 3.352-2.06l-22.18-37.76-10.415-2.877z" fill="#424443"/><path d="M46.674 42.207l5.376-3.393c-1.977-5.51-3.24-8.457-3.79-8.84-.55-.383-1.94.93-4.178 3.942l2.592 8.29z" fill="#871B28"/><path d="M43.115 25.77l.477-1.912c-4.617-2.65-6.196-6.6-4.736-11.85 1.46-5.253 5.228-7.198 11.304-5.835 2.81.502 4.276 1.93 4.398 4.288.122 2.357.122 4.124 0 5.3.87 1.974 1.253 3.07 1.15 3.29-.105.22-.488.687-1.15 1.4.187 2.013.187 3.15 0 3.408-.28.388-.908 1.34-2.095 1.393-.79.036-2.08.054-3.87.054l-.734 3.127-5.147-1.462.402-1.197z" fill="#424443"/><path d="M32.195 52.355l10.71 2.673c4.01-11.52 5.977-19.3 5.904-23.334-.074-4.034-2.568-5.737-7.484-5.11l-2.615 3.633-6.515 22.138z" fill="#BF2538"/><path d="M32.195 27.12c.137 3.938.515 6.172 1.134 6.702.617.53 3.816.14 9.594-1.167 2.927-1.65 3.155-3.726.684-6.226-.356-.643-4.16-.413-11.413.69z" fill="#D82B41"/><g><path d="M130.52 92.44l-.663 6.047 14.136-.07c-.746-1.458-2.374-2.73-4.883-3.81-2.288-.988-1.99-1.41-2.668-2.04-.12-.11-.107-.19.04-.236l-5.962.11zM110.8 72.36l-5.59-2.402-4.067 13.54c1.613-.288 3.304-1.473 5.072-3.557 1.613-1.898 1.93-1.49 2.73-1.954.142-.082.214-.046.214.11l1.64-5.735z" fill="#848484"/><path d="M110.746 71.522l7.187.96c4.4.87 6.835.525 7.31-1.032.472-1.557-.107-6.827-1.738-15.81.142-3.624.62-5.652 1.435-6.083.814-.432 3.672.664 8.572 3.286l-.336 21.022c-1.54 4.234-4.095 6.46-7.664 6.676-5.352.327-12.793-.202-14.247-.797-.968-.397-1.762-1.08-2.38-2.05l1.86-6.17z" fill="#303030"/><path d="M125.29 49.082c-.67 2.565-.217 4.85 1.364 6.856 1.524 1.932 10.82 12.31 9.84 18.495-.894 5.643-6.308 17.307-6.042 17.772.743 1.3 6.33 1.116 6.9.727.573-.39 4.64-6.982 6.74-12.59 1.4-3.74 1.44-7.634.12-11.68l-8.507-16.702-10.415-2.878z" fill="#3A3C3B"/><path d="M136.612 38.52c.478 4.178 1.05 6.638 1.712 7.377.996 1.11 3.187 2.744 5.66 2.797 1.646.035 5.528-1.5 11.645-4.604 2.242-1.273 3.324-2.678 3.243-4.216-.12-2.307-2.933-4.21-5.097-3.274-2.165.935-2.615 2.304-2.546 2.897.046.396.03.8-.05 1.21l-6.042 2.043c-1.684.062-2.65-.36-2.897-1.262-.246-.904-.538-2.576-.875-5.017l-4.753 2.05z" fill="#303030"/><path d="M136.662 39.79l5.925-2.303c-.89-5.787-1.568-8.92-2.034-9.4-.466-.482-2.084.543-4.854 3.07l.962 8.634z" fill="#871B28"/><path d="M135.527 22.32l.477-1.913c-4.618-2.65-6.196-6.6-4.736-11.85 1.46-5.253 5.228-7.198 11.304-5.835 2.81.502 4.276 1.93 4.397 4.287.12 2.356.12 4.123 0 5.3.87 1.973 1.253 3.07 1.15 3.29-.106.22-.49.686-1.15 1.4.187 2.012.187 3.148 0 3.407-.28.388-.908 1.34-2.095 1.393-.792.035-2.08.053-3.87.053l-.734 3.127-5.145-1.463.402-1.197z" fill="#424443"/><path d="M124.99 49.287l10.71 2.674c4.01-11.52 5.977-19.298 5.904-23.333-.072-4.035-2.567-5.738-7.483-5.11l-2.614 3.632-6.516 22.137z" fill="#BF2538"/><g><path d="M123.32 28.874c-4.905 3.123-7.566 5.262-7.982 6.42-.624 1.733-3.848 11.07-3.794 12.977.055 1.907-.45 6.468 2.813 5.973 3.264-.494 4.098-1.992 4.205-3.412.107-1.418-1.293-2.04-1.12-3.077.17-1.038.842-7.28 1.405-8.173.563-.894 5.222-5.432 6.268-5.78.697-.23 1.46-.716 2.293-1.456l-4.087-3.47z" fill="#424443"/><path d="M122.703 28.58c1.477 3.653 2.596 5.623 3.358 5.91.764.285 3.636-1.174 8.62-4.38 2.184-2.55 1.69-4.58-1.487-6.083-.555-.482-4.052 1.036-10.49 4.552z" fill="#D82B41"/></g></g><g><path d="M210.278 93.972l-.663 6.05 14.136-.07c-.745-1.46-2.373-2.73-4.883-3.812-2.287-.987-1.99-1.408-2.667-2.038-.12-.113-.108-.192.04-.237l-5.962.107zM211.144 73.186l-6.084.08 1.793 14.02c1.356-.917 2.42-2.688 3.187-5.31.7-2.39 1.155-2.148 1.697-2.896.097-.134.178-.13.24.01l-.833-5.904z" fill="#848484"/><path d="M211.49 74.056l.64-1.305c4.692-.4 7.274-1.38 7.747-2.935.473-1.557-.717-5.728-3.57-12.513-1.493-5.745-1.833-8.833-1.018-9.265.813-.432 4.35.46 10.606 2.67l6.767 16.82c.2 5.698-1.785 9.05-5.956 10.058-6.257 1.51-12.65 3.125-14.102 2.53-.97-.396-1.412-.96-1.33-1.69l.214-4.37z" fill="#303030"/><path d="M215.764 47.548c-1.334 3.162-1.21 5.745.37 7.75 1.523 1.933 2.096 12.577 1.117 18.763-.893 5.644-7.392 19.195-7.126 19.66.743 1.3 6.79.73 7.362.34.572-.388 1.893-2.51 3.99-8.118 1.4-3.74 2.658-8.503 3.776-14.292l.927-21.224-10.416-2.878z" fill="#3A3C3B"/><path d="M226.245 32.794c-.97 3.835-1.57 6.237-1.795 7.205-.337 1.45-.42 4.183.955 6.238.916 1.37 4.4 3.67 10.45 6.9 2.33 1.107 4.102 1.187 5.316.24 1.82-1.423 1.767-4.82-.24-6.055-2.01-1.237-3.39-.82-3.835-.423-.298.264-.638.482-1.02.652l-5.14-3.777c-1.63-1.954-2.147-3.292-1.55-4.012.6-.72 1.334-2.57 2.204-5.552l-5.345-1.416z" fill="#303030"/><path d="M225.923 37.64l6.274-1.02c.333-5.847.322-9.053-.034-9.62-.356-.567-2.152.1-5.387 1.996l-.853 8.644z" fill="#871B28"/><path d="M226.02 20.786l.478-1.913c-4.617-2.65-6.196-6.6-4.736-11.85 1.46-5.253 5.228-7.198 11.304-5.835 2.81.502 4.276 1.93 4.398 4.288.122 2.356.122 4.123 0 5.3.87 1.973 1.253 3.07 1.15 3.29-.105.22-.488.686-1.15 1.4.187 2.012.187 3.148 0 3.407-.28.39-.908 1.34-2.095 1.393-.792.036-2.082.053-3.87.053l-.734 3.126-5.147-1.462.4-1.198z" fill="#424443"/><path d="M215.484 47.753l10.71 2.674c4.01-11.52 5.977-19.3 5.905-23.334-.074-4.035-2.568-5.738-7.485-5.11L222 25.616l-6.516 22.138z" fill="#BF2538"/><path d="M218.76 31.726c-2.135 5.41-3.03 8.705-2.687 9.884.514 1.77 3.395 11.22 4.56 12.73 1.164 1.51 3.436 5.497 5.786 3.178 2.35-2.318 2.142-4.02 1.394-5.23-.748-1.213-2.245-.893-2.716-1.833-.47-.94-3.597-6.385-3.666-7.44-.07-1.053 1.03-7.463 1.674-8.358.428-.596.76-1.44.998-2.527l-5.345-.404z" fill="#424443"/><path d="M217.863 31.16c3.267 2.203 5.297 3.21 6.09 3.022.79-.19 2.357-3.006 4.695-8.45.385-3.337-1.16-4.74-4.634-4.212-.73-.09-2.78 3.124-6.15 9.64z" fill="#D82B41"/></g><g><path d="M587.594 94.356l-.663 6.05 14.136-.072c-.745-1.458-2.373-2.728-4.883-3.81-2.288-.987-1.99-1.41-2.667-2.038-.12-.113-.108-.192.04-.237l-5.962.106zM588.46 73.57l-6.084.078 1.792 14.022c1.357-.918 2.42-2.688 3.188-5.31.7-2.392 1.155-2.148 1.697-2.897.097-.134.177-.13.24.012l-.833-5.905z" fill="#848484"/><path d="M593.08 47.93c-1.334 3.163-1.21 5.747.37 7.752 1.523 1.932 2.096 12.576 1.116 18.762-.893 5.644-7.392 19.195-7.126 19.66.743 1.3 6.79.73 7.362.34.572-.39 1.893-2.51 3.99-8.12 1.4-3.738 2.658-8.502 3.775-14.29l.928-21.225-10.415-2.88z" fill="#3A3C3B"/><path d="M596.075 32.11c-2.134 5.41-3.03 8.704-2.686 9.884.513 1.77 3.394 11.22 4.558 12.73 1.165 1.51 3.436 5.497 5.786 3.178 2.35-2.32 2.144-4.02 1.396-5.232-.748-1.21-2.245-.89-2.716-1.832-.47-.94-3.597-6.384-3.667-7.438-.07-1.054 1.032-7.464 1.675-8.36.428-.596.76-1.438.998-2.526l-5.345-.405z" fill="#424443"/><path d="M595.18 31.543c3.266 2.204 5.296 3.21 6.088 3.022.792-.19 2.357-3.005 4.696-8.448.385-3.338-1.16-4.743-4.634-4.213-.73-.09-2.78 3.124-6.15 9.64z" fill="#7D1822"/><path d="M588.804 74.44l.643-1.306c6.335-.937 9.74-2.184 10.212-3.74.473-1.557-1.54-5.46-6.037-11.71-1.494-5.744-1.833-8.832-1.02-9.263.816-.43 4.352.46 10.61 2.672l6.766 16.82c.2 5.696-1.787 9.05-5.958 10.056-6.256 1.51-12.648 3.126-14.1 2.53-.97-.396-1.413-.96-1.33-1.69l.212-4.37z" fill="#303030"/><path d="M603.24 38.024l6.273-1.022c.333-5.846.32-9.052-.034-9.618-.357-.567-2.153.098-5.388 1.996l-.853 8.644z" fill="#871B28"/><path d="M603.337 21.17l.477-1.914c-4.618-2.648-6.196-6.6-4.736-11.85 1.46-5.253 5.228-7.197 11.304-5.834 2.81.5 4.276 1.93 4.398 4.287.12 2.356.12 4.123 0 5.3.87 1.973 1.253 3.07 1.15 3.29-.105.218-.49.685-1.15 1.4.187 2.012.187 3.147 0 3.406-.28.39-.908 1.34-2.095 1.393-.79.035-2.08.053-3.87.053l-.734 3.127-5.145-1.463.402-1.197z" fill="#424443"/><path d="M592.8 48.137l10.71 2.673c4.01-11.52 5.977-19.3 5.904-23.334-.072-4.034-2.567-5.737-7.483-5.11L599.318 26 592.8 48.136z" fill="#BF2538"/><path d="M603.56 33.177c-.97 3.836-1.57 6.237-1.794 7.206-.338 1.452-.42 4.184.955 6.238.917 1.37 4.4 3.67 10.452 6.9 2.33 1.108 4.1 1.188 5.314.24 1.82-1.42 1.766-4.817-.24-6.054-2.01-1.236-3.39-.82-3.835-.423-.297.265-.637.482-1.02.652l-5.138-3.776c-1.632-1.956-2.15-3.293-1.55-4.013.598-.72 1.332-2.57 2.203-5.552l-5.344-1.418z" fill="#303030"/><path d="M602.25 36.747c3.854.82 6.114.993 6.777.52.664-.47 1.06-3.668 1.19-9.59-.894-3.24-2.853-3.964-5.876-2.17-.708.19-1.405 3.936-2.09 11.24z" fill="#D82B41"/></g><g><path d="M674.155 92.164l-4.012 4.575 11.62 8.05c.225-1.623-.38-3.598-1.815-5.924-1.308-2.12-.823-2.295-1.016-3.2-.035-.16.022-.218.17-.17l-4.947-3.332z" fill="#848484"/><path d="M686.276 47.548c-1.44 2.67-1.712 5.693-.82 9.07.764 2.885-.96 10.922-1.94 17.108-.892 5.644-10.068 17.83-9.802 18.295.743 1.3 5.726 3.75 6.298 3.36.573-.39 4.954-4.74 7.052-10.35 1.4-3.74 3.083-8.048 5.052-12.93l4.575-21.674-10.414-2.878z" fill="#3A3C3B"/><path d="M695.93 84.98l-3.85 4.71 11.894 7.64c.168-1.63-.505-3.58-2.02-5.856-1.382-2.073-.903-2.265-1.127-3.16-.04-.162.014-.22.163-.178l-5.06-3.157z" fill="#848484"/><path d="M688.06 30.22c-3.212 4.847-4.773 7.884-4.683 9.11.136 1.837.988 11.68 1.813 13.4.826 1.718 2.22 6.09 5 4.31 2.78-1.78 2.932-3.486 2.452-4.827-.48-1.34-2.01-1.34-2.275-2.356-.265-1.018-2.192-6.993-2.04-8.04.15-1.044 2.56-7.085 3.375-7.827.543-.495 1.044-1.25 1.502-2.264l-5.144-1.507z" fill="#424443"/><path d="M701.56 73.15l.775-1.754c.247-1.372-.116-2.44-1.09-3.207-.973-.767-6.096-4.364-15.37-10.793-.83-6.04-.84-9.276-.024-9.708.815-.432 4.232.574 10.25 3.018l12.088 13.188c2.51 2.743 2.755 6.506.73 11.29-3.038 7.173-6.2 13.698-7.653 13.103-.97-.397-2.84-1.533-5.617-3.407l5.913-11.734z" fill="#303030"/><path d="M687.207 31.16c3.267 2.203 5.297 3.21 6.09 3.022.79-.19 2.357-3.006 4.695-8.45.385-3.337-1.16-4.74-4.634-4.212-.73-.09-2.78 3.124-6.15 9.64z" fill="#7D1822"/><path d="M696.417 37.64l6.275-1.02c.332-5.847.32-9.053-.035-9.62-.356-.567-2.15.1-5.387 1.996l-.853 8.644z" fill="#871B28"/><path d="M696.515 20.786l.477-1.913c-4.617-2.65-6.196-6.6-4.735-11.85 1.46-5.253 5.228-7.198 11.304-5.835 2.81.502 4.276 1.93 4.398 4.288.122 2.356.122 4.123 0 5.3.87 1.973 1.254 3.07 1.15 3.29-.105.22-.488.686-1.15 1.4.187 2.012.187 3.148 0 3.407-.28.39-.907 1.34-2.095 1.393-.79.036-2.08.053-3.868.053l-.735 3.126-5.146-1.462.4-1.198z" fill="#424443"/><path d="M685.98 47.753l10.708 2.674c4.01-11.52 5.978-19.3 5.905-23.334-.073-4.035-2.567-5.738-7.483-5.11l-2.615 3.632-6.516 22.138z" fill="#BF2538"/><path d="M695.807 33.54c.123 3.955.21 6.43.26 7.42.076 1.49.75 4.14 2.638 5.735 1.258 1.064 5.24 2.315 11.948 3.75 2.544.424 4.27.013 5.175-1.233 1.358-1.87.37-5.118-1.9-5.753-2.272-.636-3.484.144-3.804.65-.213.336-.48.638-.8.907l-5.98-2.214c-2.108-1.43-2.974-2.572-2.597-3.43.377-.856.572-2.838.588-5.943l-5.528.11z" fill="#303030"/><path d="M695.317 36.876c3.912.48 6.178.457 6.798-.072.62-.528.736-3.747.348-9.66-1.173-3.148-3.187-3.698-6.042-1.65-.69.253-1.057 4.046-1.103 11.382z" fill="#D82B41"/></g><g><path d="M296.84 91.014l-4.013 4.574 11.62 8.05c.225-1.622-.38-3.596-1.815-5.922-1.308-2.12-.822-2.295-1.016-3.2-.034-.16.022-.218.17-.17l-4.946-3.332zM318.998 84.212l-3.85 4.712 11.893 7.64c.17-1.63-.503-3.582-2.02-5.856-1.38-2.074-.9-2.266-1.126-3.162-.04-.16.014-.22.163-.177l-5.06-3.158z" fill="#848484"/><path d="M324.628 72.382l.775-1.753c.625-1.675.45-2.895-.522-3.66-.972-.767-5.455-4.7-13.448-11.8-2.73-4.835-3.686-7.468-2.872-7.9.815-.43 4.35.46 10.608 2.67l12.087 13.19c2.512 2.742 2.756 6.505.73 11.288-3.037 7.174-6.2 13.7-7.652 13.104-.97-.396-2.84-1.532-5.617-3.406l5.912-11.734z" fill="#303030"/><path d="M308.96 46.78c-1.44 2.67-1.712 5.694-.82 9.07.764 2.887-.96 10.924-1.938 17.11-.894 5.643-10.07 17.83-9.804 18.294.743 1.3 5.726 3.75 6.3 3.36.57-.39 4.952-4.742 7.05-10.35 1.4-3.74 3.083-8.05 5.052-12.93l4.575-21.675-10.415-2.88z" fill="#3A3C3B"/><path d="M318.108 32.39c.123 3.955.21 6.428.26 7.42.076 1.49.75 4.138 2.638 5.735 1.258 1.064 5.24 2.314 11.948 3.75 2.544.424 4.27.012 5.174-1.233 1.36-1.87.37-5.118-1.9-5.753-2.27-.636-3.483.144-3.803.65-.213.335-.48.638-.8.907l-5.98-2.214c-2.11-1.43-2.974-2.572-2.597-3.43.376-.857.572-2.838.587-5.943l-5.527.11z" fill="#303030"/><path d="M319.102 36.874l6.274-1.022c.333-5.846.32-9.052-.035-9.62-.354-.566-2.15.1-5.385 1.997l-.853 8.644z" fill="#871B28"/><path d="M319.2 20.02l.477-1.914c-4.618-2.65-6.196-6.6-4.736-11.85 1.46-5.253 5.23-7.198 11.305-5.835 2.81.503 4.276 1.932 4.397 4.29.122 2.355.122 4.122 0 5.3.87 1.972 1.254 3.07 1.15 3.288-.105.22-.488.687-1.15 1.4.188 2.013.188 3.15 0 3.408-.28.39-.907 1.34-2.094 1.393-.792.035-2.08.053-3.87.053l-.734 3.126-5.146-1.463.402-1.198z" fill="#424443"/><path d="M308.663 46.986l10.71 2.674c4.01-11.52 5.977-19.3 5.904-23.334-.072-4.035-2.567-5.738-7.483-5.11l-2.615 3.632-6.517 22.138z" fill="#BF2538"/><path d="M311.128 29.068c-3.212 4.848-4.773 7.885-4.683 9.11.135 1.84.988 11.68 1.813 13.4.825 1.72 2.218 6.092 5 4.312 2.78-1.78 2.932-3.487 2.452-4.827-.48-1.34-2.01-1.34-2.276-2.357-.265-1.018-2.19-6.993-2.04-8.038.152-1.046 2.56-7.086 3.376-7.828.543-.495 1.044-1.25 1.502-2.265l-5.144-1.507z" fill="#424443"/><path d="M309.89 30.392c3.27 2.205 5.298 3.212 6.09 3.023.793-.19 2.358-3.005 4.696-8.45.385-3.337-1.16-4.74-4.634-4.212-.73-.09-2.78 3.124-6.15 9.64z" fill="#D82B41"/></g><g><path d="M435.585 95.958l2.547 5.527 12.08-7.34c-1.39-.867-3.44-1.118-6.148-.753-2.47.333-2.432-.182-3.336-.373-.162-.035-.19-.11-.087-.225l-5.055 3.163zM384.282 76.334l-5.898-1.5-1.897 14.01c1.548-.537 3.032-1.972 4.454-4.306 1.296-2.13 1.672-1.776 2.39-2.358.128-.104.204-.08.23.073l.722-5.92z" fill="#848484"/><path d="M408.456 27.608c-5.678 1.257-8.91 2.357-9.697 3.3-1.18 1.417-7.404 9.09-8.005 10.9-.6 1.81-2.635 5.922.6 6.573 3.238.653 4.533-.47 5.12-1.767.585-1.297-.517-2.36 0-3.276.515-.916 3.28-6.552 4.115-7.2.835-.646 6.765-3.318 7.866-3.286.735.023 1.62-.172 2.654-.584l-2.654-4.658zM408.277 52.15c-.672 2.565-.217 4.85 1.364 6.856 2.373 3.008 23.275 35.15 24.018 36.45.743 1.3 3.29-.222 3.862-.61.38-.26 1.5-.947 3.352-2.06l-22.18-37.76-10.415-2.877z" fill="#424443"/><path d="M383.805 75.62H398c2.404-.472 3.843-1.486 4.316-3.043.474-1.557 1.993-6.18 4.557-13.87.142-3.624.62-5.65 1.434-6.083.815-.43 3.924.222 9.327 1.96l-7.955 20.53c-2.657 5.226-5.77 7.947-9.338 8.164-5.352.326-13.827 1.336-15.28.74-.97-.396-1.64-1-2.01-1.808l.753-6.59z" fill="#303030"/><path d="M418.897 25.77l.477-1.912c-4.617-2.65-6.196-6.6-4.736-11.85 1.46-5.253 5.228-7.198 11.304-5.835 2.81.502 4.276 1.93 4.398 4.288.122 2.357.122 4.124 0 5.3.87 1.974 1.253 3.07 1.15 3.29-.105.22-.488.687-1.15 1.4.187 2.013.187 3.15 0 3.408-.28.388-.908 1.34-2.095 1.393-.79.036-2.08.054-3.87.054l-.734 3.127-5.145-1.462.402-1.197z" fill="#424443"/><path d="M407.977 27.12c.137 3.938.515 6.172 1.134 6.702.62.53 3.818.14 9.596-1.167 2.927-1.65 3.155-3.726.684-6.226-.356-.643-4.16-.413-11.413.69z" fill="#7D1822"/><path d="M407.977 52.355l10.71 2.673c4.01-11.52 5.977-19.3 5.904-23.334-.072-4.034-2.566-5.737-7.482-5.11l-2.615 3.633-6.516 22.138z" fill="#BF2538"/><path d="M422.548 40.968c1.266 4.01 2.296 6.316 3.09 6.915 1.188.9 3.65 2.085 6.086 1.666 1.624-.28 5.142-2.528 10.554-6.743 1.96-1.677 2.753-3.263 2.38-4.757-.558-2.242-3.682-3.573-5.628-2.242-1.946 1.33-2.127 2.76-1.946 3.33.12.38.18.78.18 1.197l-5.54 3.16c-1.64.38-2.67.152-3.084-.688-.415-.84-1.02-2.425-1.818-4.757l-4.274 2.918z" fill="#303030"/><path d="M422.086 41.565c3.628-1.54 5.578-2.694 5.85-3.46.274-.768-1.236-3.615-4.527-8.54-2.59-2.14-4.61-1.61-6.058 1.59-.472.564 1.106 4.034 4.734 10.41z" fill="#D82B41"/></g><g><path d="M507.836 92.44l-.663 6.047 14.136-.07c-.747-1.458-2.375-2.73-4.885-3.81-2.287-.988-1.99-1.41-2.667-2.04-.12-.11-.108-.19.04-.236l-5.962.11zM488.115 72.36l-5.59-2.402-4.066 13.54c1.612-.288 3.302-1.473 5.07-3.557 1.614-1.898 1.93-1.49 2.73-1.954.143-.082.214-.046.214.11l1.64-5.735z" fill="#848484"/><path d="M502.606 49.082c-.672 2.565-.217 4.85 1.364 6.856 1.523 1.932 10.82 12.31 9.84 18.495-.894 5.643-6.308 17.307-6.042 17.772.743 1.3 6.33 1.116 6.9.727.573-.39 4.64-6.982 6.74-12.59 1.398-3.74 1.44-7.634.12-11.68L513.02 51.96l-10.414-2.878z" fill="#3A3C3B"/><path d="M488.06 71.522l7.19.96c4.398.87 6.834.525 7.307-1.032.474-1.557-.105-6.827-1.736-15.81.143-3.624.62-5.652 1.435-6.083.815-.432 3.76.136 8.84 1.703l-.604 22.605c-1.54 4.234-4.094 6.46-7.662 6.676-5.352.327-12.794-.202-14.247-.797-.968-.397-1.76-1.08-2.38-2.05l1.86-6.17z" fill="#303030"/><path d="M512.842 22.32l.477-1.913c-4.618-2.65-6.197-6.6-4.736-11.85 1.46-5.253 5.228-7.198 11.304-5.835 2.81.502 4.275 1.93 4.397 4.287.122 2.356.122 4.123 0 5.3.87 1.973 1.254 3.07 1.15 3.29-.105.22-.488.686-1.15 1.4.187 2.012.187 3.148 0 3.407-.28.388-.907 1.34-2.095 1.393-.79.035-2.08.053-3.868.053l-.735 3.127-5.146-1.463.402-1.197zM500.637 28.874c-4.906 3.123-7.567 5.262-7.983 6.42-.624 1.733-3.85 11.07-3.794 12.977.055 1.907-.45 6.468 2.813 5.973 3.264-.494 4.097-1.992 4.204-3.412.107-1.418-1.292-2.04-1.12-3.077.172-1.038.842-7.28 1.406-8.173.563-.894 5.22-5.432 6.267-5.78.698-.23 1.462-.716 2.294-1.456l-4.087-3.47z" fill="#424443"/><path d="M500.02 28.58c1.475 3.653 2.595 5.623 3.357 5.91.763.285 3.635-1.174 8.617-4.38 2.186-2.55 1.69-4.58-1.486-6.083-.554-.482-4.05 1.036-10.49 4.552z" fill="#7D1822"/><path d="M502.306 49.287l10.71 2.674c4.008-11.52 5.977-19.298 5.904-23.333-.073-4.035-2.567-5.738-7.483-5.11l-2.615 3.632-6.516 22.137z" fill="#BF2538"/><path d="M513.928 38.52c.477 4.178 1.048 6.638 1.712 7.377.996 1.11 3.187 2.744 5.658 2.797 1.648.035 5.53-1.5 11.647-4.604 2.243-1.273 3.324-2.678 3.244-4.216-.12-2.307-2.934-4.21-5.1-3.274-2.163.935-2.614 2.304-2.545 2.897.047.396.03.8-.05 1.21l-6.04 2.043c-1.686.062-2.65-.36-2.898-1.262-.247-.904-.54-2.576-.877-5.017l-4.752 2.05z" fill="#303030"/><path d="M512.553 38.418c3.94-.138 6.173-.516 6.703-1.134.53-.62.14-3.817-1.167-9.595-1.652-2.928-3.727-3.157-6.227-.686-.642.357-.412 4.16.69 11.414z" fill="#D52335"/></g></g></svg>