<svg width="26" height="26" viewBox="0 0 26 26" xmlns="http://www.w3.org/2000/svg"><g fill-rule="nonzero" fill="#A4B6C5"><path d="M17.814.09H7.56C3.39.09 0 3.48 0 7.648v10.255c0 4.168 3.39 7.56 7.56 7.56h10.254c4.167 0 7.558-3.392 7.558-7.56V7.648c0-4.168-3.39-7.558-7.558-7.558zm5.006 17.813c0 2.765-2.242 5.006-5.006 5.006H7.56c-2.766 0-5.008-2.242-5.008-5.007V7.648c0-2.765 2.242-5.006 5.007-5.006h10.254c2.764 0 5.006 2.24 5.006 5.006v10.255z"/><path d="M12.686 6.214c-3.618 0-6.562 2.943-6.562 6.562 0 3.618 2.944 6.562 6.562 6.562 3.618 0 6.562-2.944 6.562-6.562 0-3.62-2.944-6.562-6.562-6.562zm0 10.57c-2.214 0-4.01-1.794-4.01-4.008 0-2.215 1.796-4.01 4.01-4.01 2.215 0 4.01 1.795 4.01 4.01 0 2.214-1.795 4.01-4.01 4.01z"/><circle cx="19.261" cy="6.263" r="1.572"/></g></svg>