<svg width="28" height="28" viewBox="0 0 28 28" xmlns="http://www.w3.org/2000/svg"><g fill-rule="nonzero" fill="#A4B6C5"><path d="M6.31 8.72H.867c-.242 0-.437.195-.437.436v17.48c0 .24.196.436.438.436h5.44c.242 0 .438-.195.438-.437V9.155c0-.24-.196-.436-.437-.436zM3.59.03C1.61.03 0 1.64 0 3.616c0 1.98 1.61 3.588 3.59 3.588 1.978 0 3.588-1.61 3.588-3.588C7.178 1.64 5.568.03 3.59.03zM20.148 8.285c-2.185 0-3.8.94-4.78 2.006V9.157c0-.24-.196-.437-.438-.437H9.72c-.242 0-.437.195-.437.436v17.48c0 .24.195.436.437.436h5.43c.24 0 .436-.195.436-.437v-8.648c0-2.914.79-4.05 2.823-4.05 2.21 0 2.387 1.82 2.387 4.2v8.498c0 .242.196.437.437.437h5.43c.243 0 .438-.195.438-.437v-9.587c0-4.334-.826-8.763-6.954-8.763z"/></g></svg>