<svg width="333" height="129" viewBox="0 0 333 129" xmlns="http://www.w3.org/2000/svg"><g fill="none" fill-rule="evenodd"><path d="M83.77 39.334l17.037 7.78 58.904-30.688L180.126 0l30.89 16.426c8.39 11.778 14.655 21.158 18.796 28.138 4.14 6.98 14.995 12.523 32.563 16.625l24.955 25.554c21.955 9.004 33.154 16.503 33.6 22.496.445 5.994 4.364 10.104 11.758 12.33v6.688H71V47.113l12.77-7.78z" fill="#3D3A5A"/><path d="M0 121.516c19.4-25.928 32.222-39.32 38.47-40.176 9.37-1.284 10.9-20.72 16.878-25.583 3.985-3.24 9.576-7.057 16.773-11.45l12.225-5.468-2.392 24 18.444 33.215 29.575 17.108 9.263-6.22-6.058-25.603-31.425-20.668 1.78-13.733 23.4-17.185 9.448-7.68c12.14-4.27 19.95-6.29 23.432-6.057 3.48.234 6.463 6.326 8.95 18.278l5.537 28.545 35.473 20.95-3.04 20.546 11.923 21.977H0v-4.797z" fill="#2A283C"/></g></svg>