<svg width="238" height="91" viewBox="0 0 238 91" xmlns="http://www.w3.org/2000/svg"><g fill="none" fill-rule="evenodd"><path d="M60.143 27.68l12.196 5.475 42.17-21.596L129.122 0l22.113 11.56c6.007 8.288 10.493 14.89 13.457 19.8 2.964 4.913 10.735 8.813 23.312 11.7l17.865 17.984c15.717 6.336 23.736 11.613 24.054 15.83.32 4.218 3.125 7.11 8.418 8.678v4.706H51V33.155l9.143-5.475z" fill="#3D3A5A"/><path d="M0 85.254c13.888-18.246 23.068-27.67 27.54-28.273 6.708-.902 7.804-14.58 12.084-18.002 2.853-2.28 6.856-4.966 12.008-8.058l8.75-3.847-1.71 16.89 13.203 23.374 21.172 12.04 6.632-4.378-4.338-18.02-22.497-14.544 1.275-9.663L90.87 20.68l6.765-5.404c8.69-3.007 14.283-4.428 16.775-4.263 2.49.164 4.627 4.452 6.407 12.862l3.964 20.088 25.398 14.743-2.176 14.458 8.535 15.466H0v-3.376z" fill="#2A283C"/></g></svg>