<svg width="966" height="86" viewBox="0 0 966 86" xmlns="http://www.w3.org/2000/svg"><g fill="#252335" fill-rule="evenodd"><path d="M52.81 7.564C50.414 5.376 46.942 4 43.08 4c-1.902 0-3.71.334-5.342.935C35.748 3.115 33.064 2 30.11 2c-5.183 0-9.537 3.435-10.764 8.08-4.74.506-8.498 3.353-9.22 6.966-.368-.03-.743-.046-1.123-.046C4.03 17 0 19.682 0 22.99c0 2.8 2.89 5.153 6.795 5.808 1.443 3.38 5.754 5.83 10.848 5.83 2.12 0 4.105-.424 5.804-1.164 1.876 2.49 5.39 4.165 9.413 4.165.046 0 .092 0 .138-.002 2.38 1.834 5.97 3 9.987 3 4.066 0 7.696-1.196 10.077-3.07 2.614 1.874 6.6 3.07 11.065 3.07 3.582 0 6.855-.77 9.36-2.04 1.808.663 3.89 1.04 6.106 1.04 6.955 0 12.594-3.722 12.594-8.314v-.093c.544.053 1.104.08 1.673.08 5.998 0 10.86-2.977 10.86-6.65 0-3.583-4.63-6.505-10.425-6.645C92.988 14.537 88.81 12 83.86 12c-1.15 0-2.26.137-3.3.39C78.06 9.73 74.034 8 69.49 8c-2.503 0-4.85.525-6.87 1.442-2.285-1.225-5.108-1.95-8.164-1.95-.557 0-1.107.025-1.647.072zM735.24 38.564C732.192 36.376 727.77 35 722.854 35c-2.424 0-4.726.334-6.804.935-2.533-1.82-5.95-2.935-9.712-2.935-6.6 0-12.143 3.435-13.706 8.08-6.033.506-10.82 3.353-11.74 6.966-.468-.03-.944-.046-1.428-.046C673.132 48 668 50.682 668 53.99c0 2.8 3.68 5.153 8.652 5.808 1.838 3.38 7.327 5.83 13.812 5.83 2.7 0 5.227-.424 7.39-1.164 2.39 2.49 6.862 4.165 11.985 4.165.058 0 .116 0 .175-.002 3.032 1.834 7.603 3 12.716 3 5.178 0 9.8-1.196 12.832-3.07 3.33 1.874 8.404 3.07 14.09 3.07 4.56 0 8.727-.77 11.916-2.04 2.303.663 4.954 1.04 7.775 1.04 8.856 0 16.035-3.722 16.035-8.314v-.093c.694.053 1.406.08 2.13.08 7.637 0 13.828-2.977 13.828-6.65 0-3.583-5.893-6.505-13.273-6.645C786.4 45.537 781.08 43 774.776 43c-1.465 0-2.877.137-4.2.39-3.183-2.662-8.31-4.39-14.096-4.39-3.188 0-6.176.525-8.75 1.442-2.908-1.225-6.502-1.95-10.393-1.95-.71 0-1.41.025-2.097.072zM242.24 57.663c-2.322-1.834-5.69-2.987-9.44-2.987-1.845 0-3.6.28-5.183.784-1.93-1.525-4.536-2.46-7.4-2.46-5.03 0-9.255 2.878-10.446 6.772-4.597.424-8.244 2.81-8.945 5.838-.357-.026-.72-.04-1.09-.04-4.824 0-8.735 2.248-8.735 5.02 0 2.348 2.804 4.32 6.593 4.868 1.4 2.832 5.584 4.887 10.526 4.887 2.057 0 3.982-.356 5.63-.976 1.82 2.085 5.23 3.49 9.134 3.49h.133c2.312 1.535 5.795 2.513 9.69 2.513 3.947 0 7.468-1.003 9.78-2.573 2.536 1.57 6.403 2.573 10.736 2.573 3.475 0 6.65-.645 9.08-1.71 1.756.556 3.776.872 5.926.872 6.748 0 12.218-3.12 12.218-6.968v-.078c.53.043 1.072.065 1.624.065 5.82 0 10.537-2.495 10.537-5.573 0-3.003-4.492-5.45-10.115-5.57-1.27-2.905-5.322-5.03-10.126-5.03-1.117 0-2.193.113-3.203.326-2.424-2.23-6.332-3.68-10.74-3.68-2.43 0-4.707.44-6.668 1.21-2.217-1.028-4.956-1.634-7.92-1.634-.542 0-1.075.02-1.6.06zM908.65 9.663c-2.636-1.834-6.455-2.987-10.704-2.987-2.095 0-4.084.28-5.88.784C889.88 5.935 886.925 5 883.675 5c-5.702 0-10.492 2.878-11.843 6.772-5.212.424-9.348 2.81-10.143 5.838-.404-.026-.816-.04-1.234-.04-5.47 0-9.906 2.248-9.906 5.02 0 2.348 3.18 4.32 7.476 4.868 1.588 2.832 6.33 4.887 11.935 4.887 2.333 0 4.517-.356 6.386-.976 2.064 2.085 5.93 3.49 10.356 3.49h.15c2.622 1.535 6.572 2.513 10.99 2.513 4.473 0 8.467-1.003 11.086-2.573 2.877 1.57 7.262 2.573 12.175 2.573 3.942 0 7.543-.645 10.298-1.71 1.99.556 4.28.872 6.72.872 7.65 0 13.854-3.12 13.854-6.968v-.078c.6.043 1.215.065 1.84.065 6.6 0 11.95-2.495 11.95-5.573 0-3.003-5.093-5.45-11.47-5.57-1.437-2.905-6.033-5.03-11.48-5.03-1.266 0-2.486.113-3.63.326-2.75-2.23-7.182-3.68-12.18-3.68-2.755 0-5.337.44-7.56 1.21-2.513-1.028-5.62-1.634-8.98-1.634-.614 0-1.22.02-1.813.06zM491.36 5.922c-2.827-2.33-6.926-3.793-11.487-3.793-2.248 0-4.383.354-6.31.994-2.35-1.937-5.52-3.124-9.007-3.124-6.12 0-11.262 3.656-12.71 8.6-5.597.54-10.036 3.57-10.89 7.415-.433-.032-.875-.05-1.324-.05-5.872 0-10.632 2.856-10.632 6.377 0 2.98 3.413 5.485 8.024 6.182 1.704 3.597 6.795 6.207 12.81 6.207 2.504 0 4.848-.452 6.854-1.24 2.216 2.65 6.364 4.434 11.115 4.434h.163c2.812 1.95 7.052 3.193 11.793 3.193 4.8 0 9.087-1.274 11.9-3.268 3.086 1.993 7.793 3.267 13.066 3.267 4.23 0 8.094-.82 11.052-2.173 2.136.707 4.594 1.11 7.21 1.11 8.214 0 14.872-3.964 14.872-8.85v-.1c.644.055 1.304.083 1.976.083 7.083 0 12.824-3.17 12.824-7.078 0-3.815-5.465-6.925-12.31-7.074-1.543-3.692-6.476-6.392-12.323-6.392-1.358 0-2.667.146-3.896.416-2.95-2.834-7.706-4.674-13.07-4.674-2.957 0-5.73.56-8.116 1.535-2.696-1.302-6.03-2.073-9.64-2.073-.657 0-1.305.026-1.943.075z"/></g></svg>