<svg width="165" height="41" viewBox="0 0 165 41" xmlns="http://www.w3.org/2000/svg"><g fill-rule="nonzero" fill="#FFF"><path d="M9.357 25.617l1.067-.423.254-3.038.13 2.904 3.962-1.587s-.83 1.764-1.646 2.156c-.576.285-2.27.98-2.27.98l-.197 3.1-.183-2.94-1.093.417L5.408 40.88l14.07-9.786s.65-4.756 1.53-4.125c.877.63 2.392 1.855 2.392 1.855l3.696.81-2.014-8.23s.468-8.853-7.36-8.647c-7.826.205-7.685 3.172-7.685 3.172l-.69-2-2.52 16.76 1.396-2.408s-.443.243-.314-.196c.13-.44 1.447-2.47 1.447-2.47z"/><path d="M11.015 12.95L.185 4.976S29.6-10.29 32.063 13.733c.735 7.16-2.263 15.174-2.263 15.174l-3.072-10.345S23.604 6.83 11.015 12.95zM56.513 11.735l.545.07c.603.08 1.102.548 1.495 1.408-.142 1.093-.882 1.927-2.22 2.5-1.4.255-2.767.677-4.067 1.257-.024.19 1.542.727 4.697 1.616 1.028.632 1.487 1.426 1.375 2.382-.205 1.59-2.6 3.176-7.19 4.76-2.316 1.41-4.717 2.674-7.19 3.785l-.79.015c-.442-.603-.66-1.342-.62-2.088.186-1.417 2.156-2.836 5.91-4.257 1.12-.656 1.692-1.065 1.712-1.227l-1.28-.388-2.645-.236c-2.27-.293-3.31-1.17-3.12-2.633.298-2.304 2.632-3.97 7.002-5 3.102-1.458 5.23-2.113 6.386-1.965zM69.39 10.052c3.886.605 5.775 1.32 5.668 2.148.402 1.458.534 2.977.39 4.483-.522 1.945-1.146 2.87-1.872 2.776-.594.098-1.696.822-3.305 2.17-.857.018-3.222.756-7.097 2.215-.454.157-.74.695-.86 1.617l-.233 1.805c-.075.567.27.974 1.038 1.22l-.027.098c-.765.768-1.99 1.042-3.672.823l-.1-.027c-.556-.574-.64-2.998-.25-7.27l1.503-9.2.188-2.352c2.016-.823 4.894-.99 8.633-.506zm-2.623 4.42l-1.06-.137c-.438-.057-.95.813-1.535 2.61l-.082.642c-.08.985.034 1.502.34 1.55.305.05.957-.26 1.955-.93 3.788-.86 5.765-1.937 5.93-3.23l.118-.103-.09-.12-.825-.316-4.75.035zM83.904 8.96c.776.1 1.558 1.652 2.347 4.655l6.32 12.264-.135 1.045c-.72 2.033-1.664 2.973-2.834 2.82-1.17-.153-1.88-1.386-2.128-3.702-.23-.603-.604-1.14-1.09-1.565l-.347-.043-7.372.366c-1.08-.138-2.228 1.132-3.442 3.81l-1.317.186-.118-.032c-1.01-.13-1.637-.445-1.885-.948 2.245-6.248 5.035-11.395 8.37-15.44 1.8-2.36 3.012-3.5 3.634-3.417zm-1.047 7.18l-2.522 3.924-.03.113c.308.364.748.592 1.224.635 2.047-.03 3.092-.21 3.135-.544-.146-1.43-.66-2.798-1.494-3.97l-.313-.16zM103.872 9.43c3.82.495 6.174 1.63 7.062 3.4l-.438 3.362c-.192.93-1.574 1.96-4.147 3.097-.667.287-1.29.663-1.856 1.118 1.21.858 2.478 1.63 3.794 2.315.805.58 1.31 1.49 1.38 2.48l-.03.223c-.53 1.136-1.07 1.822-1.624 2.056-3.648-1.024-6.072-1.905-7.27-2.642-1.352-1.08-2.264-1.652-2.737-1.715-.933.162-1.438.55-1.515 1.164l-.03.107c-.02.9.096 1.796.345 2.66-1.2 1.29-2.148 1.887-2.842 1.795-.85-.583-1.22-1.238-1.114-1.964l1.448-4.143.883-7.727.392-3.02c.167-1.3 1.15-2.158 2.946-2.58 1.778-.217 3.576-.213 5.354.01zm-5.56 6.1l.065 1.255.437.057c.727.094 1.828-.257 3.303-1.053 1.258.14 2.514-.278 3.437-1.144l.132-.095.03-.112c-.052-.383-.587-.64-1.605-.772l-.335-.045c-3.39-.135-5.157.354-5.3 1.47l-.164.44zM125.546 9.38c2.05.265 3.052.58 3.004.947l.042.464c-.223.83-.702 1.206-1.44 1.126-1.193-.156-3.648.076-7.364.694l-.763 3.038.084.098-.16.46-.117.91-.1.074.073.1c-.876 5.135-1.49 7.756-1.84 7.863-1.41-.183-2.074-1.465-1.99-3.845l.038-.272 1.415-6.617c.05-.92-.01-1.392-.186-1.415l-.452-.06-2.083.448-.085-.023c-1.104-.477-1.602-1.125-1.493-1.945l-.023-1.285.056-.458c.033-.122.2-.222.498-.3.146.02.366.23.66.636l.46.163c4.82-.923 8.74-1.19 11.762-.8zM134.34 8.406c.776.1 1.558 1.653 2.348 4.656l6.318 12.264-.134 1.046c-.72 2.033-1.665 2.974-2.836 2.825-1.172-.15-1.88-1.384-2.13-3.702-.228-.604-.603-1.14-1.09-1.566l-.346-.043-7.367.347c-1.08-.14-2.227 1.13-3.442 3.81l-1.317.185-.117-.033c-1.006-.128-1.635-.444-1.886-.948 2.245-6.25 5.035-11.396 8.37-15.442 1.815-2.346 3.024-3.48 3.63-3.402zm-1.047 7.18l-2.523 3.93-.03.112c.31.365.748.593 1.224.635 2.048-.028 3.094-.21 3.136-.544-.146-1.43-.66-2.798-1.494-3.97l-.313-.164zM152.2 9.785c1.183.786 1.998 2.585 2.446 5.397.025 1.792.537 3.544 1.48 5.068l.195.027c.696-.086 1.146-.942 1.354-2.568.34-.834.883-1.57 1.58-2.14 1.26-2.652 2.3-4.14 3.12-4.47l.696.092c.752.097 1.153.93 1.203 2.497l-.09.694c-.16 1.315-.956 2.466-2.13 3.08-.21-.027-.706 1.198-1.487 3.673-1.894 4.214-3.446 6.517-4.655 6.908-.757-.1-1.32-.713-1.685-1.84.027-.847-.183-1.682-.607-2.414-.703-1.737-1.502-3.435-2.392-5.085l-.195-.027c-.382-.05-1.25 1.668-2.602 5.152-1.037 2.192-1.972 3.663-2.804 4.413l-.4-.05c-.918-.467-1.412-1.49-1.207-2.5l.027-.194c.27-2.103.903-3.578 1.895-4.426.306-.254 1.31-2.53 3.012-6.83 1.107-2.29 2.08-3.788 2.916-4.493l.333.035z"/><g><path d="M101.992 33.317v1.06h-.613l-.033-.447h-.735v2.807l.426.08v.492h-1.653v-.488l.426-.08v-2.807h-.73l-.032.446h-.61v-1.06M105.704 33.317c.38-.022.756.087 1.064.31.266.203.417.52.406.856.005.187-.052.37-.162.524-.123.16-.288.283-.475.357.206.05.386.172.507.345.11.18.163.39.155.6v.203c-.005.072.013.143.052.203.042.052.104.083.17.086h.098v.507h-.406c-.207.02-.41-.058-.55-.212-.11-.16-.166-.35-.157-.544v-.227c.01-.166-.046-.33-.154-.455-.115-.116-.272-.18-.435-.175h-.654v1.052l.427.08v.48h-1.648v-.488l.406-.08v-2.844l-.406-.08v-.485h1.79l-.028-.016zm-.564 1.76h.552c.178.012.355-.038.5-.143.113-.104.174-.253.166-.407.007-.16-.054-.313-.166-.426-.136-.114-.31-.17-.488-.157h-.564v1.133zM112.02 35.55h-1.35v1.138h1.29l.035-.475h.61v1.096h-3.152v-.488l.406-.08v-2.844l-.407-.08v-.485h3.147v1.093h-.617l-.037-.475h-1.275v1.004h1.35M114.704 33.8v-.483h1.65v.484l-.428.082v2.843l.427.08v.504h-1.65v-.488l.427-.08v-2.844M122.412 33.317v.484l-.426.082v3.427h-.813l-1.624-2.68v2.115l.425.08v.484h-1.65v-.488l.408-.08v-2.844l-.407-.08v-.485h1.22l1.623 2.68V33.9l-.427-.08v-.485h1.65M123.96 36.822l.284-.04 1.218-3.465h.812l1.22 3.464.283.042v.487h-1.357v-.488l.277-.05-.175-.547h-1.29l-.176.548.276.05v.486h-1.356l-.017-.488zm1.445-1.186h.914l-.448-1.405-.467 1.406zM133.548 34.357l-1.097 2.952h-.535l-1.06-2.94.077 1.745v.626l.427.082v.487h-1.65v-.488l.406-.08v-2.844l-.406-.08v-.485h1.466l1.015 2.937 1.025-2.937h1.474v.484l-.427.08v2.844l.426.082v.487h-1.65v-.488l.406-.08v-.627M139.234 35.55h-1.35v1.138h1.29l.035-.475h.608v1.096h-3.15v-.488l.405-.08v-2.844l-.406-.08v-.485h3.147v1.093h-.613l-.035-.475h-1.276v1.004h1.348M145.995 33.317v.484l-.426.082v3.427h-.813l-1.625-2.68v2.115l.427.08v.484h-1.65v-.488l.406-.08v-2.844l-.406-.08v-.485h1.218l1.625 2.68V33.9l-.427-.08v-.485h1.65M151.437 33.317v1.06h-.613l-.032-.447h-.735v2.807l.426.08v.492h-1.653v-.488l.427-.08v-2.807h-.73l-.034.446h-.61v-1.06M156.944 35.34c.02.527-.158 1.043-.5 1.446-.336.365-.81.572-1.307.572-.497 0-.97-.207-1.307-.572-.34-.404-.516-.92-.496-1.446v-.06c-.02-.528.157-1.043.496-1.447.322-.383.803-.596 1.303-.577.502-.016.985.196 1.312.577.342.402.522.918.504 1.446l-.006.06zm-.812-.065c.016-.353-.073-.702-.256-1.003-.16-.263-.45-.418-.76-.407-.3-.018-.588.128-.75.382-.18.305-.265.655-.248 1.007v.065c-.017.355.07.708.252 1.015.162.255.45.402.75.386.305.017.594-.13.76-.385.184-.306.273-.66.256-1.016l-.004-.045zM161.972 34.592h-.6l-.086-.532c-.095-.053-.198-.09-.305-.113-.132-.032-.268-.048-.405-.05-.18-.01-.358.038-.507.14-.115.082-.182.215-.18.356.004.136.074.26.188.333.2.12.42.214.645.277.366.085.707.25 1 .483.227.2.352.49.342.792.01.322-.142.628-.407.812-.315.21-.69.315-1.068.297-.29.004-.58-.047-.852-.15-.24-.088-.458-.227-.638-.407v-.812h.617l.085.564c.097.075.207.13.324.163.15.044.304.066.46.065.176.01.35-.036.5-.134.11-.085.174-.218.17-.358.005-.14-.055-.277-.163-.37-.17-.123-.363-.212-.568-.263-.384-.096-.747-.26-1.072-.487-.24-.182-.377-.47-.365-.772-.012-.322.14-.628.406-.812.3-.214.663-.326 1.032-.317.285-.004.57.043.837.138.232.083.447.21.633.374l-.02.782z"/></g></g></svg>