<svg width="100" height="112" viewBox="0 0 100 112" xmlns="http://www.w3.org/2000/svg"><g fill-rule="nonzero" fill="#A4B6C5"><path d="M33.606 53.088l2.21-.877.528-6.294.268 6.02 8.21-3.29s-1.716 3.654-3.41 4.466c-1.194.593-4.707 2.03-4.707 2.03l-.406 6.43-.38-6.092-2.265.86-8.236 28.377L54.577 64.44s1.35-9.857 3.168-8.55c1.82 1.308 4.96 3.846 4.96 3.846l7.662 1.677-4.174-17.057s.97-18.344-15.25-17.918c-16.22.427-15.928 6.576-15.928 6.576l-1.434-4.147-5.223 34.735 2.895-4.99s-.918.503-.65-.407c.268-.91 3-5.117 3-5.117z"/><path d="M37.042 26.836L14.6 10.31s60.955-31.635 66.06 18.15c1.522 14.836-4.69 31.447-4.69 31.447l-6.365-21.44s-6.474-24.314-32.563-11.63zM9.325 91.003l.454-.06c.503-.068 1.007.203 1.51.812.122.912-.295 1.745-1.25 2.497-1.076.508-2.087 1.143-3.01 1.893.022.157 1.4.253 4.138.288.967.287 1.508.83 1.625 1.625.178 1.326-1.412 3.124-4.772 5.393-1.563 1.64-3.227 3.18-4.982 4.61l-.634.183c-.487-.39-.823-.94-.95-1.55-.157-1.184 1.125-2.755 3.846-4.712.763-.77 1.136-1.224 1.117-1.36l-1.117-.036-2.185.382c-1.895.254-2.924-.23-3.087-1.45-.257-1.923 1.266-3.772 4.57-5.548 2.187-1.846 3.763-2.835 4.727-2.965zM19.774 88.664c3.265-.352 4.944-.183 5.036.508.64 1.09 1.075 2.287 1.283 3.533 0 1.68-.303 2.563-.91 2.644-.457.207-1.19 1.03-2.197 2.464-.687.2-2.436 1.308-5.247 3.322-.334.225-.45.722-.346 1.49l.203 1.507c.062.474.43.727 1.1.76v.085c-.45.785-1.38 1.27-2.785 1.458h-.085c-.574-.344-1.166-2.28-1.775-5.812l-.776-7.748-.357-1.938c1.447-1.1 3.732-1.857 6.854-2.274zm-1.162 4.134l-.885.118c-.365.05-.59.86-.674 2.437l.073.536c.15.81.352 1.204.61 1.177.256-.027.715-.42 1.376-1.174 2.87-1.513 4.232-2.81 4.086-3.886l.073-.11-.097-.077-.735-.077-3.826 1.055zM31.625 86.674c.647-.086 1.613.996 2.9 3.25l7.748 8.528.118.873c-.14 1.795-.7 2.757-1.676 2.887-.978.13-1.817-.712-2.518-2.526-.316-.437-.734-.79-1.22-1.027l-.287.04-5.87 1.888c-.9.122-1.552 1.394-1.953 3.817l-1.023.435h-.102c-.842.114-1.417-.006-1.726-.357.46-5.526 1.6-10.282 3.416-14.267.942-2.294 1.673-3.474 2.193-3.542zm.706 6.02l-1.185 3.71v.098c.328.228.732.317 1.125.248 1.646-.466 2.45-.838 2.413-1.117-.427-1.122-1.138-2.114-2.063-2.88l-.29-.06zM48.28 84.81c3.19-.425 5.333-.02 6.432 1.218l.374 2.807c.046.79-.846 1.922-2.676 3.395-.475.376-.897.815-1.255 1.304 1.162.43 2.352.78 3.562 1.047.774.296 1.378.92 1.648 1.703l.025.187c-.182 1.03-.47 1.7-.865 2.01-3.165-.038-5.31-.225-6.437-.56-1.324-.58-2.184-.844-2.58-.792-.717.333-1.04.755-.97 1.267v.093c.177.73.465 1.43.853 2.07-.69 1.3-1.324 1.99-1.904 2.064-.812-.287-1.253-.735-1.324-1.344l.273-3.655-.96-6.425-.336-2.522c-.147-1.083.46-1.988 1.818-2.717 1.388-.56 2.84-.946 4.322-1.15zm-3.168 6.124l.325 1 .365-.05c.607-.08 1.42-.602 2.437-1.563 1.044-.157 1.967-.766 2.525-1.664l.085-.106v-.097c-.124-.298-.612-.39-1.462-.276l-.28.036c-2.764.623-4.084 1.4-3.96 2.33l-.036.39zM66.514 81.89c1.71-.23 2.587-.192 2.628.114l.134.365c0 .717-.306 1.123-.918 1.218-.996.132-2.927.85-5.79 2.152l.04 2.615.09.06-.03.408.102.76-.065.08.08.065c.405 4.332.476 6.58.216 6.742-1.176.157-1.99-.734-2.435-2.673l-.03-.227-.287-5.645c-.157-.753-.31-1.12-.455-1.1l-.378.048-1.583.812h-.074c-.993-.146-1.535-.56-1.624-1.246l-.297-1.033-.052-.382c0-.105.112-.222.337-.35.122-.015.345.108.67.37l.406.033c3.688-1.787 6.793-2.85 9.316-3.188zM73.382 81.082c.647-.087 1.613.996 2.9 3.25l7.748 8.527.118.873c-.14 1.795-.7 2.758-1.677 2.89-.977.134-1.816-.708-2.517-2.525-.316-.438-.734-.79-1.218-1.027l-.29.04-5.867 1.873c-.902.122-1.553 1.395-1.954 3.818l-1.023.435h-.1c-.84.114-1.415-.005-1.727-.357.46-5.526 1.6-10.282 3.416-14.267.955-2.284 1.686-3.46 2.192-3.528zm.706 6.02l-1.185 3.715v.097c.327.228.732.317 1.125.248 1.646-.466 2.45-.838 2.412-1.117-.427-1.122-1.138-2.114-2.063-2.88l-.29-.064zM88.53 80.578c1.124.38 2.17 1.655 3.14 3.826.407 1.44 1.2 2.743 2.29 3.77l.162-.022c.542-.22.72-1.007.536-2.363.095-.747.374-1.458.813-2.068.445-2.413.962-3.84 1.552-4.28l.58-.078c.63-.084 1.133.5 1.512 1.754l.077.58c.156 1.096-.237 2.197-1.05 2.946-.177.024-.312 1.12-.407 3.285-.618 3.808-1.372 6.002-2.262 6.578-.633.084-1.22-.29-1.758-1.12-.16-.688-.51-1.317-1.01-1.816-.944-1.25-1.955-2.448-3.03-3.586l-.163.02c-.32.044-.65 1.617-.988 4.72-.363 1.992-.8 3.38-1.308 4.166l-.333.045c-.84-.178-1.46-.896-1.514-1.755l-.02-.162c-.235-1.755-.045-3.08.573-3.98.19-.27.51-2.324.953-6.16.398-2.088.858-3.507 1.38-4.257l.277-.045zM20.992 107.317v1.06h-.613l-.033-.447h-.735v2.807l.426.08v.492h-1.653v-.488l.426-.08v-2.807h-.73l-.032.446h-.61v-1.06M24.704 107.317c.38-.022.756.087 1.064.31.266.203.417.52.406.856.005.187-.052.37-.162.524-.123.16-.288.283-.475.357.206.05.386.172.507.345.11.18.163.39.155.6v.203c-.005.072.013.143.052.203.042.052.104.083.17.086h.098v.507h-.406c-.207.02-.41-.058-.55-.212-.11-.16-.166-.35-.157-.544v-.227c.01-.166-.046-.33-.154-.455-.115-.116-.272-.18-.435-.175h-.654v1.052l.427.08v.48h-1.648v-.488l.406-.08v-2.844l-.406-.08v-.485h1.79l-.028-.016zm-.564 1.76h.552c.178.012.355-.038.5-.143.113-.104.174-.253.166-.407.007-.16-.054-.313-.166-.426-.136-.114-.31-.17-.488-.157h-.564v1.133zM31.02 109.55h-1.35v1.138h1.29l.035-.475h.61v1.096h-3.152v-.488l.406-.08v-2.844l-.407-.08v-.485H31.6v1.093h-.617l-.037-.475H29.67v1.004h1.35M33.704 107.8v-.483h1.65v.484l-.428.082v2.843l.427.08v.504h-1.65v-.488l.427-.08v-2.844M41.412 107.317v.484l-.426.082v3.427h-.813l-1.624-2.68v2.115l.425.08v.484h-1.65v-.488l.408-.08v-2.844l-.407-.08v-.485h1.22l1.623 2.68V107.9l-.427-.08v-.485h1.65M42.96 110.822l.284-.04 1.218-3.465h.812l1.22 3.464.283.042v.487H45.42v-.488l.277-.05-.175-.547h-1.29l-.176.548.276.05v.486h-1.356l-.017-.488zm1.445-1.186h.914l-.448-1.405-.467 1.406zM52.548 108.357l-1.097 2.952h-.535l-1.06-2.94.077 1.745v.626l.427.082v.487h-1.65v-.488l.406-.08v-2.844l-.406-.08v-.485h1.466l1.015 2.937 1.025-2.937h1.474v.484l-.427.08v2.844l.426.082v.487h-1.65v-.488l.406-.08v-.627M58.234 109.55h-1.35v1.138h1.29l.035-.475h.608v1.096h-3.15v-.488l.405-.08v-2.844l-.406-.08v-.485h3.147v1.093H58.2l-.035-.475H56.89v1.004h1.348M64.995 107.317v.484l-.426.082v3.427h-.813l-1.625-2.68v2.115l.427.08v.484h-1.65v-.488l.406-.08v-2.844l-.406-.08v-.485h1.218l1.625 2.68V107.9l-.427-.08v-.485h1.65M70.437 107.317v1.06h-.613l-.032-.447h-.735v2.807l.426.08v.492H67.83v-.488l.427-.08v-2.807h-.73l-.034.446h-.61v-1.06M75.944 109.34c.02.527-.158 1.043-.5 1.446-.336.365-.81.572-1.307.572-.497 0-.97-.207-1.307-.572-.34-.404-.516-.92-.496-1.446v-.06c-.02-.528.157-1.043.496-1.447.322-.383.803-.596 1.303-.577.502-.016.985.196 1.312.577.342.402.522.918.504 1.446l-.006.06zm-.812-.065c.016-.353-.073-.702-.256-1.003-.16-.263-.45-.418-.76-.407-.3-.018-.588.128-.75.382-.18.305-.265.655-.248 1.007v.065c-.017.355.07.708.252 1.015.162.255.45.402.75.386.305.017.594-.13.76-.385.184-.306.273-.66.256-1.016l-.004-.045zM80.972 108.592h-.6l-.086-.532c-.095-.053-.198-.09-.305-.113-.132-.032-.268-.048-.405-.05-.18-.01-.358.038-.507.14-.115.082-.182.215-.18.356.004.136.074.26.188.333.2.12.42.214.645.277.366.085.707.25 1 .483.227.2.352.49.342.792.01.322-.142.628-.407.812-.315.21-.69.315-1.068.297-.29.004-.58-.047-.852-.15-.24-.088-.458-.227-.638-.407v-.812h.617l.085.564c.097.075.207.13.324.163.15.044.304.066.46.065.176.01.35-.036.5-.134.11-.085.174-.218.17-.358.005-.14-.055-.277-.163-.37-.17-.123-.363-.212-.568-.263-.384-.096-.747-.26-1.072-.487-.24-.182-.377-.47-.365-.772-.012-.322.14-.628.406-.812.3-.214.663-.326 1.032-.317.285-.004.57.043.837.138.232.083.447.21.633.374l-.02.782z"/></g></svg>