<svg width="259" height="185" viewBox="0 0 259 185" xmlns="http://www.w3.org/2000/svg"><g fill="none" fill-rule="evenodd"><path fill="#14141C" d="M39.037 42.877h182.386v128.63H39.037z"/><path fill="#2A283C" d="M144.63 57.595h11.518v109.57h-11.52zM103.032 57.595h11.52v109.57h-11.52zM63.355 57.595h11.52v109.57h-11.52zM33.277 57.595h11.52v109.57h-11.52zM184.306 57.595h11.52v109.57h-11.52zM213.743 57.595h11.52v109.57h-11.52z"/><path fill="#333142" d="M142.07 167.027h16.638v4.538h-16.64zM100.472 167.027h16.64v4.538h-16.64zM60.795 167.027h16.64v4.538h-16.64zM30.718 167.027h16.64v4.538h-16.64zM181.746 167.027h16.64v4.538h-16.64zM211.183 167.027h16.64v4.538h-16.64zM139.51 50.556h21.117v7.132H139.51zM97.912 50.556h21.118v7.132H97.912zM58.235 50.556h21.118v7.132H58.235zM28.158 50.556h21.118v7.132H28.158zM179.186 50.556h21.118v7.132h-21.118zM208.624 50.556h21.118v7.132h-21.118z"/><path fill="#2A283C" d="M28.798 40.317h201.584v10.24H28.798z"/><path fill="#333142" d="M28.798 31.358h201.584v8.96H28.798z"/><path fill="#2A283C" d="M22.398 24.958H236.14v6.4H22.4zM14.72 171.507h229.1v4.48H14.72zM0 180.466h258.87v4.48H0z"/><path fill="#333142" d="M6.4 175.986h244.997v4.48H6.4zM23.038 25.472L130.288 0l106.336 25.472"/><g fill-rule="nonzero" fill="#1C1C28"><path d="M126.68 29.99l.68-.27.164-1.945.083 1.86 2.535-1.017s-.53 1.13-1.053 1.38c-.37.183-1.455.627-1.455.627l-.125 1.985-.117-1.88-.7.264-2.543 8.763 9.005-6.262s.416-3.044.978-2.64c.562.404 1.53 1.188 1.53 1.188l2.368.518-1.29-5.266s.3-5.665-4.708-5.533c-5.01.132-4.918 2.03-4.918 2.03l-.443-1.28-1.612 10.727.894-1.54s-.283.154-.2-.127c.083-.28.927-1.58.927-1.58z"/><path d="M127.24 21.602l-6.93-5.103s18.823-9.77 20.4 5.603c.47 4.582-1.45 9.71-1.45 9.71l-1.964-6.62s-2-7.508-10.055-3.59z"/></g></g></svg>