<svg width="27" height="27" viewBox="0 0 27 27" xmlns="http://www.w3.org/2000/svg"><path d="M13.605 0C6.25 0 .265 5.984.265 13.34c0 7.353 5.985 13.338 13.34 13.338 7.354 0 13.34-5.985 13.34-13.34C26.944 5.985 20.96 0 13.604 0zm5.95 10.286c.006.132.01.265.01.4 0 4.056-3.088 8.732-8.737 8.732-1.733 0-3.348-.506-4.706-1.378.24.03.485.043.733.043 1.438 0 2.762-.49 3.813-1.314-1.344-.026-2.478-.913-2.868-2.133.187.035.38.055.577.055.28 0 .55-.037.81-.107-1.406-.282-2.464-1.522-2.464-3.01v-.04c.415.23.888.37 1.39.384-.822-.55-1.364-1.49-1.364-2.555 0-.564.15-1.09.414-1.545 1.514 1.858 3.777 3.08 6.328 3.21-.053-.226-.08-.46-.08-.7 0-1.696 1.375-3.07 3.07-3.07.884 0 1.68.372 2.24.968.702-.137 1.357-.392 1.952-.745-.23.717-.716 1.318-1.352 1.7.622-.075 1.215-.24 1.763-.484-.41.614-.93 1.155-1.53 1.586z" fill-rule="nonzero" fill="#F9FAFF"/></svg>