<svg width="80" height="31" viewBox="0 0 80 31" xmlns="http://www.w3.org/2000/svg"><g fill-rule="nonzero" fill="none"><path d="M67.258 23.136c-.38.316-.56 1.515-.69 1.758-.548.993-1.352 1.82-2.327 2.397-.906.536-1.955.778-3.003.694-1.67-.135-2.857-.78-3.562-1.932-.704-1.153-.857-2.675-.46-4.568.398-1.89 1.327-3.963 2.787-6.22.91-1.53 2.045-2.914 3.364-4.106 5.784-4.965 9.43 7.362 3.892 11.978z" fill="#7B8891"/><path d="M12.066 3.45c.294-.243.654-.4 1.04-.45.422-.007.84.092 1.21.287.697.303 1.255 1.122 1.676 2.457.42 1.336 1.014 4.26 1.777 8.77.564 3.418.936 6.234 1.114 8.448.18 1.718.15 3.45-.085 5.16-.224 1.235-.67 2.07-1.34 2.507-.727.494-1.62.494-2.676 0-1.057-.495-1.852-1.724-2.383-3.687-.08-.427-.222-.84-.423-1.228-.1-.19-.285-.326-.5-.37-.2-.032-.407.02-.565.144-.23.236-.406.515-.52.818-.194.332-.422.643-.68.93-.244.262-.53.485-.848.66-.333.187-.693.326-1.068.41-.46.103-.928.165-1.4.183-.564.065-1.135.05-1.696-.04-.482-.168-.937-.404-1.348-.7-1.778-1.23-2.86-3.19-3.248-5.877-.112-.894-.134-1.797-.064-2.695.07-.89.315-2.83.734-5.82.638-4.33 1.112-6.7 1.42-7.11.388-.658 1.224-.933 1.946-.64.815.252 1.43.903 1.612 1.71.14 1.024.126 2.063-.043 3.083-.16 1.52-.238 4.068-.238 7.648s.083 5.594.25 6.045c.212.63.87 1.016 1.548.905.745-.106 1.376-.586 1.658-1.262.362-.794.786-2.932 1.272-6.413.486-3.482.842-7.077 1.068-10.788.03-.758.113-1.514.25-2.26.096-.32.287-.607.548-.824z" fill="#A4B6C5"/><path d="M24.725 2.532c.286-.316.69-.507 1.12-.532.502.014.984.186 1.375.49.56.4 1.056.877 1.475 1.416.55.703 1.037 1.45 1.454 2.236.512.95.964 1.93 1.352 2.932.424 1.047 1.235 3.664 2.432 7.85 1.197 4.188 1.863 6.706 1.998 7.554.222 1.477-.097 2.696-.957 3.655-.227.294-.514.54-.843.72-.334.113-.688.162-1.04.143-.36.017-.72-.03-1.063-.143-.34-.17-.642-.4-.895-.68-.53-.54-.91-1.202-1.104-1.925-.28-1.158-.446-2.34-.496-3.53-.084-1.45-.25-2.393-.497-2.832-.248-.44-.732-.66-1.454-.66-.804 0-1.456.446-1.956 1.334-.54 1.064-.797 2.242-.75 3.427.038 1.067-.243 2.122-.81 3.038-.54.818-1.198 1.227-1.976 1.227-.25-.005-.496-.053-.728-.143-.272-.107-.53-.244-.767-.41-.247-.16-.475-.346-.68-.556-.2-.212-.375-.447-.517-.7-.416-.738-.506-1.853-.27-3.344.236-1.49.964-4.618 2.183-9.38 1.387-5.257 2.218-8.35 2.496-9.28.166-.69.48-1.34.92-1.908zm2.992 8.497c-.25-1.56-.472-2.464-.665-2.712-.36-.475-.63-.223-.814.756-.17 1.142-.254 2.294-.248 3.447l-.127 3.448.666.618c.58.575.982.76 1.204.556.222-.205.333-.84.333-1.91-.03-1.412-.147-2.82-.35-4.22v.017z" fill="#A4B6C5"/><path d="M36.834 3.458c.314-.296.736-.46 1.176-.458.673.077 1.313.328 1.85.727.715.436 1.354.978 1.893 1.606 1.24 1.715 2.34 3.52 3.29 5.4 1.315 2.473 2.467 4.905 3.456 7.295.313.8.71 1.57 1.183 2.293.342.485.637.674.884.567.192-.053.315-2.5.37-7.335.057-3.788.153-6.197.29-7.228.067-.835.402-1.63.958-2.276.52-.565 1.267-.72 2.243-.462.93.223 1.71.838 2.118 1.675.27.59.402 1.23.39 1.876.043.872.064 2.935.064 6.187 0 3.48-.075 6.49-.225 9.03-.086 1.972-.3 3.938-.638 5.886-.328 1.637-1.19 2.376-2.59 2.215-.66-.082-1.268-.382-1.725-.847-.492-.428-1.918-2.645-4.278-6.65-1.234-2.095-2.16-3.606-2.776-4.532-.617-.926-.994-1.376-1.13-1.35-.192.028-.302.295-.33.804-.027.508-.013 1.69.042 3.545.043 1.654-.005 3.31-.142 4.96-.06.966-.29 1.916-.68 2.81-.3.627-.804 1.143-1.437 1.47-.77.425-1.71.447-2.5.06-.918-.458-1.644-1.205-2.056-2.117-.282-.597-.442-1.24-.47-1.895-.043-.7-.064-2.78-.064-6.247.056-4.703.138-8.627.246-11.773.083-2.14.158-3.498.225-4.07.008-.414.134-.817.364-1.165zM67.765 7.463c.414-.242.874-.4 1.352-.463.38.098.723.302.99.587.737.54 1.55.973 2.413 1.287.5.185.98.422 1.43.708.297.22.54.503.707.83.23.442.35.933.343 1.43-.014.473-.195 2.203-.544 5.19-.215 1.912-.416 4.375-.604 7.39-.11 2.072-.203 3.338-.282 3.797-.067.432-.28.83-.605 1.13-.436.444-1.047.68-1.675.647-.63.03-1.245-.19-1.712-.608-.506-.496-.88-1.107-1.086-1.78-.242-.727-.31-1.5-.2-2.26.133-1.104.053-1.724-.24-1.858-.11-.053-.232.04-.365.282-.556.987-1.37 1.81-2.357 2.38-.92.533-1.982.773-3.044.69-1.694-.135-2.896-.775-3.607-1.92-.712-1.145-.865-2.66-.46-4.54.404-1.878 1.344-3.938 2.82-6.18 1-1.465 2.14-2.83 3.407-4.08 1.433-1.452 2.54-2.34 3.318-2.66zm1.25 5.63c-.052-.1-.145-.177-.256-.207-.112-.03-.232-.014-.33.047-.324.17-.596.42-.788.728-.458.62-1.465 2.304-3.023 5.05-1.56 2.746-2.338 4.212-2.338 4.4 0 .78.483.673 1.45-.322.977-1.044 1.828-2.195 2.537-3.43.725-1.208 1.363-2.463 1.91-3.758.666-1.52.944-2.362.835-2.526v.02z" fill="#A4B6C5"/><path d="M75.198 1.664c.844-.84 1.36-1.332 1.548-1.475.237-.15.52-.215.798-.18.28.03.548.135.776.3.232.173.42.397.544.657.13.26.168.555.11.84-.02.168-.072.33-.152.48-.138.214-.294.417-.47.604-.218.25-.538.593-.965 1.034-1.93 1.96-3.137 2.98-3.623 3.06-.443.065-.894-.062-1.236-.35-.436-.31-.602-.61-.498-.9.335-.63.74-1.22 1.21-1.76.726-.91 1.38-1.68 1.958-2.31z" fill="#7B8891"/><path d="M76.47 3.755c.623-.278 1.26-.524 1.91-.738.27-.046.546.003.783.137.24.134.442.326.585.56.147.24.233.51.25.79.025.45-.177.885-.54 1.157-.202.143-.415.267-.64.37-.272.138-.682.327-1.228.568-2.456 1.032-3.912 1.495-4.368 1.387-.423-.107-.78-.387-.983-.77-.274-.442-.313-.77-.12-.986.53-.44 1.11-.818 1.728-1.125.988-.56 1.862-1.01 2.62-1.35z" fill="#A4B6C5"/></g></svg>