<svg width="25" height="26" viewBox="0 0 25 26" xmlns="http://www.w3.org/2000/svg"><g fill-rule="nonzero" fill="#F9FAFF"><path d="M11.635.865C5.143 1.175.02 6.58.04 13.078c.007 1.98.484 3.848 1.327 5.5l-1.294 6.28c-.07.34.237.638.574.558l6.156-1.458c1.582.788 3.358 1.243 5.238 1.27 6.636.103 12.168-5.165 12.375-11.798C24.635 6.32 18.77.525 11.635.865zM18.98 19.79c-1.803 1.803-4.2 2.796-6.75 2.796-1.492 0-2.92-.335-4.247-.996l-.858-.427-3.774.894.796-3.856-.423-.826c-.688-1.348-1.037-2.806-1.037-4.333 0-2.55.993-4.946 2.795-6.75 1.788-1.785 4.224-2.794 6.75-2.794 2.55 0 4.947.993 6.75 2.795 1.803 1.804 2.796 4.2 2.796 6.75 0 2.527-1.01 4.963-2.796 6.75z"/><path d="M18.147 15.684l-2.36-.678c-.312-.09-.646 0-.872.23l-.578.588c-.243.248-.613.328-.935.197-1.117-.45-3.467-2.54-4.067-3.585-.173-.3-.144-.678.068-.953l.505-.652c.197-.256.24-.6.108-.894L9.023 7.69c-.238-.54-.926-.696-1.375-.316-.66.557-1.44 1.404-1.536 2.343-.168 1.654.542 3.74 3.225 6.244 3.1 2.894 5.58 3.276 7.198 2.884.916-.222 1.65-1.112 2.11-1.84.316-.497.067-1.157-.498-1.32z"/></g></svg>