<svg xmlns="http://www.w3.org/2000/svg" width="198" height="195"><g fill="#3F0209"><path d="M172.92 171.708l-2.854-.873 27.04-88.441c2.404-7.866-2.039-16.221-9.904-18.626l-19.971-6.106 2.617-8.559c.28-.915.078-1.888-.485-2.64l.022-.019-33.2-44.466A2.986 2.986 0 0 0 132.81.946l-52.39 18.3.008.026c-.884.31-1.596 1.004-1.876 1.92l-2.616 8.558-19.971-6.105c-7.866-2.405-16.221 2.038-18.626 9.903l-27.04 88.442-2.852-.872a2.982 2.982 0 0 0-3.726 1.98l-2.616 8.56c-2.405 7.865 2.038 16.22 9.903 18.625l142.65 43.612c7.865 2.405 16.22-2.038 18.625-9.903l2.617-8.56a2.982 2.982 0 0 0-1.98-3.724zm-14.411-85.516a5.973 5.973 0 0 1 3.961 7.45 5.973 5.973 0 0 1-7.45 3.962l3.489-11.412zm-25.796-78.89l29.34 39.297-11.182 3.35 1.859-6.08a2.982 2.982 0 0 0-1.981-3.724l-51.354-15.7a2.982 2.982 0 0 0-3.725 1.98l-1.858 6.08-7.397-9.031 46.298-16.171zm13.439 37.676l-2.15 7.033-27.476 8.237-18.172-22.193 2.15-7.032 45.648 13.955zM82.629 28.265l30.54 37.302a2.97 2.97 0 0 0 3.164.967l46.18-13.846-13.2 43.171L69.43 71.436l13.199-43.17zM64.833 76.27l85.59 26.167 2.852.872c6.294 1.925 12.977-1.629 14.901-7.922 1.924-6.294-1.63-12.977-7.923-14.901l1.745-5.706 17.117 5.233-22.678 74.177-125.53-38.379 22.677-74.176 17.118 5.233-1.744 5.706c-6.294-1.924-12.977 1.63-14.901 7.923-1.924 6.294 1.63 12.977 7.923 14.9l2.853.873zm2.38-17.99l-3.489 11.412a5.973 5.973 0 0 1-3.961-7.45 5.973 5.973 0 0 1 7.45-3.962zM43.045 35.293c1.442-4.719 6.457-7.385 11.175-5.942l19.971 6.105-1.744 5.706-19.971-6.105a2.982 2.982 0 0 0-3.725 1.98L24.328 116.92a2.982 2.982 0 0 0 1.98 3.725l131.238 40.123a2.982 2.982 0 0 0 3.725-1.98l24.423-79.883a2.982 2.982 0 0 0-1.981-3.725l-19.971-6.106 1.744-5.706 19.971 6.106c4.72 1.443 7.385 6.457 5.943 11.175l-27.04 88.442-57.06-17.445a2.982 2.982 0 0 0-3.724 1.98 2.986 2.986 0 0 1-3.726 1.982l-22.824-6.978a2.986 2.986 0 0 1-1.98-3.726 2.982 2.982 0 0 0-1.981-3.725l-57.06-17.445 27.04-88.441zm123.532 146.954c-1.442 4.719-6.457 7.385-11.175 5.942l-142.65-43.612c-4.718-1.442-7.384-6.457-5.941-11.175l1.744-5.706 60.4 18.466c.163 3.681 2.607 7.036 6.327 8.173l22.824 6.978c3.72 1.138 7.622-.277 9.815-3.238l60.4 18.466-1.744 5.706z"/><path d="M103.624 93.898l5.738 1.754-1.754 5.738-5.738-1.755zM99.823 106.33l5.738 1.754-1.754 5.738-5.738-1.755zM88.348 102.821l5.737 1.754-1.754 5.738-5.738-1.754zM110.343 109.546l5.737 1.754-1.754 5.738-5.738-1.755zM96.315 117.805l5.738 1.754-1.755 5.738-5.737-1.754zM84.84 114.297l5.737 1.754-1.754 5.738-5.738-1.754zM72.407 110.496l5.738 1.754-1.754 5.738-5.738-1.754zM106.834 121.021l5.738 1.755-1.754 5.737-5.738-1.754zM119.266 124.822l5.738 1.754-1.754 5.738-5.738-1.754z"/></g></svg>