<svg width="223" height="56" xmlns="http://www.w3.org/2000/svg"><g fill="#FFF" fill-rule="evenodd"><path d="M12.212 35.106l1.47-.543.4-4.07.135 3.934 5.345-2.17s-1.069 2.442-2.138 2.984c-.802.407-3.074 1.357-3.074 1.357l-.267 4.206-.267-3.935-1.47.543L7 56l18.843-13.296s.802-6.513 2.005-5.563c1.203.814 3.207 2.578 3.207 2.578L36 40.804l-2.673-11.126s.668-12.075-9.89-11.668c-10.423.271-10.29 4.342-10.29 4.342l-.935-2.714-3.341 22.387 1.87-3.256s-.534.271-.4-.272c.134-.678 1.871-3.391 1.871-3.391z"/><path d="M14.676 17.273L0 6.467s39.952-20.666 43.35 11.887c.951 9.725-3.126 20.531-3.126 20.531l-4.212-14.047s-4.213-15.804-21.336-7.565zm61.832-1.62l.68.135c.814.135 1.494.675 2.037 1.89-.135 1.487-1.223 2.567-2.99 3.378-1.902.405-3.804.945-5.57 1.756 0 .27 2.038.945 6.386 2.16 1.36.811 2.039 1.892 1.903 3.243-.272 2.16-3.534 4.322-9.785 6.483-3.125 1.891-6.387 3.647-9.784 5.133h-1.087c-.544-.81-.951-1.756-.815-2.837.271-1.89 2.99-3.782 8.017-5.808 1.495-.945 2.31-1.486 2.31-1.62l-1.766-.541-3.533-.27c-3.126-.405-4.485-1.621-4.213-3.512.408-3.107 3.533-5.403 9.512-6.754 4.213-2.161 7.067-3.107 8.698-2.836zm17.53-2.297c5.3.81 7.882 1.756 7.746 2.837.543 2.026.68 4.052.543 6.078-.68 2.567-1.495 3.917-2.582 3.782-.815.135-2.31 1.08-4.484 2.972-1.223 0-4.349 1.08-9.649 2.972-.679.27-.95.945-1.223 2.16l-.271 2.432c-.136.81.407 1.35 1.359 1.621v.135c-1.088 1.08-2.718 1.35-5.028 1.08h-.136c-.816-.81-.816-4.051-.272-9.86l2.038-12.427.272-3.241c2.582-.946 6.523-1.216 11.687-.54zm-3.67 5.944l-1.358-.135c-.544-.136-1.223 1.08-2.039 3.511l-.136.81c-.135 1.352 0 2.027.408 2.027s1.36-.405 2.718-1.216c5.164-1.215 7.882-2.566 8.018-4.322l.136-.135-.136-.135-1.087-.405h-6.523zm23.374-7.43c1.087.136 2.175 2.297 3.126 6.349l8.561 16.614-.136 1.351c-.951 2.701-2.31 4.052-3.805 3.782-1.495-.27-2.582-1.891-2.99-4.998-.271-.81-.815-1.486-1.494-2.16h-.408l-10.056.54c-1.495-.136-2.99 1.485-4.62 5.132l-1.767.27h-.136c-1.359-.135-2.174-.54-2.582-1.215 2.99-8.375 6.795-15.399 11.415-20.802 2.31-3.377 4.077-4.998 4.892-4.863zm-1.495 9.726l-3.397 5.268v.135c.408.54.951.81 1.63.81 2.719 0 4.213-.27 4.213-.675-.135-1.891-.95-3.782-2.038-5.403l-.408-.135zm28.538-9.05c5.164.675 8.425 2.161 9.648 4.592l-.543 4.593c-.272 1.216-2.175 2.701-5.572 4.187-.951.405-1.767.946-2.582 1.486 1.63 1.216 3.397 2.161 5.164 3.107a4.783 4.783 0 0 1 1.903 3.377v.27c-.68 1.486-1.495 2.431-2.175 2.836-4.892-1.35-8.29-2.566-9.92-3.512-1.902-1.485-3.125-2.296-3.669-2.296-1.223.27-1.902.676-2.038 1.621v.135c0 1.216.136 2.432.407 3.647-1.63 1.756-2.853 2.567-3.805 2.432-1.087-.81-1.63-1.621-1.495-2.702l1.903-5.538 1.223-10.4.544-4.053c.271-1.756 1.63-2.972 3.94-3.512s4.757-.54 7.067-.27zm-7.474 8.24l.136 1.755.543.135c.951.136 2.446-.405 4.485-1.485 1.766.135 3.397-.406 4.62-1.486l.136-.135v-.135c-.136-.54-.815-.81-2.174-1.08h-.408c-4.62-.136-7.066.54-7.202 2.025l-.136.405zm36.963-8.375c2.853.405 4.212.81 4.076 1.215v.676c-.271 1.08-.95 1.62-1.902 1.486-1.63-.27-4.892.135-10.056.945l-1.087 4.052.136.135-.272.676-.136 1.216-.136.135.136.135c-1.223 6.889-2.038 10.536-2.446 10.67-1.903-.27-2.854-2.026-2.718-5.132v-.405l1.902-8.915c.136-1.216 0-1.891-.271-1.891l-.68-.136-2.854.54h-.135c-1.495-.675-2.175-1.485-2.039-2.566v-1.756l.136-.675c0-.135.272-.27.68-.405.135 0 .543.27.95.81l.68.27c6.659-1.215 11.959-1.485 16.036-1.08zm11.958-1.216c1.087.135 2.174 2.296 3.126 6.349l8.561 16.614-.136 1.35c-.951 2.702-2.31 4.053-3.805 3.783-1.63-.135-2.582-1.891-2.854-4.998-.271-.81-.815-1.486-1.495-2.161h-.407l-10.056.405c-1.495-.135-2.99 1.486-4.62 5.133l-1.767.27h-.136c-1.359-.135-2.174-.54-2.582-1.216 2.99-8.374 6.795-15.398 11.415-20.801 2.31-3.377 3.94-4.863 4.756-4.728zm-1.359 9.59l-3.397 5.268v.135c.408.54.951.81 1.63.81 2.718 0 4.213-.27 4.213-.675-.136-1.89-.95-3.782-2.038-5.403l-.408-.135zm25.684-7.834c1.63 1.08 2.718 3.512 3.261 7.294 0 2.431.68 4.728 2.039 6.889h.272c.95-.135 1.494-1.216 1.902-3.512.408-1.08 1.223-2.161 2.174-2.837 1.767-3.647 3.126-5.538 4.213-6.078l.951.135c1.087.135 1.631 1.216 1.631 3.377l-.136.946c-.272 1.755-1.359 3.376-2.854 4.187-.271 0-.95 1.62-2.038 4.998-2.582 5.673-4.62 8.78-6.387 9.32-1.087-.135-1.767-.946-2.31-2.432 0-1.08-.272-2.296-.816-3.241a78.865 78.865 0 0 0-3.261-6.89h-.272c-.543 0-1.63 2.297-3.533 7.025-1.359 2.971-2.718 4.997-3.805 5.943h-.544c-1.223-.675-1.902-2.026-1.63-3.377v-.27c.407-2.837 1.223-4.863 2.582-5.943.407-.406 1.766-3.377 4.077-9.185 1.494-3.107 2.853-5.133 3.94-6.079l.544-.27z" fill-rule="nonzero"/><path d="M134.123 46.333h-2.308v-.8h5.567v.8h-2.308v5.734h-.95z"/><path d="M143.764 52.067l-1.494-2h-2.037v2h-.95v-6.534h2.58c.815 0 1.494.267 2.037.667.543.4.679.933.679 1.733 0 .534-.136.934-.408 1.334-.271.4-.678.666-1.086.8l1.63 2.133h-.95v-.133zM143.221 49c.272-.267.543-.667.543-1.067 0-.533-.136-.8-.543-1.066-.272-.267-.815-.4-1.358-.4h-1.63V49.4h1.63c.543-.133 1.086-.267 1.358-.4z" fill-rule="nonzero"/><path d="M152.047 51.267v.8h-4.888v-6.534h4.752v.8h-3.802v2h3.395v.8h-3.395v2.134zM154.491 45.533h.95v6.534h-.95zM164.132 45.533v6.534h-.814l-3.938-4.934v4.934h-.95v-6.534h.814l3.938 4.934v-4.934z"/><path d="M171.33 50.467h-3.531l-.68 1.6h-.95l2.988-6.534h.95l2.987 6.534h-.95l-.815-1.6zm-.408-.8l-1.494-3.2-1.494 3.2h2.988z" fill-rule="nonzero"/><path d="M181.106 52.067v-4.8l-2.444 4h-.408l-2.444-4v4.666h-.95V45.4h.814l2.716 4.533 2.716-4.533h.815v6.533h-.815zM189.796 51.267v.8h-4.888v-6.534h4.753v.8h-3.802v2h3.394v.8h-3.394v2.134zM198.08 45.533v6.534h-.815l-3.938-4.934v4.934h-.95v-6.534h.814l3.938 4.934v-4.934zM202.289 46.333h-2.308v-.8h5.567v.8h-2.309v5.734h-.95v-5.734z"/><path d="M208.535 51.8a2.64 2.64 0 0 1-1.222-1.2 3.636 3.636 0 0 1-.407-1.733c0-.667.136-1.2.407-1.734a2.64 2.64 0 0 1 1.222-1.2 3.816 3.816 0 0 1 1.765-.4c.68 0 1.223.134 1.766.4.543.267.95.667 1.222 1.2.271.534.407 1.067.407 1.734 0 .666-.136 1.2-.407 1.733a2.64 2.64 0 0 1-1.222 1.2c-.543.267-1.087.4-1.766.4a4.245 4.245 0 0 1-1.765-.4zm3.123-.8c.408-.267.68-.533.95-.933.272-.4.272-.8.272-1.334 0-.533-.135-.933-.271-1.333a3.145 3.145 0 0 0-.95-.933c-.408-.267-.815-.267-1.359-.267-.543 0-.95.133-1.357.267a3.145 3.145 0 0 0-.95.933c-.273.4-.273.8-.273 1.333 0 .534.136.934.272 1.334.272.4.543.666.95.933.408.267.815.267 1.358.267.544 0 1.087 0 1.358-.267z" fill-rule="nonzero"/><path d="M216.818 51.933c-.407-.133-.814-.4-1.086-.533l.407-.667c.272.267.544.4.95.534.408.133.816.266 1.223.266.543 0 .95-.133 1.222-.266a.731.731 0 0 0 .407-.667c0-.267-.135-.4-.271-.533-.136-.134-.272-.267-.543-.267-.272-.133-.543-.133-.95-.267-.544-.133-.951-.266-1.223-.4-.271-.133-.543-.266-.815-.533-.271-.267-.271-.533-.271-.933s.136-.667.271-.934c.136-.266.408-.533.815-.666.407-.134.815-.267 1.358-.267.407 0 .815 0 1.222.133.407.134.679.267.95.4l-.271.8a6.685 6.685 0 0 0-.95-.4c-.272-.133-.68-.133-.951-.133-.543 0-.95.133-1.222.267-.272.133-.407.4-.407.8 0 .266.135.4.271.533s.407.267.543.267c.272.133.543.133.95.266.544.134.951.267 1.223.4.271.134.543.267.815.534.271.266.271.533.271.933s-.136.667-.271.933c-.136.267-.544.534-.815.667-.408.133-.815.267-1.358.267-.543-.267-1.086-.4-1.494-.534z"/></g></svg>